{
copyright = "Copyright (c) 2014 Monotype Imaging Inc. (licensing@monotype.com). All Rights Reserved.";
customParameters = (
{
name = macintoshFONDFamilyID;
value = 18572;
},
{
name = macintoshFONDName;
value = "David Hadash Biblical";
},
{
name = openTypeHeadFlags;
value = (
);
},
{
name = openTypeNameDescription;
value = "";
},
{
name = openTypeNameLicense;
value = "";
},
{
name = openTypeNameLicenseURL;
value = "";
},
{
name = openTypeNameSampleText;
value = "";
},
{
name = openTypeNameUniqueID;
value = "";
},
{
name = openTypeNameVersion;
value = "";
},
{
name = openTypeOS2CodePageRanges;
value = (
    5,
    53
);
},
{
name = openTypeOS2FamilyClass;
value = (
    0,
    0
);
},
{
name = openTypeOS2Panose;
value = (
    0,
    0,
    0,
    0,
    0,
    0,
    0,
    0,
    0,
    0
);
},
{
name = openTypeOS2Selection;
value = (
);
},
{
name = openTypeOS2StrikeoutPosition;
value = 250;
},
{
name = openTypeOS2StrikeoutSize;
value = 50;
},
{
name = openTypeOS2SubscriptXOffset;
value = 0;
},
{
name = openTypeOS2SubscriptXSize;
value = 700;
},
{
name = openTypeOS2SubscriptYOffset;
value = 140;
},
{
name = openTypeOS2SubscriptYSize;
value = 650;
},
{
name = openTypeOS2SuperscriptXOffset;
value = 0;
},
{
name = openTypeOS2SuperscriptXSize;
value = 700;
},
{
name = openTypeOS2SuperscriptYOffset;
value = 477;
},
{
name = openTypeOS2SuperscriptYSize;
value = 650;
},
{
name = openTypeOS2Type;
value = (
    2
);
},
{
name = openTypeOS2UnicodeRanges;
value = (
    0,
    1,
    11,
    31,
    33,
    38,
    62
);
},
{
name = openTypeOS2VendorID;
value = PYRS;
},
{
name = postscriptBlueFuzz;
value = 1;
},
{
name = postscriptBlueScale;
value = 0.039625;
},
{
name = postscriptBlueShift;
value = 7;
},
{
name = postscriptForceBold;
value = 0;
},
{
name = postscriptIsFixedPitch;
value = 0;
},
{
name = postscriptUniqueID;
value = -1;
},
{
name = trademark;
value = "David Hadash is a trademark of Monotype Imaging Inc. and may be registered in certain jurisdictions.";
},
{

glyphs = (
{
glyphname = uniFB4F;
lastChange = "2015-11-23 13:46:33 +0000";
layers = (
{
guideLines = (
{
position = "{-80, -31}";
},
{
position = "{-80, 1583}";
},
{
angle = 90;
position = "{94, 0}";
}
);
layerId = "07D67BE4-D244-4E4A-8B00-C8B60A440C6D";
name = Light;
paths = (
{
closed = 1;
nodes = (
"360 108 CURVE SMOOTH",
"322 61 OFFCURVE",
"225 11 OFFCURVE",
"143 -22 CURVE SMOOTH",
"134 -25 OFFCURVE",
"126 -27 OFFCURVE",
"125 -27 CURVE SMOOTH",
"118 -27 OFFCURVE",
"114 -22 OFFCURVE",
"114 -11 CURVE SMOOTH",
"114 7 OFFCURVE",
"152 104 OFFCURVE",
"159 123 CURVE SMOOTH",
"164 135 OFFCURVE",
"170 145 OFFCURVE",
"179 152 CURVE SMOOTH",
"206 174 OFFCURVE",
"247 186 OFFCURVE",
"292 210 CURVE SMOOTH",
"321 224 OFFCURVE",
"349 244 OFFCURVE",
"365 277 CURVE SMOOTH",
"412 373 OFFCURVE",
"412 539 OFFCURVE",
"412 629 CURVE SMOOTH",
"412 688 OFFCURVE",
"406 711 OFFCURVE",
"369 744 CURVE SMOOTH",
"322 783 OFFCURVE",
"263 812 OFFCURVE",
"223 857 CURVE SMOOTH",
"193 891 OFFCURVE",
"189 937 OFFCURVE",
"189 993 CURVE SMOOTH",
"189 1050 OFFCURVE",
"186 1132 OFFCURVE",
"159 1199 CURVE SMOOTH",
"155 1208 OFFCURVE",
"153 1213 OFFCURVE",
"153 1217 CURVE SMOOTH",
"153 1224 OFFCURVE",
"159 1231 OFFCURVE",
"164 1240 CURVE SMOOTH",
"188 1279 OFFCURVE",
"227 1328 OFFCURVE",
"251 1351 CURVE SMOOTH",
"254 1355 OFFCURVE",
"258 1358 OFFCURVE",
"261 1358 CURVE SMOOTH",
"266 1358 OFFCURVE",
"273 1353 OFFCURVE",
"281 1342 CURVE SMOOTH",
"307 1303 OFFCURVE",
"322 1219 OFFCURVE",
"322 1152 CURVE SMOOTH",
"322 1054 OFFCURVE",
"328 1012 OFFCURVE",
"363 984 CURVE SMOOTH",
"476 891 OFFCURVE",
"566 819 OFFCURVE",
"670 724 CURVE SMOOTH",
"831 573 OFFCURVE",
"887 511 OFFCURVE",
"887 511 CURVE",
"890 509 OFFCURVE",
"894 506 OFFCURVE",
"899 506 CURVE SMOOTH",
"902 506 OFFCURVE",
"906 508 OFFCURVE",
"909 513 CURVE SMOOTH",
"951 570 OFFCURVE",
"969 677 OFFCURVE",
"969 746 CURVE SMOOTH",
"969 790 OFFCURVE",
"960 848 OFFCURVE",
"930 905 CURVE SMOOTH",
"926 912 OFFCURVE",
"923 918 OFFCURVE",
"923 925 CURVE SMOOTH",
"923 930 OFFCURVE",
"924 937 OFFCURVE",
"928 942 CURVE SMOOTH",
"949 975 OFFCURVE",
"1015 1047 OFFCURVE",
"1042 1074 CURVE SMOOTH",
"1048 1079 OFFCURVE",
"1049 1082 OFFCURVE",
"1058 1082 CURVE SMOOTH",
"1063 1082 OFFCURVE",
"1066 1079 OFFCURVE",
"1068 1077 CURVE SMOOTH",
"1100 1034 OFFCURVE",
"1138 964 OFFCURVE",
"1138 869 CURVE SMOOTH",
"1138 790 OFFCURVE",
"1114 727 OFFCURVE",
"1096 681 CURVE SMOOTH",
"1073 619 OFFCURVE",
"1019 525 OFFCURVE",
"978 464 CURVE SMOOTH",
"969 450 OFFCURVE",
"967 439 OFFCURVE",
"967 439 CURVE",
"967 434 OFFCURVE",
"971 426 OFFCURVE",
"974 423 CURVE SMOOTH",
"1025 369 OFFCURVE",
"1222 156 OFFCURVE",
"1236 135 CURVE SMOOTH",
"1239 129 OFFCURVE",
"1241 123 OFFCURVE",
"1241 118 CURVE SMOOTH",
"1241 115 OFFCURVE",
"1241 109 OFFCURVE",
"1239 104 CURVE SMOOTH",
"1229 72 OFFCURVE",
"1193 -7 OFFCURVE",
"1181 -32 CURVE SMOOTH",
"1177 -39 OFFCURVE",
"1171 -45 OFFCURVE",
"1166 -45 CURVE SMOOTH",
"1161 -45 OFFCURVE",
"1157 -41 OFFCURVE",
"1152 -36 CURVE SMOOTH",
"1071 67 OFFCURVE",
"971 181 OFFCURVE",
"921 233 CURVE SMOOTH",
"801 359 OFFCURVE",
"687 473 OFFCURVE",
"571 573 CURVE SMOOTH",
"567 577 OFFCURVE",
"562 581 OFFCURVE",
"557 581 CURVE SMOOTH",
"550 581 OFFCURVE",
"545 575 OFFCURVE",
"543 566 CURVE SMOOTH",
"519 443 OFFCURVE",
"460 229 OFFCURVE"
);
}
);
width = 1286;
}
);
unicode = FB4F;
userData = {
com.typemytype.robofont.guides = (
{
angle = 0;
isGlobal = 0;
magnetic = 5;
x = 0;
y = -15;
},
{
angle = 0;
isGlobal = 0;
magnetic = 5;
x = 0;
y = 773;
},
{
angle = 90;
isGlobal = 0;
magnetic = 5;
x = 85;
y = 0;
}
);
};
},
{
glyphname = alefhebrew;
lastChange = "2015-11-23 13:46:33 +0000";
layers = (
{
layerId = "07D67BE4-D244-4E4A-8B00-C8B60A440C6D";
name = Light;
paths = (
{
closed = 1;
nodes = (
"153 125 CURVE SMOOTH",
"152 178 OFFCURVE",
"148 222 OFFCURVE",
"148 267 CURVE SMOOTH",
"148 313 OFFCURVE",
"153 375 OFFCURVE",
"174 434 CURVE SMOOTH",
"191 491 OFFCURVE",
"227 583 OFFCURVE",
"309 697 CURVE SMOOTH",
"315 704 OFFCURVE",
"321 713 OFFCURVE",
"321 720 CURVE SMOOTH",
"321 725 OFFCURVE",
"315 733 OFFCURVE",
"311 737 CURVE SMOOTH",
"247 794 OFFCURVE",
"148 864 OFFCURVE",
"83 918 CURVE SMOOTH",
"80 920 OFFCURVE",
"76 927 OFFCURVE",
"76 932 CURVE SMOOTH",
"76 935 OFFCURVE",
"80 942 OFFCURVE",
"82 948 CURVE SMOOTH",
"89 968 OFFCURVE",
"116 1025 OFFCURVE",
"148 1070 CURVE SMOOTH",
"152 1075 OFFCURVE",
"157 1081 OFFCURVE",
"164 1081 CURVE SMOOTH",
"167 1081 OFFCURVE",
"172 1079 OFFCURVE",
"174 1077 CURVE SMOOTH",
"324 968 OFFCURVE",
"463 850 OFFCURVE",
"601 722 CURVE SMOOTH",
"763 571 OFFCURVE",
"822 509 OFFCURVE",
"822 509 CURVE SMOOTH",
"825 508 OFFCURVE",
"829 503 OFFCURVE",
"834 503 CURVE SMOOTH",
"839 503 OFFCURVE",
"842 506 OFFCURVE",
"846 511 CURVE SMOOTH",
"887 568 OFFCURVE",
"904 676 OFFCURVE",
"904 744 CURVE SMOOTH",
"904 788 OFFCURVE",
"895 846 OFFCURVE",
"865 903 CURVE SMOOTH",
"861 910 OFFCURVE",
"858 916 OFFCURVE",
"858 923 CURVE SMOOTH",
"858 928 OFFCURVE",
"860 935 OFFCURVE",
"863 941 CURVE SMOOTH",
"885 973 OFFCURVE",
"951 1045 OFFCURVE",
"978 1072 CURVE SMOOTH",
"983 1077 OFFCURVE",
"985 1081 OFFCURVE",
"994 1081 CURVE SMOOTH",
"998 1081 OFFCURVE",
"1001 1077 OFFCURVE",
"1003 1075 CURVE SMOOTH",
"1035 1033 OFFCURVE",
"1073 963 OFFCURVE",
"1073 867 CURVE SMOOTH",
"1073 788 OFFCURVE",
"1049 725 OFFCURVE",
"1032 679 CURVE SMOOTH",
"1008 617 OFFCURVE",
"955 523 OFFCURVE",
"914 462 CURVE SMOOTH",
"904 448 OFFCURVE",
"902 438 OFFCURVE",
"902 438 CURVE SMOOTH",
"902 432 OFFCURVE",
"906 424 OFFCURVE",
"909 421 CURVE SMOOTH",
"960 368 OFFCURVE",
"1157 154 OFFCURVE",
"1171 133 CURVE SMOOTH",
"1175 127 OFFCURVE",
"1177 122 OFFCURVE",
"1177 116 CURVE SMOOTH",
"1177 113 OFFCURVE",
"1177 108 OFFCURVE",
"1175 102 CURVE SMOOTH",
"1164 70 OFFCURVE",
"1128 -9 OFFCURVE",
"1116 -34 CURVE SMOOTH",
"1112 -41 OFFCURVE",
"1107 -46 OFFCURVE",
"1102 -46 CURVE SMOOTH",
"1096 -46 OFFCURVE",
"1092 -43 OFFCURVE",
"1087 -38 CURVE SMOOTH",
"1007 65 OFFCURVE",
"906 179 OFFCURVE",
"856 231 CURVE SMOOTH",
"813 276 OFFCURVE",
"745 353 OFFCURVE",
"670 424 CURVE SMOOTH",
"589 503 OFFCURVE",
"497 577 OFFCURVE",
"415 655 CURVE SMOOTH",
"408 662 OFFCURVE",
"396 662 OFFCURVE",
"396 662 CURVE SMOOTH",
"391 662 OFFCURVE",
"381 656 OFFCURVE",
"377 648 CURVE SMOOTH",
"306 503 OFFCURVE",
"281 403 OFFCURVE",
"281 306 CURVE SMOOTH",
"281 262 OFFCURVE",
"286 222 OFFCURVE",
"313 192 CURVE SMOOTH",
"328 172 OFFCURVE",
"345 171 OFFCURVE",
"372 171 CURVE SMOOTH",
"413 171 LINE SMOOTH",
"428 171 OFFCURVE",
"437 169 OFFCURVE",
"437 158 CURVE SMOOTH",
"437 135 OFFCURVE",
"377 34 OFFCURVE",
"365 18 CURVE SMOOTH",
"356 7 OFFCURVE",
"347 0 OFFCURVE",
"331 0 CURVE SMOOTH",
"125 0 LINE SMOOTH",
"114 0 OFFCURVE",
"112 5 OFFCURVE",
"112 11 CURVE SMOOTH",
"112 14 OFFCURVE",
"112 18 OFFCURVE",
"114 20 CURVE SMOOTH",
"132 50 OFFCURVE",
"153 97 OFFCURVE"
);
}
);
width = 1221;
}
);
unicode = 05D0;
},
{
glyphname = bethebrew;
lastChange = "2015-11-23 13:46:33 +0000";
layers = (
{
layerId = "07D67BE4-D244-4E4A-8B00-C8B60A440C6D";
name = Light;
paths = (
{
closed = 1;
nodes = (
"35 27 CURVE SMOOTH",
"53 60 OFFCURVE",
"95 122 OFFCURVE",
"112 147 CURVE SMOOTH",
"123 161 OFFCURVE",
"136 169 OFFCURVE",
"146 169 CURVE SMOOTH",
"616 169 LINE SMOOTH",
"637 169 OFFCURVE",
"639 190 OFFCURVE",
"639 204 CURVE SMOOTH",
"639 292 OFFCURVE",
"627 677 OFFCURVE",
"623 711 CURVE SMOOTH",
"618 771 OFFCURVE",
"567 819 OFFCURVE",
"514 819 CURVE SMOOTH",
"76 819 LINE SMOOTH",
"46 819 OFFCURVE",
"32 831 OFFCURVE",
"32 857 CURVE SMOOTH",
"32 872 OFFCURVE",
"61 923 OFFCURVE",
"89 963 CURVE SMOOTH",
"123 1009 OFFCURVE",
"139 1031 OFFCURVE",
"175 1070 CURVE SMOOTH",
"186 1081 OFFCURVE",
"191 1081 OFFCURVE",
"191 1081 CURVE SMOOTH",
"202 1081 OFFCURVE",
"208 1079 OFFCURVE",
"211 1065 CURVE SMOOTH",
"218 1029 OFFCURVE",
"230 989 OFFCURVE",
"272 989 CURVE SMOOTH",
"550 989 LINE SMOOTH",
"622 989 OFFCURVE",
"682 954 OFFCURVE",
"714 908 CURVE SMOOTH",
"745 865 OFFCURVE",
"755 783 OFFCURVE",
"757 725 CURVE SMOOTH",
"763 570 OFFCURVE",
"759 431 OFFCURVE",
"767 282 CURVE SMOOTH",
"769 246 OFFCURVE",
"770 207 OFFCURVE",
"791 183 CURVE SMOOTH",
"804 171 OFFCURVE",
"832 169 OFFCURVE",
"890 169 CURVE SMOOTH",
"897 169 OFFCURVE",
"908 163 OFFCURVE",
"908 151 CURVE SMOOTH",
"908 147 OFFCURVE",
"906 142 OFFCURVE",
"904 137 CURVE SMOOTH",
"894 115 OFFCURVE",
"842 34 OFFCURVE",
"824 16 CURVE SMOOTH",
"811 4 OFFCURVE",
"804 0 OFFCURVE",
"776 0 CURVE SMOOTH",
"59 0 LINE SMOOTH",
"42 0 OFFCURVE",
"32 5 OFFCURVE",
"32 16 CURVE SMOOTH",
"32 20 OFFCURVE",
"34 24 OFFCURVE"
);
}
);
width = 936;
}
);
unicode = 05D1;
},
{
glyphname = gimelhebrew;
lastChange = "2015-11-23 13:46:33 +0000";
layers = (
{
layerId = "07D67BE4-D244-4E4A-8B00-C8B60A440C6D";
name = Light;
paths = (
{
closed = 1;
nodes = (
"93 144 CURVE SMOOTH",
"100 158 OFFCURVE",
"104 156 OFFCURVE",
"111 159 CURVE SMOOTH",
"116 163 OFFCURVE",
"188 183 OFFCURVE",
"239 224 CURVE SMOOTH",
"306 277 OFFCURVE",
"358 337 OFFCURVE",
"392 390 CURVE SMOOTH",
"398 400 OFFCURVE",
"399 407 OFFCURVE",
"399 417 CURVE SMOOTH",
"399 424 OFFCURVE",
"399 436 OFFCURVE",
"398 446 CURVE SMOOTH",
"388 491 OFFCURVE",
"358 643 OFFCURVE",
"342 684 CURVE SMOOTH",
"328 720 OFFCURVE",
"317 740 OFFCURVE",
"285 769 CURVE SMOOTH",
"236 812 OFFCURVE",
"138 864 OFFCURVE",
"59 900 CURVE SMOOTH",
"48 905 OFFCURVE",
"41 910 OFFCURVE",
"41 921 CURVE SMOOTH",
"41 928 OFFCURVE",
"44 934 OFFCURVE",
"55 949 CURVE SMOOTH",
"82 987 OFFCURVE",
"119 1043 OFFCURVE",
"139 1067 CURVE SMOOTH",
"145 1074 OFFCURVE",
"152 1081 OFFCURVE",
"157 1081 CURVE SMOOTH",
"162 1081 OFFCURVE",
"174 1075 OFFCURVE",
"186 1068 CURVE SMOOTH",
"247 1033 OFFCURVE",
"345 978 OFFCURVE",
"403 925 CURVE SMOOTH",
"453 876 OFFCURVE",
"482 801 OFFCURVE",
"490 733 CURVE SMOOTH",
"517 525 OFFCURVE",
"539 366 OFFCURVE",
"562 178 CURVE SMOOTH",
"564 163 OFFCURVE",
"566 144 OFFCURVE",
"566 137 CURVE SMOOTH",
"566 127 OFFCURVE",
"566 120 OFFCURVE",
"562 108 CURVE SMOOTH",
"553 70 OFFCURVE",
"523 -9 OFFCURVE",
"505 -39 CURVE SMOOTH",
"503 -43 OFFCURVE",
"497 -46 OFFCURVE",
"492 -46 CURVE SMOOTH",
"489 -46 OFFCURVE",
"483 -45 OFFCURVE",
"480 -39 CURVE SMOOTH",
"461 -11 OFFCURVE",
"432 235 OFFCURVE",
"424 274 CURVE SMOOTH",
"424 277 OFFCURVE",
"420 282 OFFCURVE",
"417 282 CURVE SMOOTH",
"413 282 OFFCURVE",
"410 277 OFFCURVE",
"405 269 CURVE SMOOTH",
"367 193 OFFCURVE",
"317 120 OFFCURVE",
"245 65 CURVE SMOOTH",
"196 27 OFFCURVE",
"93 -25 OFFCURVE",
"46 -25 CURVE SMOOTH",
"39 -25 OFFCURVE",
"34 -22 OFFCURVE",
"34 -14 CURVE SMOOTH",
"34 -5 OFFCURVE",
"85 129 OFFCURVE"
);
}
);
width = 650;
}
);
unicode = 05D2;
},
{
glyphname = dalethebrew;
lastChange = "2015-11-23 13:46:33 +0000";
layers = (
{
layerId = "07D67BE4-D244-4E4A-8B00-C8B60A440C6D";
name = Light;
paths = (
{
closed = 1;
nodes = (
"545 774 CURVE SMOOTH",
"545 797 OFFCURVE",
"537 821 OFFCURVE",
"512 821 CURVE SMOOTH",
"64 821 LINE SMOOTH",
"39 821 OFFCURVE",
"23 835 OFFCURVE",
"23 851 CURVE SMOOTH",
"23 874 OFFCURVE",
"141 1043 OFFCURVE",
"164 1070 CURVE SMOOTH",
"170 1077 OFFCURVE",
"179 1081 OFFCURVE",
"186 1081 CURVE SMOOTH",
"200 1081 OFFCURVE",
"206 1065 OFFCURVE",
"208 1050 CURVE SMOOTH",
"215 1004 OFFCURVE",
"230 989 OFFCURVE",
"256 989 CURVE SMOOTH",
"530 989 LINE SMOOTH",
"535 989 OFFCURVE",
"541 991 OFFCURVE",
"546 998 CURVE SMOOTH",
"573 1031 OFFCURVE",
"637 1081 OFFCURVE",
"668 1081 CURVE SMOOTH",
"684 1081 OFFCURVE",
"687 1072 OFFCURVE",
"687 1061 CURVE SMOOTH",
"687 1047 OFFCURVE",
"690 1012 OFFCURVE",
"700 1002 CURVE SMOOTH",
"707 993 OFFCURVE",
"721 989 OFFCURVE",
"740 989 CURVE SMOOTH",
"820 989 LINE SMOOTH",
"829 989 OFFCURVE",
"851 985 OFFCURVE",
"851 966 CURVE SMOOTH",
"851 963 OFFCURVE",
"849 956 OFFCURVE",
"847 949 CURVE SMOOTH",
"832 918 OFFCURVE",
"806 864 OFFCURVE",
"784 833 CURVE SMOOTH",
"779 824 OFFCURVE",
"772 821 OFFCURVE",
"759 821 CURVE SMOOTH",
"713 821 OFFCURVE",
"692 787 OFFCURVE",
"690 756 CURVE SMOOTH",
"687 733 OFFCURVE",
"687 696 OFFCURVE",
"687 656 CURVE SMOOTH",
"687 470 OFFCURVE",
"707 208 OFFCURVE",
"707 149 CURVE SMOOTH",
"707 125 OFFCURVE",
"704 109 OFFCURVE",
"695 93 CURVE SMOOTH",
"670 45 OFFCURVE",
"654 20 OFFCURVE",
"620 -31 CURVE SMOOTH",
"615 -38 OFFCURVE",
"605 -46 OFFCURVE",
"598 -46 CURVE SMOOTH",
"589 -46 OFFCURVE",
"586 -36 OFFCURVE",
"584 -20 CURVE SMOOTH",
"562 244 OFFCURVE",
"552 513 OFFCURVE"
);
}
);
width = 936;
}
);
unicode = 05D3;
},
{
glyphname = hehebrew;
lastChange = "2015-11-23 13:46:33 +0000";
layers = (
{
layerId = "07D67BE4-D244-4E4A-8B00-C8B60A440C6D";
name = Light;
paths = (
{
closed = 1;
nodes = (
"923 676 CURVE SMOOTH",
"916 724 OFFCURVE",
"895 821 OFFCURVE",
"777 821 CURVE SMOOTH",
"132 821 LINE SMOOTH",
"87 821 OFFCURVE",
"64 835 OFFCURVE",
"64 855 CURVE SMOOTH",
"64 862 OFFCURVE",
"66 869 OFFCURVE",
"71 876 CURVE SMOOTH",
"100 921 OFFCURVE",
"189 1033 OFFCURVE",
"230 1070 CURVE SMOOTH",
"236 1075 OFFCURVE",
"244 1081 OFFCURVE",
"249 1081 CURVE SMOOTH",
"258 1081 OFFCURVE",
"266 1075 OFFCURVE",
"270 1059 CURVE SMOOTH",
"273 1043 OFFCURVE",
"273 1014 OFFCURVE",
"288 1002 CURVE SMOOTH",
"300 991 OFFCURVE",
"324 991 OFFCURVE",
"340 991 CURVE",
"808 991 LINE",
"853 991 OFFCURVE",
"904 989 OFFCURVE",
"962 944 CURVE SMOOTH",
"1025 898 OFFCURVE",
"1049 833 OFFCURVE",
"1058 753 CURVE SMOOTH",
"1078 586 OFFCURVE",
"1082 339 OFFCURVE",
"1082 142 CURVE SMOOTH",
"1082 125 OFFCURVE",
"1082 116 OFFCURVE",
"1075 99 CURVE SMOOTH",
"1064 72 OFFCURVE",
"1012 -20 OFFCURVE",
"993 -39 CURVE SMOOTH",
"987 -45 OFFCURVE",
"983 -46 OFFCURVE",
"978 -46 CURVE SMOOTH",
"967 -46 OFFCURVE",
"960 -36 OFFCURVE",
"960 -25 CURVE SMOOTH",
"951 212 OFFCURVE",
"947 520 OFFCURVE"
);
},
{
closed = 1;
nodes = (
"184 462 CURVE SMOOTH",
"184 487 OFFCURVE",
"186 501 OFFCURVE",
"191 511 CURVE SMOOTH",
"209 547 OFFCURVE",
"244 600 OFFCURVE",
"283 645 CURVE SMOOTH",
"286 648 OFFCURVE",
"290 650 OFFCURVE",
"293 650 CURVE SMOOTH",
"302 650 OFFCURVE",
"309 643 OFFCURVE",
"311 627 CURVE SMOOTH",
"326 534 OFFCURVE",
"335 178 OFFCURVE",
"335 120 CURVE SMOOTH",
"335 106 OFFCURVE",
"331 93 OFFCURVE",
"326 82 CURVE SMOOTH",
"304 39 OFFCURVE",
"281 0 OFFCURVE",
"254 -34 CURVE SMOOTH",
"247 -43 OFFCURVE",
"242 -46 OFFCURVE",
"232 -46 CURVE SMOOTH",
"225 -46 OFFCURVE",
"218 -39 OFFCURVE",
"216 -25 CURVE SMOOTH",
"202 169 OFFCURVE",
"184 431 OFFCURVE"
);
}
);
width = 1221;
}
);
unicode = 05D4;
},
{
glyphname = vavhebrew;
lastChange = "2015-11-23 13:46:33 +0000";
layers = (
{
layerId = "07D67BE4-D244-4E4A-8B00-C8B60A440C6D";
name = Light;
paths = (
{
closed = 1;
nodes = (
"379 631 CURVE SMOOTH",
"376 665 OFFCURVE",
"367 696 OFFCURVE",
"331 730 CURVE SMOOTH",
"263 790 OFFCURVE",
"138 864 OFFCURVE",
"68 898 CURVE SMOOTH",
"57 905 OFFCURVE",
"49 910 OFFCURVE",
"49 921 CURVE SMOOTH",
"49 928 OFFCURVE",
"55 935 OFFCURVE",
"61 944 CURVE SMOOTH",
"89 989 OFFCURVE",
"148 1057 OFFCURVE",
"162 1072 CURVE SMOOTH",
"168 1077 OFFCURVE",
"172 1081 OFFCURVE",
"177 1081 CURVE SMOOTH",
"182 1081 OFFCURVE",
"189 1077 OFFCURVE",
"200 1072 CURVE SMOOTH",
"263 1040 OFFCURVE",
"343 989 OFFCURVE",
"433 914 CURVE SMOOTH",
"499 858 OFFCURVE",
"517 797 OFFCURVE",
"523 739 CURVE SMOOTH",
"526 699 OFFCURVE",
"531 559 OFFCURVE",
"531 470 CURVE SMOOTH",
"531 361 OFFCURVE",
"531 233 OFFCURVE",
"526 116 CURVE SMOOTH",
"526 102 OFFCURVE",
"519 88 OFFCURVE",
"514 77 CURVE SMOOTH",
"490 34 OFFCURVE",
"442 -25 OFFCURVE",
"424 -41 CURVE SMOOTH",
"419 -45 OFFCURVE",
"415 -46 OFFCURVE",
"412 -46 CURVE SMOOTH",
"403 -46 OFFCURVE",
"398 -38 OFFCURVE",
"398 -31 CURVE SMOOTH",
"398 131 OFFCURVE",
"396 472 OFFCURVE"
);
}
);
width = 650;
}
);
unicode = 05D5;
},
{
glyphname = zayinhebrew;
lastChange = "2015-11-23 13:46:33 +0000";
layers = (
{
layerId = "07D67BE4-D244-4E4A-8B00-C8B60A440C6D";
name = Light;
paths = (
{
closed = 1;
nodes = (
"191 450 CURVE SMOOTH",
"175 489 OFFCURVE",
"170 532 OFFCURVE",
"170 561 CURVE SMOOTH",
"170 604 OFFCURVE",
"175 670 OFFCURVE",
"204 751 CURVE SMOOTH",
"216 785 OFFCURVE",
"229 810 OFFCURVE",
"229 826 CURVE SMOOTH",
"229 835 OFFCURVE",
"223 843 OFFCURVE",
"215 848 CURVE SMOOTH",
"82 916 LINE SMOOTH",
"71 921 OFFCURVE",
"64 927 OFFCURVE",
"64 934 CURVE SMOOTH",
"64 939 OFFCURVE",
"68 948 OFFCURVE",
"71 954 CURVE SMOOTH",
"104 1002 OFFCURVE",
"132 1040 OFFCURVE",
"155 1068 CURVE SMOOTH",
"162 1077 OFFCURVE",
"168 1081 OFFCURVE",
"175 1081 CURVE SMOOTH",
"181 1081 OFFCURVE",
"184 1079 OFFCURVE",
"191 1075 CURVE SMOOTH",
"299 1021 OFFCURVE",
"499 916 OFFCURVE",
"589 826 CURVE SMOOTH",
"591 824 OFFCURVE",
"594 819 OFFCURVE",
"594 810 CURVE SMOOTH",
"594 805 OFFCURVE",
"593 801 OFFCURVE",
"591 794 CURVE SMOOTH",
"577 751 OFFCURVE",
"557 699 OFFCURVE",
"543 672 CURVE SMOOTH",
"539 663 OFFCURVE",
"531 662 OFFCURVE",
"524 662 CURVE SMOOTH",
"519 662 OFFCURVE",
"512 663 OFFCURVE",
"510 665 CURVE SMOOTH",
"482 681 OFFCURVE",
"430 735 OFFCURVE",
"350 735 CURVE SMOOTH",
"297 735 OFFCURVE",
"275 713 OFFCURVE",
"275 663 CURVE SMOOTH",
"275 641 OFFCURVE",
"285 595 OFFCURVE",
"307 537 CURVE SMOOTH",
"360 405 OFFCURVE",
"440 282 OFFCURVE",
"501 159 CURVE SMOOTH",
"510 142 OFFCURVE",
"512 133 OFFCURVE",
"512 125 CURVE SMOOTH",
"512 118 OFFCURVE",
"510 106 OFFCURVE",
"507 89 CURVE SMOOTH",
"497 50 OFFCURVE",
"487 4 OFFCURVE",
"471 -31 CURVE SMOOTH",
"466 -41 OFFCURVE",
"458 -45 OFFCURVE",
"453 -45 CURVE SMOOTH",
"446 -45 OFFCURVE",
"440 -39 OFFCURVE",
"433 -27 CURVE SMOOTH",
"350 118 OFFCURVE",
"254 298 OFFCURVE"
);
}
);
width = 650;
}
);
unicode = 05D6;
},
{
glyphname = hethebrew;
lastChange = "2015-11-23 13:46:33 +0000";
layers = (
{
layerId = "07D67BE4-D244-4E4A-8B00-C8B60A440C6D";
name = Light;
paths = (
{
closed = 1;
nodes = (
"198 -36 CURVE SMOOTH",
"184 369 OFFCURVE",
"174 662 OFFCURVE",
"119 828 CURVE SMOOTH",
"116 837 OFFCURVE",
"114 848 OFFCURVE",
"114 855 CURVE SMOOTH",
"114 869 OFFCURVE",
"119 880 OFFCURVE",
"123 889 CURVE SMOOTH",
"134 908 OFFCURVE",
"220 1040 OFFCURVE",
"247 1070 CURVE SMOOTH",
"252 1075 OFFCURVE",
"263 1081 OFFCURVE",
"270 1081 CURVE SMOOTH",
"279 1081 OFFCURVE",
"292 1075 OFFCURVE",
"297 1061 CURVE SMOOTH",
"302 1047 OFFCURVE",
"306 1009 OFFCURVE",
"321 1002 CURVE SMOOTH",
"335 993 OFFCURVE",
"367 989 OFFCURVE",
"392 989 CURVE",
"695 989 LINE",
"854 989 OFFCURVE",
"983 880 OFFCURVE",
"1048 746 CURVE SMOOTH",
"1107 622 OFFCURVE",
"1119 457 OFFCURVE",
"1119 299 CURVE SMOOTH",
"1119 240 OFFCURVE",
"1118 185 OFFCURVE",
"1116 131 CURVE SMOOTH",
"1114 91 OFFCURVE",
"1111 79 OFFCURVE",
"1102 63 CURVE SMOOTH",
"1085 32 OFFCURVE",
"1048 -24 OFFCURVE",
"1034 -39 CURVE SMOOTH",
"1030 -43 OFFCURVE",
"1025 -46 OFFCURVE",
"1021 -46 CURVE SMOOTH",
"1005 -46 OFFCURVE",
"1005 -20 OFFCURVE",
"1005 -9 CURVE SMOOTH",
"998 147 OFFCURVE",
"978 536 OFFCURVE",
"911 650 CURVE SMOOTH",
"880 706 OFFCURVE",
"786 819 OFFCURVE",
"644 819 CURVE",
"350 819 LINE SMOOTH",
"319 819 OFFCURVE",
"307 797 OFFCURVE",
"307 769 CURVE SMOOTH",
"307 761 OFFCURVE",
"326 513 OFFCURVE",
"326 385 CURVE SMOOTH",
"326 296 OFFCURVE",
"324 224 OFFCURVE",
"319 152 CURVE SMOOTH",
"317 127 OFFCURVE",
"313 111 OFFCURVE",
"306 97 CURVE SMOOTH",
"285 52 OFFCURVE",
"263 7 OFFCURVE",
"222 -39 CURVE SMOOTH",
"215 -46 OFFCURVE",
"211 -46 OFFCURVE",
"208 -46 CURVE SMOOTH",
"202 -46 OFFCURVE",
"198 -41 OFFCURVE"
);
}
);
width = 1221;
}
);
unicode = 05D7;
},
{
glyphname = tethebrew;
lastChange = "2015-11-23 13:46:33 +0000";
layers = (
{
layerId = "07D67BE4-D244-4E4A-8B00-C8B60A440C6D";
name = Light;
paths = (
{
closed = 1;
nodes = (
"299 185 CURVE SMOOTH",
"292 210 OFFCURVE",
"223 491 OFFCURVE",
"209 549 CURVE SMOOTH",
"191 624 OFFCURVE",
"139 803 OFFCURVE",
"68 910 CURVE SMOOTH",
"64 916 OFFCURVE",
"62 921 OFFCURVE",
"62 925 CURVE SMOOTH",
"62 930 OFFCURVE",
"64 934 OFFCURVE",
"73 946 CURVE SMOOTH",
"98 980 OFFCURVE",
"139 1031 OFFCURVE",
"186 1074 CURVE SMOOTH",
"189 1077 OFFCURVE",
"193 1079 OFFCURVE",
"198 1079 CURVE SMOOTH",
"204 1079 OFFCURVE",
"211 1075 OFFCURVE",
"216 1067 CURVE SMOOTH",
"275 963 OFFCURVE",
"313 799 OFFCURVE",
"333 697 CURVE SMOOTH",
"347 624 OFFCURVE",
"386 369 OFFCURVE",
"415 277 CURVE SMOOTH",
"430 235 OFFCURVE",
"447 186 OFFCURVE",
"473 171 CURVE SMOOTH",
"507 151 OFFCURVE",
"539 149 OFFCURVE",
"586 149 CURVE SMOOTH",
"687 149 OFFCURVE",
"840 193 OFFCURVE",
"897 242 CURVE SMOOTH",
"998 323 OFFCURVE",
"1034 453 OFFCURVE",
"1034 573 CURVE SMOOTH",
"1034 735 OFFCURVE",
"940 867 OFFCURVE",
"772 867 CURVE SMOOTH",
"666 867 OFFCURVE",
"591 807 OFFCURVE",
"545 769 CURVE SMOOTH",
"530 758 OFFCURVE",
"523 756 OFFCURVE",
"517 756 CURVE SMOOTH",
"507 756 OFFCURVE",
"497 763 OFFCURVE",
"497 773 CURVE SMOOTH",
"497 787 OFFCURVE",
"555 916 OFFCURVE",
"566 932 CURVE SMOOTH",
"569 937 OFFCURVE",
"574 949 OFFCURVE",
"591 961 CURVE SMOOTH",
"661 1005 OFFCURVE",
"736 1040 OFFCURVE",
"834 1040 CURVE SMOOTH",
"1035 1040 OFFCURVE",
"1164 850 OFFCURVE",
"1164 658 CURVE SMOOTH",
"1164 500 OFFCURVE",
"1114 387 OFFCURVE",
"1030 260 CURVE SMOOTH",
"914 84 OFFCURVE",
"723 -31 OFFCURVE",
"510 -31 CURVE SMOOTH",
"435 -31 OFFCURVE",
"381 -5 OFFCURVE",
"349 48 CURVE SMOOTH",
"328 84 OFFCURVE",
"315 122 OFFCURVE"
);
}
);
width = 1221;
}
);
unicode = 05D8;
},
{
glyphname = yodhebrew;
lastChange = "2015-11-23 13:46:33 +0000";
layers = (
{
layerId = "07D67BE4-D244-4E4A-8B00-C8B60A440C6D";
name = Light;
paths = (
{
closed = 1;
nodes = (
"386 626 CURVE SMOOTH",
"386 643 OFFCURVE",
"379 672 OFFCURVE",
"350 701 CURVE SMOOTH",
"302 751 OFFCURVE",
"146 848 OFFCURVE",
"61 889 CURVE SMOOTH",
"53 893 OFFCURVE",
"49 898 OFFCURVE",
"49 903 CURVE SMOOTH",
"49 907 OFFCURVE",
"51 912 OFFCURVE",
"53 916 CURVE SMOOTH",
"59 927 OFFCURVE",
"131 1047 OFFCURVE",
"159 1074 CURVE SMOOTH",
"164 1079 OFFCURVE",
"168 1081 OFFCURVE",
"174 1081 CURVE SMOOTH",
"177 1081 OFFCURVE",
"179 1079 OFFCURVE",
"182 1077 CURVE SMOOTH",
"300 1012 OFFCURVE",
"460 907 OFFCURVE",
"523 841 CURVE SMOOTH",
"566 794 OFFCURVE",
"574 751 OFFCURVE",
"574 713 CURVE SMOOTH",
"574 641 OFFCURVE",
"496 522 OFFCURVE",
"424 416 CURVE SMOOTH",
"406 389 OFFCURVE",
"396 383 OFFCURVE",
"388 376 CURVE SMOOTH",
"369 359 OFFCURVE",
"281 289 OFFCURVE",
"256 289 CURVE SMOOTH",
"247 289 OFFCURVE",
"244 296 OFFCURVE",
"244 303 CURVE SMOOTH",
"244 305 OFFCURVE",
"245 312 OFFCURVE",
"251 321 CURVE SMOOTH",
"288 385 OFFCURVE",
"386 554 OFFCURVE"
);
}
);
width = 650;
}
);
unicode = 05D9;
},
{
glyphname = finalkafhebrew;
lastChange = "2015-11-23 13:46:33 +0000";
layers = (
{
layerId = "07D67BE4-D244-4E4A-8B00-C8B60A440C6D";
name = Light;
paths = (
{
closed = 1;
nodes = (
"545 776 CURVE SMOOTH",
"541 805 OFFCURVE",
"531 821 OFFCURVE",
"496 821 CURVE SMOOTH",
"87 821 LINE SMOOTH",
"64 821 OFFCURVE",
"41 831 OFFCURVE",
"41 851 CURVE SMOOTH",
"41 869 OFFCURVE",
"150 1041 OFFCURVE",
"172 1065 CURVE SMOOTH",
"179 1074 OFFCURVE",
"188 1081 OFFCURVE",
"195 1081 CURVE SMOOTH",
"208 1081 OFFCURVE",
"215 1068 OFFCURVE",
"220 1048 CURVE SMOOTH",
"230 1005 OFFCURVE",
"239 991 OFFCURVE",
"288 991 CURVE SMOOTH",
"827 991 LINE SMOOTH",
"851 991 OFFCURVE",
"863 991 OFFCURVE",
"863 978 CURVE SMOOTH",
"863 977 OFFCURVE",
"861 970 OFFCURVE",
"860 964 CURVE SMOOTH",
"847 927 OFFCURVE",
"827 880 OFFCURVE",
"806 841 CURVE SMOOTH",
"797 824 OFFCURVE",
"790 824 OFFCURVE",
"779 821 CURVE SMOOTH",
"741 809 OFFCURVE",
"700 807 OFFCURVE",
"700 751 CURVE SMOOTH",
"700 697 OFFCURVE",
"700 541 OFFCURVE",
"707 385 CURVE SMOOTH",
"714 224 OFFCURVE",
"720 65 OFFCURVE",
"720 -93 CURVE SMOOTH",
"720 -137 OFFCURVE",
"718 -179 OFFCURVE",
"718 -222 CURVE SMOOTH",
"718 -249 OFFCURVE",
"716 -260 OFFCURVE",
"707 -279 CURVE SMOOTH",
"697 -303 OFFCURVE",
"652 -382 OFFCURVE",
"629 -403 CURVE SMOOTH",
"623 -409 OFFCURVE",
"620 -410 OFFCURVE",
"615 -410 CURVE SMOOTH",
"605 -410 OFFCURVE",
"596 -400 OFFCURVE",
"596 -387 CURVE SMOOTH",
"589 -228 OFFCURVE",
"569 552 OFFCURVE"
);
}
);
width = 936;
}
);
unicode = 05DA;
},
{
glyphname = kafhebrew;
lastChange = "2015-11-23 13:46:33 +0000";
layers = (
{
layerId = "07D67BE4-D244-4E4A-8B00-C8B60A440C6D";
name = Light;
paths = (
{
closed = 1;
nodes = (
"39 27 CURVE SMOOTH",
"53 50 OFFCURVE",
"125 147 OFFCURVE",
"132 156 CURVE SMOOTH",
"139 163 OFFCURVE",
"143 166 OFFCURVE",
"159 166 CURVE SMOOTH",
"181 166 OFFCURVE",
"521 169 OFFCURVE",
"587 169 CURVE SMOOTH",
"623 169 OFFCURVE",
"664 179 OFFCURVE",
"692 229 CURVE SMOOTH",
"725 292 OFFCURVE",
"733 405 OFFCURVE",
"733 477 CURVE SMOOTH",
"733 665 OFFCURVE",
"630 823 OFFCURVE",
"447 823 CURVE SMOOTH",
"83 823 LINE SMOOTH",
"59 823 OFFCURVE",
"32 828 OFFCURVE",
"32 848 CURVE SMOOTH",
"32 853 OFFCURVE",
"34 858 OFFCURVE",
"37 865 CURVE SMOOTH",
"66 921 OFFCURVE",
"152 1034 OFFCURVE",
"181 1068 CURVE SMOOTH",
"188 1077 OFFCURVE",
"195 1081 OFFCURVE",
"204 1081 CURVE SMOOTH",
"215 1081 OFFCURVE",
"225 1074 OFFCURVE",
"229 1062 CURVE SMOOTH",
"232 1047 OFFCURVE",
"242 1011 OFFCURVE",
"254 1002 CURVE SMOOTH",
"268 991 OFFCURVE",
"292 989 OFFCURVE",
"309 989 CURVE SMOOTH",
"482 989 LINE SMOOTH",
"718 989 OFFCURVE",
"870 817 OFFCURVE",
"870 552 CURVE SMOOTH",
"870 493 OFFCURVE",
"858 426 OFFCURVE",
"842 382 CURVE SMOOTH",
"801 262 OFFCURVE",
"706 109 OFFCURVE",
"615 25 CURVE SMOOTH",
"601 14 OFFCURVE",
"584 0 OFFCURVE",
"562 0 CURVE SMOOTH",
"51 0 LINE SMOOTH",
"42 0 OFFCURVE",
"35 5 OFFCURVE",
"35 14 CURVE SMOOTH",
"35 18 OFFCURVE",
"37 24 OFFCURVE"
);
}
);
width = 936;
}
);
unicode = 05DB;
},
{
glyphname = lamedhebrew;
lastChange = "2015-11-23 13:46:33 +0000";
layers = (
{
guideLines = (
{
position = "{-80, -51}";
}
);
layerId = "07D67BE4-D244-4E4A-8B00-C8B60A440C6D";
name = Light;
paths = (
{
closed = 1;
nodes = (
"209 123 CURVE SMOOTH",
"218 135 OFFCURVE",
"223 147 OFFCURVE",
"247 152 CURVE SMOOTH",
"374 185 OFFCURVE",
"512 236 OFFCURVE",
"598 323 CURVE SMOOTH",
"687 412 OFFCURVE",
"711 563 OFFCURVE",
"711 669 CURVE SMOOTH",
"711 720 OFFCURVE",
"695 773 OFFCURVE",
"684 788 CURVE SMOOTH",
"670 814 OFFCURVE",
"652 821 OFFCURVE",
"622 821 CURVE",
"145 821 LINE",
"116 821 OFFCURVE",
"95 841 OFFCURVE",
"83 864 CURVE SMOOTH",
"76 880 OFFCURVE",
"69 905 OFFCURVE",
"69 961 CURVE SMOOTH",
"69 1018 OFFCURVE",
"59 1152 OFFCURVE",
"32 1219 CURVE SMOOTH",
"28 1228 OFFCURVE",
"27 1233 OFFCURVE",
"27 1236 CURVE SMOOTH",
"27 1243 OFFCURVE",
"32 1251 OFFCURVE",
"37 1260 CURVE SMOOTH",
"61 1299 OFFCURVE",
"100 1348 OFFCURVE",
"123 1371 CURVE SMOOTH",
"126 1375 OFFCURVE",
"131 1378 OFFCURVE",
"134 1378 CURVE SMOOTH",
"139 1378 OFFCURVE",
"146 1373 OFFCURVE",
"153 1362 CURVE SMOOTH",
"181 1322 OFFCURVE",
"195 1238 OFFCURVE",
"195 1172 CURVE SMOOTH",
"195 1068 OFFCURVE",
"195 1031 OFFCURVE",
"209 1011 CURVE SMOOTH",
"223 991 OFFCURVE",
"244 991 OFFCURVE",
"266 991 CURVE",
"702 991 LINE",
"825 991 OFFCURVE",
"853 864 OFFCURVE",
"853 773 CURVE SMOOTH",
"853 662 OFFCURVE",
"815 552 OFFCURVE",
"815 552 CURVE SMOOTH",
"779 424 OFFCURVE",
"644 197 OFFCURVE",
"543 122 CURVE SMOOTH",
"476 72 OFFCURVE",
"349 14 OFFCURVE",
"189 -22 CURVE SMOOTH",
"174 -25 OFFCURVE",
"159 -27 OFFCURVE",
"155 -27 CURVE SMOOTH",
"141 -27 OFFCURVE",
"136 -22 OFFCURVE",
"136 -11 CURVE SMOOTH",
"136 7 OFFCURVE",
"195 104 OFFCURVE"
);
}
);
width = 936;
}
);
unicode = 05DC;
userData = {
com.typemytype.robofont.guides = (
{
angle = 0;
isGlobal = 0;
magnetic = 5;
x = 0;
y = -25;
}
);
};
},
{
glyphname = finalmemhebrew;
lastChange = "2015-11-23 13:46:33 +0000";
layers = (
{
layerId = "07D67BE4-D244-4E4A-8B00-C8B60A440C6D";
name = Light;
paths = (
{
closed = 1;
nodes = (
"121 774 LINE",
"119 814 OFFCURVE",
"83 817 OFFCURVE",
"61 826 CURVE SMOOTH",
"51 830 OFFCURVE",
"42 837 OFFCURVE",
"42 848 CURVE SMOOTH",
"42 857 OFFCURVE",
"46 865 OFFCURVE",
"51 872 CURVE SMOOTH",
"93 930 OFFCURVE",
"181 1038 OFFCURVE",
"206 1065 CURVE SMOOTH",
"215 1075 OFFCURVE",
"225 1081 OFFCURVE",
"234 1081 CURVE SMOOTH",
"247 1081 OFFCURVE",
"258 1072 OFFCURVE",
"261 1057 CURVE SMOOTH",
"270 1005 OFFCURVE",
"283 989 OFFCURVE",
"319 989 CURVE SMOOTH",
"842 989 LINE SMOOTH",
"942 989 OFFCURVE",
"1001 977 OFFCURVE",
"1058 910 CURVE SMOOTH",
"1098 862 OFFCURVE",
"1105 826 OFFCURVE",
"1112 773 CURVE SMOOTH",
"1121 696 OFFCURVE",
"1126 511 OFFCURVE",
"1126 417 CURVE SMOOTH",
"1126 285 OFFCURVE",
"1118 238 OFFCURVE",
"1111 215 CURVE SMOOTH",
"1087 149 OFFCURVE",
"1028 43 OFFCURVE",
"1005 14 CURVE SMOOTH",
"994 2 OFFCURVE",
"983 -2 OFFCURVE",
"957 -2 CURVE SMOOTH",
"307 -2 LINE",
"218 -2 OFFCURVE",
"150 68 OFFCURVE",
"143 186 CURVE SMOOTH",
"139 251 OFFCURVE",
"134 353 OFFCURVE",
"131 470 CURVE SMOOTH"
);
},
{
closed = 1;
nodes = (
"962 169 LINE",
"993 169 OFFCURVE",
"998 176 OFFCURVE",
"998 208 CURVE SMOOTH",
"998 347 OFFCURVE",
"998 581 OFFCURVE",
"971 704 CURVE SMOOTH",
"964 737 OFFCURVE",
"953 754 OFFCURVE",
"926 780 CURVE SMOOTH",
"908 797 OFFCURVE",
"863 821 OFFCURVE",
"791 821 CURVE SMOOTH",
"333 821 LINE SMOOTH",
"281 821 OFFCURVE",
"265 817 OFFCURVE",
"263 788 CURVE SMOOTH",
"261 769 OFFCURVE",
"261 735 OFFCURVE",
"261 694 CURVE SMOOTH",
"261 547 OFFCURVE",
"266 308 OFFCURVE",
"272 258 CURVE SMOOTH",
"279 186 OFFCURVE",
"321 169 OFFCURVE",
"369 169 CURVE"
);
}
);
width = 1221;
}
);
unicode = 05DD;
},
{
glyphname = memhebrew;
lastChange = "2015-11-23 13:46:33 +0000";
layers = (
{
layerId = "07D67BE4-D244-4E4A-8B00-C8B60A440C6D";
name = Light;
paths = (
{
closed = 1;
nodes = (
"245 523 CURVE SMOOTH",
"245 592 OFFCURVE",
"223 688 OFFCURVE",
"184 758 CURVE SMOOTH",
"150 819 OFFCURVE",
"102 867 OFFCURVE",
"85 891 CURVE SMOOTH",
"82 896 OFFCURVE",
"78 900 OFFCURVE",
"78 907 CURVE SMOOTH",
"78 910 OFFCURVE",
"82 918 OFFCURVE",
"85 923 CURVE SMOOTH",
"112 966 OFFCURVE",
"155 1027 OFFCURVE",
"204 1075 CURVE SMOOTH",
"208 1079 OFFCURVE",
"213 1081 OFFCURVE",
"216 1081 CURVE SMOOTH",
"220 1081 OFFCURVE",
"225 1077 OFFCURVE",
"227 1075 CURVE SMOOTH",
"313 978 OFFCURVE",
"386 803 OFFCURVE",
"386 670 CURVE SMOOTH",
"386 665 OFFCURVE",
"388 663 OFFCURVE",
"391 663 CURVE SMOOTH",
"392 663 OFFCURVE",
"394 663 OFFCURVE",
"396 667 CURVE SMOOTH",
"468 828 OFFCURVE",
"582 1021 OFFCURVE",
"774 1021 CURVE SMOOTH",
"935 1021 OFFCURVE",
"1039 882 OFFCURVE",
"1080 744 CURVE SMOOTH",
"1111 643 OFFCURVE",
"1126 473 OFFCURVE",
"1126 369 CURVE SMOOTH",
"1126 369 OFFCURVE",
"1126 287 OFFCURVE",
"1114 235 CURVE SMOOTH",
"1102 174 OFFCURVE",
"1048 65 OFFCURVE",
"1025 31 CURVE SMOOTH",
"1010 9 OFFCURVE",
"1001 0 OFFCURVE",
"978 0 CURVE",
"440 0 LINE",
"422 0 OFFCURVE",
"415 7 OFFCURVE",
"415 16 CURVE SMOOTH",
"415 20 OFFCURVE",
"415 24 OFFCURVE",
"419 29 CURVE SMOOTH",
"428 45 OFFCURVE",
"499 138 OFFCURVE",
"509 147 CURVE SMOOTH",
"517 156 OFFCURVE",
"524 169 OFFCURVE",
"550 169 CURVE",
"976 169 LINE",
"991 169 OFFCURVE",
"1010 169 OFFCURVE",
"1010 202 CURVE SMOOTH",
"1010 279 OFFCURVE",
"993 549 OFFCURVE",
"935 684 CURVE SMOOTH",
"899 771 OFFCURVE",
"810 843 OFFCURVE",
"706 843 CURVE SMOOTH",
"574 843 OFFCURVE",
"469 711 OFFCURVE",
"420 599 CURVE SMOOTH",
"410 571 OFFCURVE",
"370 439 OFFCURVE",
"358 393 CURVE SMOOTH",
"345 346 OFFCURVE",
"302 195 OFFCURVE",
"281 142 CURVE SMOOTH",
"275 127 OFFCURVE",
"268 115 OFFCURVE",
"263 108 CURVE SMOOTH",
"249 89 OFFCURVE",
"186 0 OFFCURVE",
"139 -41 CURVE SMOOTH",
"136 -45 OFFCURVE",
"129 -46 OFFCURVE",
"125 -46 CURVE SMOOTH",
"119 -46 OFFCURVE",
"114 -43 OFFCURVE",
"114 -29 CURVE SMOOTH",
"114 18 OFFCURVE",
"245 313 OFFCURVE"
);
}
);
width = 1221;
}
);
unicode = 05DE;
},
{
glyphname = finalnunhebrew;
lastChange = "2015-11-23 13:46:33 +0000";
layers = (
{
layerId = "07D67BE4-D244-4E4A-8B00-C8B60A440C6D";
name = Light;
paths = (
{
closed = 1;
nodes = (
"413 -395 CURVE",
"410 -31 OFFCURVE",
"406 294 OFFCURVE",
"386 577 CURVE SMOOTH",
"383 631 OFFCURVE",
"377 679 OFFCURVE",
"328 724 CURVE SMOOTH",
"258 787 OFFCURVE",
"132 860 OFFCURVE",
"64 893 CURVE SMOOTH",
"53 898 OFFCURVE",
"42 905 OFFCURVE",
"42 916 CURVE SMOOTH",
"42 921 OFFCURVE",
"49 935 OFFCURVE",
"57 944 CURVE SMOOTH",
"82 977 OFFCURVE",
"131 1040 OFFCURVE",
"157 1072 CURVE SMOOTH",
"162 1077 OFFCURVE",
"167 1081 OFFCURVE",
"172 1081 CURVE SMOOTH",
"175 1081 OFFCURVE",
"182 1077 OFFCURVE",
"189 1074 CURVE SMOOTH",
"249 1045 OFFCURVE",
"370 968 OFFCURVE",
"430 916 CURVE SMOOTH",
"473 879 OFFCURVE",
"501 851 OFFCURVE",
"517 773 CURVE SMOOTH",
"535 684 OFFCURVE",
"539 390 OFFCURVE",
"539 113 CURVE SMOOTH",
"539 -14 OFFCURVE",
"539 -137 OFFCURVE",
"537 -235 CURVE SMOOTH",
"537 -274 OFFCURVE",
"531 -287 OFFCURVE",
"524 -299 CURVE SMOOTH",
"496 -346 OFFCURVE",
"471 -378 OFFCURVE",
"442 -407 CURVE SMOOTH",
"439 -410 OFFCURVE",
"433 -414 OFFCURVE",
"430 -414 CURVE SMOOTH",
"420 -414 OFFCURVE",
"413 -407 OFFCURVE"
);
}
);
width = 650;
}
);
unicode = 05DF;
},
{
glyphname = nunhebrew;
lastChange = "2015-11-23 13:46:33 +0000";
layers = (
{
layerId = "07D67BE4-D244-4E4A-8B00-C8B60A440C6D";
name = Light;
paths = (
{
closed = 1;
nodes = (
"30 29 CURVE SMOOTH",
"42 58 OFFCURVE",
"83 129 OFFCURVE",
"105 158 CURVE SMOOTH",
"112 166 OFFCURVE",
"118 171 OFFCURVE",
"131 171 CURVE",
"391 171 LINE",
"412 171 OFFCURVE",
"419 185 OFFCURVE",
"420 222 CURVE SMOOTH",
"422 260 OFFCURVE",
"424 298 OFFCURVE",
"424 337 CURVE SMOOTH",
"424 407 OFFCURVE",
"420 475 OFFCURVE",
"413 543 CURVE SMOOTH",
"405 627 OFFCURVE",
"381 694 OFFCURVE",
"313 753 CURVE SMOOTH",
"266 794 OFFCURVE",
"159 855 OFFCURVE",
"69 905 CURVE SMOOTH",
"66 907 OFFCURVE",
"53 914 OFFCURVE",
"53 927 CURVE SMOOTH",
"53 932 OFFCURVE",
"57 937 OFFCURVE",
"61 942 CURVE SMOOTH",
"78 970 OFFCURVE",
"136 1047 OFFCURVE",
"159 1072 CURVE SMOOTH",
"162 1075 OFFCURVE",
"168 1081 OFFCURVE",
"174 1081 CURVE SMOOTH",
"181 1081 OFFCURVE",
"189 1081 OFFCURVE",
"209 1070 CURVE SMOOTH",
"254 1045 OFFCURVE",
"342 989 OFFCURVE",
"398 949 CURVE SMOOTH",
"458 905 OFFCURVE",
"473 893 OFFCURVE",
"509 828 CURVE SMOOTH",
"528 792 OFFCURVE",
"543 717 OFFCURVE",
"548 641 CURVE SMOOTH",
"552 573 OFFCURVE",
"553 493 OFFCURVE",
"553 339 CURVE SMOOTH",
"553 296 OFFCURVE",
"550 265 OFFCURVE",
"539 233 CURVE SMOOTH",
"516 165 OFFCURVE",
"471 79 OFFCURVE",
"430 22 CURVE SMOOTH",
"417 4 OFFCURVE",
"403 0 OFFCURVE",
"384 0 CURVE",
"49 0 LINE",
"32 0 OFFCURVE",
"27 9 OFFCURVE",
"27 18 CURVE SMOOTH",
"27 22 OFFCURVE",
"28 25 OFFCURVE"
);
}
);
width = 650;
}
);
unicode = 05E0;
},
{
glyphname = samekhhebrew;
lastChange = "2015-11-23 13:46:33 +0000";
layers = (
{
layerId = "07D67BE4-D244-4E4A-8B00-C8B60A440C6D";
name = Light;
paths = (
{
closed = 1;
nodes = (
"184 696 CURVE SMOOTH",
"164 767 OFFCURVE",
"146 795 OFFCURVE",
"126 805 CURVE SMOOTH",
"114 810 OFFCURVE",
"97 816 OFFCURVE",
"73 821 CURVE SMOOTH",
"66 823 OFFCURVE",
"55 830 OFFCURVE",
"55 843 CURVE SMOOTH",
"55 848 OFFCURVE",
"59 855 OFFCURVE",
"62 860 CURVE SMOOTH",
"98 920 OFFCURVE",
"193 1047 OFFCURVE",
"232 1074 CURVE SMOOTH",
"237 1077 OFFCURVE",
"247 1081 OFFCURVE",
"254 1081 CURVE SMOOTH",
"261 1081 OFFCURVE",
"270 1075 OFFCURVE",
"273 1062 CURVE SMOOTH",
"281 1040 OFFCURVE",
"283 1012 OFFCURVE",
"293 1002 CURVE SMOOTH",
"306 989 OFFCURVE",
"335 989 OFFCURVE",
"347 989 CURVE",
"967 989 LINE",
"1114 989 OFFCURVE",
"1148 910 OFFCURVE",
"1148 763 CURVE SMOOTH",
"1148 501 OFFCURVE",
"976 222 OFFCURVE",
"770 72 CURVE SMOOTH",
"680 5 OFFCURVE",
"564 -24 OFFCURVE",
"492 -24 CURVE SMOOTH",
"391 -24 OFFCURVE",
"356 48 OFFCURVE",
"328 133 CURVE SMOOTH",
"270 301 OFFCURVE",
"230 508 OFFCURVE"
);
},
{
closed = 1;
nodes = (
"546 149 CURVE SMOOTH",
"657 149 OFFCURVE",
"747 188 OFFCURVE",
"815 240 CURVE SMOOTH",
"964 359 OFFCURVE",
"998 500 OFFCURVE",
"998 683 CURVE SMOOTH",
"998 785 OFFCURVE",
"965 819 OFFCURVE",
"872 819 CURVE",
"331 819 LINE",
"319 819 OFFCURVE",
"317 809 OFFCURVE",
"317 801 CURVE SMOOTH",
"317 795 OFFCURVE",
"394 355 OFFCURVE",
"449 219 CURVE SMOOTH",
"473 163 OFFCURVE",
"510 149 OFFCURVE"
);
}
);
width = 1221;
}
);
unicode = 05E1;
},
{
glyphname = ayinhebrew;
lastChange = "2015-11-23 13:46:33 +0000";
layers = (
{
layerId = "07D67BE4-D244-4E4A-8B00-C8B60A440C6D";
name = Light;
paths = (
{
closed = 1;
nodes = (
"134 46 CURVE SMOOTH",
"167 61 OFFCURVE",
"304 125 OFFCURVE",
"338 147 CURVE SMOOTH",
"347 152 OFFCURVE",
"355 159 OFFCURVE",
"355 171 CURVE SMOOTH",
"355 174 OFFCURVE",
"347 200 OFFCURVE",
"345 204 CURVE SMOOTH",
"270 453 OFFCURVE",
"227 640 OFFCURVE",
"76 898 CURVE SMOOTH",
"66 916 OFFCURVE",
"61 928 OFFCURVE",
"61 934 CURVE SMOOTH",
"61 941 OFFCURVE",
"68 949 OFFCURVE",
"75 959 CURVE SMOOTH",
"95 984 OFFCURVE",
"162 1065 OFFCURVE",
"175 1074 CURVE SMOOTH",
"181 1077 OFFCURVE",
"186 1081 OFFCURVE",
"193 1081 CURVE SMOOTH",
"198 1081 OFFCURVE",
"206 1079 OFFCURVE",
"209 1070 CURVE SMOOTH",
"333 809 OFFCURVE",
"391 525 OFFCURVE",
"471 233 CURVE SMOOTH",
"473 224 OFFCURVE",
"478 221 OFFCURVE",
"483 221 CURVE SMOOTH",
"487 221 OFFCURVE",
"501 226 OFFCURVE",
"503 228 CURVE SMOOTH",
"589 282 OFFCURVE",
"677 337 OFFCURVE",
"697 359 CURVE SMOOTH",
"723 387 OFFCURVE",
"729 421 OFFCURVE",
"729 482 CURVE SMOOTH",
"729 602 OFFCURVE",
"707 727 OFFCURVE",
"675 844 CURVE SMOOTH",
"661 894 OFFCURVE",
"656 918 OFFCURVE",
"656 932 CURVE SMOOTH",
"656 942 OFFCURVE",
"659 949 OFFCURVE",
"664 957 CURVE SMOOTH",
"692 993 OFFCURVE",
"752 1059 OFFCURVE",
"769 1074 CURVE SMOOTH",
"774 1077 OFFCURVE",
"779 1081 OFFCURVE",
"784 1081 CURVE SMOOTH",
"791 1081 OFFCURVE",
"801 1075 OFFCURVE",
"804 1061 CURVE SMOOTH",
"844 916 OFFCURVE",
"856 753 OFFCURVE",
"856 627 CURVE SMOOTH",
"856 537 OFFCURVE",
"840 489 OFFCURVE",
"813 407 CURVE SMOOTH",
"790 335 OFFCURVE",
"736 242 OFFCURVE",
"634 165 CURVE SMOOTH",
"510 72 OFFCURVE",
"266 -65 OFFCURVE",
"68 -151 CURVE SMOOTH",
"55 -156 OFFCURVE",
"46 -159 OFFCURVE",
"41 -159 CURVE SMOOTH",
"32 -159 OFFCURVE",
"25 -152 OFFCURVE",
"25 -142 CURVE SMOOTH",
"25 -120 OFFCURVE",
"82 -11 OFFCURVE",
"97 14 CURVE SMOOTH",
"105 31 OFFCURVE",
"118 39 OFFCURVE"
);
}
);
width = 936;
}
);
unicode = 05E2;
},
{
glyphname = finalpehebrew;
lastChange = "2015-11-23 13:46:33 +0000";
layers = (
{
layerId = "07D67BE4-D244-4E4A-8B00-C8B60A440C6D";
name = Light;
paths = (
{
closed = 1;
nodes = (
"663 588 CURVE SMOOTH",
"654 658 OFFCURVE",
"629 715 OFFCURVE",
"567 761 CURVE SMOOTH",
"519 799 OFFCURVE",
"428 843 OFFCURVE",
"266 898 CURVE SMOOTH",
"265 900 OFFCURVE",
"261 900 OFFCURVE",
"259 900 CURVE SMOOTH",
"256 900 OFFCURVE",
"249 898 OFFCURVE",
"245 893 CURVE SMOOTH",
"206 848 OFFCURVE",
"181 790 OFFCURVE",
"181 718 CURVE SMOOTH",
"181 590 OFFCURVE",
"258 557 OFFCURVE",
"347 518 CURVE SMOOTH",
"358 513 OFFCURVE",
"365 508 OFFCURVE",
"365 500 CURVE SMOOTH",
"365 494 OFFCURVE",
"362 486 OFFCURVE",
"355 475 CURVE SMOOTH",
"335 445 OFFCURVE",
"300 393 OFFCURVE",
"277 371 CURVE SMOOTH",
"272 366 OFFCURVE",
"268 364 OFFCURVE",
"263 364 CURVE SMOOTH",
"258 364 OFFCURVE",
"251 368 OFFCURVE",
"237 373 CURVE SMOOTH",
"109 428 OFFCURVE",
"39 518 OFFCURVE",
"39 658 CURVE SMOOTH",
"39 812 OFFCURVE",
"179 978 OFFCURVE",
"293 1074 CURVE SMOOTH",
"299 1077 OFFCURVE",
"304 1081 OFFCURVE",
"311 1081 CURVE SMOOTH",
"315 1081 OFFCURVE",
"319 1079 OFFCURVE",
"324 1077 CURVE SMOOTH",
"406 1048 OFFCURVE",
"591 982 OFFCURVE",
"657 934 CURVE SMOOTH",
"757 857 OFFCURVE",
"795 781 OFFCURVE",
"804 650 CURVE SMOOTH",
"811 552 OFFCURVE",
"817 276 OFFCURVE",
"817 48 CURVE SMOOTH",
"817 -75 OFFCURVE",
"815 -185 OFFCURVE",
"811 -244 CURVE SMOOTH",
"810 -265 OFFCURVE",
"810 -274 OFFCURVE",
"806 -284 CURVE SMOOTH",
"788 -321 OFFCURVE",
"750 -382 OFFCURVE",
"729 -403 CURVE SMOOTH",
"723 -409 OFFCURVE",
"718 -412 OFFCURVE",
"714 -412 CURVE SMOOTH",
"709 -412 OFFCURVE",
"707 -407 OFFCURVE",
"706 -400 CURVE SMOOTH",
"690 -272 OFFCURVE",
"682 439 OFFCURVE"
);
}
);
width = 936;
}
);
unicode = 05E3;
},
{
glyphname = pehebrew;
lastChange = "2015-11-23 13:46:33 +0000";
layers = (
{
layerId = "07D67BE4-D244-4E4A-8B00-C8B60A440C6D";
name = Light;
paths = (
{
closed = 1;
nodes = (
"42 39 CURVE SMOOTH",
"62 72 OFFCURVE",
"91 115 OFFCURVE",
"119 154 CURVE SMOOTH",
"129 165 OFFCURVE",
"136 171 OFFCURVE",
"150 171 CURVE",
"682 171 LINE SMOOTH",
"697 171 OFFCURVE",
"718 181 OFFCURVE",
"718 202 CURVE SMOOTH",
"716 279 OFFCURVE",
"709 511 OFFCURVE",
"692 599 CURVE SMOOTH",
"684 634 OFFCURVE",
"673 688 OFFCURVE",
"625 740 CURVE SMOOTH",
"579 790 OFFCURVE",
"439 850 OFFCURVE",
"315 896 CURVE SMOOTH",
"306 900 OFFCURVE",
"299 900 OFFCURVE",
"293 900 CURVE SMOOTH",
"285 900 OFFCURVE",
"275 896 OFFCURVE",
"268 887 CURVE SMOOTH",
"230 838 OFFCURVE",
"209 792 OFFCURVE",
"209 724 CURVE SMOOTH",
"209 627 OFFCURVE",
"295 579 OFFCURVE",
"376 550 CURVE SMOOTH",
"381 549 OFFCURVE",
"388 545 OFFCURVE",
"388 536 CURVE SMOOTH",
"388 532 OFFCURVE",
"386 529 OFFCURVE",
"384 525 CURVE SMOOTH",
"362 482 OFFCURVE",
"326 436 OFFCURVE",
"306 410 CURVE SMOOTH",
"302 407 OFFCURVE",
"299 405 OFFCURVE",
"293 405 CURVE SMOOTH",
"290 405 OFFCURVE",
"288 407 OFFCURVE",
"285 407 CURVE SMOOTH",
"159 436 OFFCURVE",
"75 541 OFFCURVE",
"75 647 CURVE SMOOTH",
"75 823 OFFCURVE",
"222 966 OFFCURVE",
"331 1067 CURVE SMOOTH",
"340 1075 OFFCURVE",
"347 1081 OFFCURVE",
"355 1081 CURVE SMOOTH",
"360 1081 OFFCURVE",
"370 1075 OFFCURVE",
"379 1072 CURVE SMOOTH",
"505 1021 OFFCURVE",
"632 970 OFFCURVE",
"690 925 CURVE SMOOTH",
"755 872 OFFCURVE",
"801 790 OFFCURVE",
"811 735 CURVE SMOOTH",
"834 620 OFFCURVE",
"836 445 OFFCURVE",
"836 317 CURVE SMOOTH",
"836 269 OFFCURVE",
"834 246 OFFCURVE",
"818 207 CURVE SMOOTH",
"798 154 OFFCURVE",
"779 95 OFFCURVE",
"733 22 CURVE SMOOTH",
"718 0 OFFCURVE",
"713 0 OFFCURVE",
"671 0 CURVE",
"57 0 LINE",
"39 0 OFFCURVE",
"34 9 OFFCURVE",
"34 18 CURVE SMOOTH",
"34 24 OFFCURVE",
"37 31 OFFCURVE"
);
}
);
width = 936;
}
);
unicode = 05E4;
},
{
glyphname = finaltsadihebrew;
lastChange = "2015-11-23 13:46:33 +0000";
layers = (
{
layerId = "07D67BE4-D244-4E4A-8B00-C8B60A440C6D";
name = Light;
paths = (
{
closed = 1;
nodes = (
"335 641 CURVE SMOOTH",
"263 727 OFFCURVE",
"129 862 OFFCURVE",
"69 910 CURVE SMOOTH",
"61 918 OFFCURVE",
"57 923 OFFCURVE",
"57 932 CURVE SMOOTH",
"57 937 OFFCURVE",
"59 941 OFFCURVE",
"62 948 CURVE SMOOTH",
"80 985 OFFCURVE",
"125 1054 OFFCURVE",
"145 1074 CURVE SMOOTH",
"148 1077 OFFCURVE",
"153 1081 OFFCURVE",
"159 1081 CURVE SMOOTH",
"164 1081 OFFCURVE",
"170 1077 OFFCURVE",
"175 1074 CURVE SMOOTH",
"211 1047 OFFCURVE",
"331 923 OFFCURVE",
"383 858 CURVE SMOOTH",
"471 747 OFFCURVE",
"550 631 OFFCURVE",
"596 550 CURVE SMOOTH",
"601 541 OFFCURVE",
"607 536 OFFCURVE",
"612 536 CURVE SMOOTH",
"618 536 OFFCURVE",
"623 541 OFFCURVE",
"629 547 CURVE SMOOTH",
"657 583 OFFCURVE",
"673 688 OFFCURVE",
"673 758 CURVE SMOOTH",
"673 790 OFFCURVE",
"670 841 OFFCURVE",
"652 889 CURVE SMOOTH",
"650 894 OFFCURVE",
"648 901 OFFCURVE",
"648 907 CURVE SMOOTH",
"648 912 OFFCURVE",
"650 916 OFFCURVE",
"654 923 CURVE SMOOTH",
"670 949 OFFCURVE",
"740 1041 OFFCURVE",
"774 1070 CURVE SMOOTH",
"779 1075 OFFCURVE",
"786 1081 OFFCURVE",
"791 1081 CURVE SMOOTH",
"798 1081 OFFCURVE",
"806 1072 OFFCURVE",
"811 1061 CURVE SMOOTH",
"840 993 OFFCURVE",
"856 925 OFFCURVE",
"856 857 CURVE SMOOTH",
"856 690 OFFCURVE",
"772 575 OFFCURVE",
"666 459 CURVE SMOOTH",
"663 455 OFFCURVE",
"661 450 OFFCURVE",
"661 445 CURVE SMOOTH",
"661 439 OFFCURVE",
"663 434 OFFCURVE",
"664 431 CURVE SMOOTH",
"797 186 OFFCURVE",
"840 4 OFFCURVE",
"888 -217 CURVE SMOOTH",
"892 -233 OFFCURVE",
"892 -238 OFFCURVE",
"892 -246 CURVE SMOOTH",
"892 -255 OFFCURVE",
"890 -263 OFFCURVE",
"887 -276 CURVE SMOOTH",
"872 -323 OFFCURVE",
"865 -340 OFFCURVE",
"840 -393 CURVE SMOOTH",
"832 -409 OFFCURVE",
"825 -414 OFFCURVE",
"818 -414 CURVE SMOOTH",
"810 -414 OFFCURVE",
"804 -405 OFFCURVE",
"803 -398 CURVE SMOOTH",
"720 -22 OFFCURVE",
"579 344 OFFCURVE"
);
}
);
width = 939;
}
);
unicode = 05E5;
},
{
glyphname = tsadihebrew;
lastChange = "2015-11-23 13:46:33 +0000";
layers = (
{
layerId = "07D67BE4-D244-4E4A-8B00-C8B60A440C6D";
name = Light;
paths = (
{
closed = 1;
nodes = (
"111 144 CURVE SMOOTH",
"121 158 OFFCURVE",
"131 171 OFFCURVE",
"152 171 CURVE",
"670 171 LINE",
"695 171 OFFCURVE",
"700 178 OFFCURVE",
"700 192 CURVE SMOOTH",
"700 200 OFFCURVE",
"699 215 OFFCURVE",
"685 228 CURVE SMOOTH",
"607 313 OFFCURVE",
"499 405 OFFCURVE",
"447 453 CURVE SMOOTH",
"424 477 OFFCURVE",
"215 665 OFFCURVE",
"175 706 CURVE SMOOTH",
"131 754 OFFCURVE",
"83 805 OFFCURVE",
"32 896 CURVE SMOOTH",
"28 901 OFFCURVE",
"27 905 OFFCURVE",
"27 908 CURVE SMOOTH",
"27 916 OFFCURVE",
"32 923 OFFCURVE",
"32 923 CURVE SMOOTH",
"87 1007 OFFCURVE",
"112 1033 OFFCURVE",
"145 1072 CURVE SMOOTH",
"148 1075 OFFCURVE",
"155 1081 OFFCURVE",
"159 1081 CURVE SMOOTH",
"164 1081 OFFCURVE",
"172 1077 OFFCURVE",
"175 1068 CURVE SMOOTH",
"211 978 OFFCURVE",
"256 901 OFFCURVE",
"311 824 CURVE SMOOTH",
"379 733 OFFCURVE",
"466 650 OFFCURVE",
"555 579 CURVE SMOOTH",
"564 571 OFFCURVE",
"569 570 OFFCURVE",
"577 570 CURVE SMOOTH",
"591 570 OFFCURVE",
"603 583 OFFCURVE",
"615 600 CURVE SMOOTH",
"632 633 OFFCURVE",
"654 683 OFFCURVE",
"654 774 CURVE SMOOTH",
"654 826 OFFCURVE",
"637 872 OFFCURVE",
"634 880 CURVE SMOOTH",
"630 889 OFFCURVE",
"627 896 OFFCURVE",
"627 901 CURVE SMOOTH",
"627 908 OFFCURVE",
"630 914 OFFCURVE",
"634 920 CURVE SMOOTH",
"661 957 OFFCURVE",
"723 1036 OFFCURVE",
"757 1070 CURVE SMOOTH",
"765 1077 OFFCURVE",
"769 1081 OFFCURVE",
"774 1081 CURVE SMOOTH",
"781 1081 OFFCURVE",
"786 1074 OFFCURVE",
"790 1067 CURVE SMOOTH",
"808 1033 OFFCURVE",
"836 966 OFFCURVE",
"836 869 CURVE SMOOTH",
"836 756 OFFCURVE",
"769 629 OFFCURVE",
"668 515 CURVE SMOOTH",
"664 511 OFFCURVE",
"659 501 OFFCURVE",
"659 493 CURVE SMOOTH",
"659 489 OFFCURVE",
"659 484 OFFCURVE",
"663 480 CURVE SMOOTH",
"748 403 OFFCURVE",
"813 340 OFFCURVE",
"834 312 CURVE SMOOTH",
"853 289 OFFCURVE",
"858 263 OFFCURVE",
"858 246 CURVE SMOOTH",
"858 226 OFFCURVE",
"851 199 OFFCURVE",
"836 172 CURVE SMOOTH",
"820 144 OFFCURVE",
"793 86 OFFCURVE",
"754 31 CURVE SMOOTH",
"734 2 OFFCURVE",
"721 0 OFFCURVE",
"693 0 CURVE SMOOTH",
"49 0 LINE",
"28 0 OFFCURVE",
"21 9 OFFCURVE",
"21 18 CURVE SMOOTH",
"21 22 OFFCURVE",
"25 29 OFFCURVE",
"27 31 CURVE SMOOTH",
"66 89 OFFCURVE",
"78 101 OFFCURVE"
);
}
);
width = 936;
}
);
unicode = 05E6;
},
{
glyphname = qofhebrew;
lastChange = "2015-11-23 13:46:33 +0000";
layers = (
{
layerId = "07D67BE4-D244-4E4A-8B00-C8B60A440C6D";
name = Light;
paths = (
{
closed = 1;
nodes = (
"188 778 CURVE SMOOTH",
"182 816 OFFCURVE",
"111 817 OFFCURVE",
"93 821 CURVE SMOOTH",
"80 824 OFFCURVE",
"76 831 OFFCURVE",
"76 838 CURVE SMOOTH",
"76 846 OFFCURVE",
"78 851 OFFCURVE",
"83 860 CURVE SMOOTH",
"138 949 OFFCURVE",
"218 1038 OFFCURVE",
"249 1068 CURVE SMOOTH",
"256 1075 OFFCURVE",
"265 1081 OFFCURVE",
"275 1081 CURVE SMOOTH",
"288 1081 OFFCURVE",
"299 1072 OFFCURVE",
"302 1057 CURVE SMOOTH",
"313 1023 OFFCURVE",
"311 991 OFFCURVE",
"362 991 CURVE",
"978 991 LINE",
"1091 991 OFFCURVE",
"1143 898 OFFCURVE",
"1143 803 CURVE SMOOTH",
"1143 670 OFFCURVE",
"1096 530 OFFCURVE",
"1056 439 CURVE SMOOTH",
"993 292 OFFCURVE",
"902 156 OFFCURVE",
"765 74 CURVE SMOOTH",
"707 39 OFFCURVE",
"560 -31 OFFCURVE",
"524 -31 CURVE SMOOTH",
"507 -31 OFFCURVE",
"501 -24 OFFCURVE",
"501 -11 CURVE SMOOTH",
"501 7 OFFCURVE",
"562 115 OFFCURVE",
"574 137 CURVE SMOOTH",
"586 154 OFFCURVE",
"591 163 OFFCURVE",
"610 169 CURVE SMOOTH",
"755 212 OFFCURVE",
"895 256 OFFCURVE",
"951 410 CURVE SMOOTH",
"967 453 OFFCURVE",
"994 573 OFFCURVE",
"994 667 CURVE SMOOTH",
"994 742 OFFCURVE",
"978 821 OFFCURVE",
"892 821 CURVE SMOOTH",
"374 821 LINE",
"362 821 OFFCURVE",
"347 807 OFFCURVE",
"347 792 CURVE SMOOTH",
"355 627 OFFCURVE",
"355 443 OFFCURVE",
"355 346 CURVE SMOOTH",
"355 253 OFFCURVE",
"356 199 OFFCURVE",
"356 91 CURVE SMOOTH",
"356 -41 OFFCURVE",
"356 -183 OFFCURVE",
"353 -238 CURVE SMOOTH",
"353 -242 OFFCURVE",
"350 -260 OFFCURVE",
"342 -279 CURVE SMOOTH",
"324 -321 OFFCURVE",
"286 -376 OFFCURVE",
"263 -402 CURVE SMOOTH",
"258 -409 OFFCURVE",
"252 -410 OFFCURVE",
"247 -410 CURVE SMOOTH",
"237 -410 OFFCURVE",
"230 -400 OFFCURVE",
"230 -393 CURVE SMOOTH",
"223 -18 OFFCURVE",
"232 409 OFFCURVE"
);
}
);
width = 1221;
}
);
unicode = 05E7;
},
{
glyphname = reshhebrew;
lastChange = "2015-11-23 13:46:33 +0000";
layers = (
{
layerId = "07D67BE4-D244-4E4A-8B00-C8B60A440C6D";
name = Light;
paths = (
{
closed = 1;
nodes = (
"677 586 CURVE SMOOTH",
"652 735 OFFCURVE",
"560 821 OFFCURVE",
"433 821 CURVE",
"76 821 LINE",
"48 821 OFFCURVE",
"28 833 OFFCURVE",
"28 851 CURVE SMOOTH",
"28 857 OFFCURVE",
"30 862 OFFCURVE",
"34 867 CURVE SMOOTH",
"46 891 OFFCURVE",
"145 1034 OFFCURVE",
"177 1068 CURVE SMOOTH",
"182 1074 OFFCURVE",
"193 1081 OFFCURVE",
"202 1081 CURVE SMOOTH",
"213 1081 OFFCURVE",
"222 1075 OFFCURVE",
"227 1057 CURVE SMOOTH",
"239 1005 OFFCURVE",
"236 991 OFFCURVE",
"293 991 CURVE SMOOTH",
"501 991 LINE",
"589 991 OFFCURVE",
"725 942 OFFCURVE",
"791 749 CURVE SMOOTH",
"839 614 OFFCURVE",
"842 332 OFFCURVE",
"842 151 CURVE SMOOTH",
"842 131 OFFCURVE",
"842 123 OFFCURVE",
"836 108 CURVE SMOOTH",
"820 68 OFFCURVE",
"793 9 OFFCURVE",
"763 -34 CURVE SMOOTH",
"755 -43 OFFCURVE",
"748 -46 OFFCURVE",
"741 -46 CURVE SMOOTH",
"731 -46 OFFCURVE",
"723 -36 OFFCURVE",
"721 -22 CURVE SMOOTH",
"709 147 OFFCURVE",
"709 405 OFFCURVE"
);
}
);
width = 936;
}
);
unicode = 05E8;
},
{
glyphname = shinhebrew;
lastChange = "2015-11-23 13:46:33 +0000";
layers = (
{
layerId = "07D67BE4-D244-4E4A-8B00-C8B60A440C6D";
name = Light;
paths = (
{
closed = 1;
nodes = (
"258 284 CURVE SMOOTH",
"213 513 OFFCURVE",
"168 739 OFFCURVE",
"64 914 CURVE SMOOTH",
"61 920 OFFCURVE",
"59 925 OFFCURVE",
"59 928 CURVE SMOOTH",
"59 934 OFFCURVE",
"61 937 OFFCURVE",
"64 944 CURVE SMOOTH",
"80 971 OFFCURVE",
"129 1040 OFFCURVE",
"157 1068 CURVE SMOOTH",
"167 1077 OFFCURVE",
"172 1081 OFFCURVE",
"179 1081 CURVE SMOOTH",
"191 1081 OFFCURVE",
"198 1068 OFFCURVE",
"202 1061 CURVE SMOOTH",
"247 966 OFFCURVE",
"302 769 OFFCURVE",
"319 697 CURVE",
"365 473 LINE",
"367 466 OFFCURVE",
"374 460 OFFCURVE",
"383 460 CURVE SMOOTH",
"415 460 OFFCURVE",
"555 536 OFFCURVE",
"555 667 CURVE SMOOTH",
"555 763 OFFCURVE",
"552 795 OFFCURVE",
"517 874 CURVE SMOOTH",
"514 886 OFFCURVE",
"510 893 OFFCURVE",
"510 900 CURVE SMOOTH",
"510 907 OFFCURVE",
"512 914 OFFCURVE",
"519 925 CURVE SMOOTH",
"553 977 OFFCURVE",
"618 1048 OFFCURVE",
"637 1070 CURVE SMOOTH",
"644 1077 OFFCURVE",
"650 1081 OFFCURVE",
"656 1081 CURVE SMOOTH",
"666 1081 OFFCURVE",
"671 1068 OFFCURVE",
"675 1057 CURVE SMOOTH",
"690 1012 OFFCURVE",
"711 908 OFFCURVE",
"711 831 CURVE SMOOTH",
"711 692 OFFCURVE",
"671 588 OFFCURVE",
"601 508 CURVE SMOOTH",
"541 438 OFFCURVE",
"476 393 OFFCURVE",
"410 353 CURVE SMOOTH",
"398 346 OFFCURVE",
"394 337 OFFCURVE",
"394 328 CURVE SMOOTH",
"394 323 OFFCURVE",
"396 313 OFFCURVE",
"398 306 CURVE SMOOTH",
"408 262 OFFCURVE",
"422 200 OFFCURVE",
"437 181 CURVE SMOOTH",
"454 156 OFFCURVE",
"478 137 OFFCURVE",
"519 137 CURVE SMOOTH",
"608 137 OFFCURVE",
"763 195 OFFCURVE",
"842 263 CURVE SMOOTH",
"930 340 OFFCURVE",
"981 417 OFFCURVE",
"981 563 CURVE SMOOTH",
"981 674 OFFCURVE",
"964 785 OFFCURVE",
"931 869 CURVE SMOOTH",
"926 886 OFFCURVE",
"921 900 OFFCURVE",
"921 912 CURVE SMOOTH",
"921 927 OFFCURVE",
"928 937 OFFCURVE",
"938 951 CURVE SMOOTH",
"958 978 OFFCURVE",
"1003 1029 OFFCURVE",
"1042 1070 CURVE SMOOTH",
"1048 1075 OFFCURVE",
"1056 1081 OFFCURVE",
"1063 1081 CURVE SMOOTH",
"1070 1081 OFFCURVE",
"1077 1072 OFFCURVE",
"1078 1065 CURVE SMOOTH",
"1118 949 OFFCURVE",
"1133 841 OFFCURVE",
"1133 735 CURVE SMOOTH",
"1133 570 OFFCURVE",
"1058 380 OFFCURVE",
"981 270 CURVE SMOOTH",
"861 95 OFFCURVE",
"671 -31 OFFCURVE",
"463 -31 CURVE SMOOTH",
"321 -31 OFFCURVE",
"290 116 OFFCURVE"
);
}
);
width = 1221;
}
);
unicode = 05E9;
},
{
glyphname = tavhebrew;
lastChange = "2015-11-23 13:46:33 +0000";
layers = (
{
layerId = "07D67BE4-D244-4E4A-8B00-C8B60A440C6D";
name = Light;
paths = (
{
closed = 1;
nodes = (
"132 152 CURVE SMOOTH",
"139 163 OFFCURVE",
"143 166 OFFCURVE",
"168 166 CURVE",
"365 166 LINE",
"381 166 OFFCURVE",
"384 176 OFFCURVE",
"384 186 CURVE SMOOTH",
"384 219 OFFCURVE",
"307 643 OFFCURVE",
"247 795 CURVE SMOOTH",
"242 812 OFFCURVE",
"229 823 OFFCURVE",
"215 823 CURVE",
"95 823 LINE",
"78 823 OFFCURVE",
"62 833 OFFCURVE",
"62 850 CURVE SMOOTH",
"62 853 OFFCURVE",
"64 858 OFFCURVE",
"68 864 CURVE SMOOTH",
"87 898 OFFCURVE",
"189 1040 OFFCURVE",
"225 1072 CURVE SMOOTH",
"229 1075 OFFCURVE",
"237 1081 OFFCURVE",
"245 1081 CURVE SMOOTH",
"256 1081 OFFCURVE",
"266 1072 OFFCURVE",
"273 1054 CURVE SMOOTH",
"290 1012 OFFCURVE",
"295 989 OFFCURVE",
"324 989 CURVE",
"829 989 LINE",
"944 989 OFFCURVE",
"1010 946 OFFCURVE",
"1044 882 CURVE SMOOTH",
"1085 805 OFFCURVE",
"1096 466 OFFCURVE",
"1096 272 CURVE SMOOTH",
"1096 217 OFFCURVE",
"1096 174 OFFCURVE",
"1094 151 CURVE SMOOTH",
"1092 125 OFFCURVE",
"1091 118 OFFCURVE",
"1087 108 CURVE SMOOTH",
"1066 55 OFFCURVE",
"1044 11 OFFCURVE",
"1019 -31 CURVE SMOOTH",
"1014 -39 OFFCURVE",
"1005 -46 OFFCURVE",
"998 -46 CURVE SMOOTH",
"989 -46 OFFCURVE",
"979 -39 OFFCURVE",
"978 -22 CURVE SMOOTH",
"972 31 OFFCURVE",
"964 600 OFFCURVE",
"937 706 CURVE SMOOTH",
"917 781 OFFCURVE",
"885 821 OFFCURVE",
"820 821 CURVE",
"435 821 LINE",
"417 821 OFFCURVE",
"408 816 OFFCURVE",
"408 810 CURVE",
"408 810 OFFCURVE",
"408 803 OFFCURVE",
"412 787 CURVE SMOOTH",
"435 681 OFFCURVE",
"475 453 OFFCURVE",
"487 347 CURVE SMOOTH",
"489 333 OFFCURVE",
"490 312 OFFCURVE",
"490 303 CURVE SMOOTH",
"490 289 OFFCURVE",
"489 276 OFFCURVE",
"487 267 CURVE SMOOTH",
"475 204 OFFCURVE",
"435 81 OFFCURVE",
"413 31 CURVE SMOOTH",
"406 12 OFFCURVE",
"392 0 OFFCURVE",
"370 0 CURVE",
"57 0 LINE",
"48 0 OFFCURVE",
"41 5 OFFCURVE",
"41 12 CURVE SMOOTH",
"41 16 OFFCURVE",
"44 24 OFFCURVE",
"48 29 CURVE SMOOTH",
"73 72 OFFCURVE",
"102 115 OFFCURVE"
);
}
);
width = 1221;
}
);
unicode = 05EA;
},
{
glyphname = shinshindothebrew;
lastChange = "2015-11-23 13:46:33 +0000";
layers = (
{
components = (
{
name = shinhebrew;
}
);
layerId = "07D67BE4-D244-4E4A-8B00-C8B60A440C6D";
name = Light;
paths = (
{
closed = 1;
nodes = (
"1003 1199 CURVE SMOOTH",
"1003 1159 OFFCURVE",
"969 1127 OFFCURVE",
"930 1127 CURVE SMOOTH",
"888 1127 OFFCURVE",
"856 1159 OFFCURVE",
"856 1199 CURVE SMOOTH",
"856 1240 OFFCURVE",
"888 1272 OFFCURVE",
"930 1272 CURVE SMOOTH",
"969 1272 OFFCURVE",
"1003 1240 OFFCURVE"
);
}
);
width = 1221;
}
);
unicode = FB2A;
},
{
glyphname = shinsindothebrew;
lastChange = "2015-11-23 13:46:33 +0000";
layers = (
{
components = (
{
name = shinhebrew;
}
);
layerId = "07D67BE4-D244-4E4A-8B00-C8B60A440C6D";
name = Light;
paths = (
{
closed = 1;
nodes = (
"399 1199 CURVE SMOOTH",
"399 1159 OFFCURVE",
"365 1127 OFFCURVE",
"326 1127 CURVE SMOOTH",
"285 1127 OFFCURVE",
"252 1159 OFFCURVE",
"252 1199 CURVE SMOOTH",
"252 1240 OFFCURVE",
"285 1272 OFFCURVE",
"326 1272 CURVE SMOOTH",
"365 1272 OFFCURVE",
"399 1240 OFFCURVE"
);
}
);
width = 1221;
}
);
unicode = FB2B;
},
{
glyphname = shindageshshindothebrew;
lastChange = "2015-11-23 13:46:33 +0000";
layers = (
{
components = (
{
name = shinhebrew;
},
{
name = dageshhebrew;
transform = "{1, 0, 0, 1, 445, 0}";
}
);
layerId = "07D67BE4-D244-4E4A-8B00-C8B60A440C6D";
name = Light;
paths = (
{
closed = 1;
nodes = (
"1003 1199 CURVE SMOOTH",
"1003 1159 OFFCURVE",
"969 1127 OFFCURVE",
"930 1127 CURVE SMOOTH",
"888 1127 OFFCURVE",
"856 1159 OFFCURVE",
"856 1199 CURVE SMOOTH",
"856 1240 OFFCURVE",
"888 1272 OFFCURVE",
"930 1272 CURVE SMOOTH",
"969 1272 OFFCURVE",
"1003 1240 OFFCURVE"
);
}
);
width = 1221;
}
);
unicode = FB2C;
},
{
glyphname = shindageshsindothebrew;
lastChange = "2015-11-23 13:46:33 +0000";
layers = (
{
components = (
{
name = shinhebrew;
},
{
name = dageshhebrew;
transform = "{1, 0, 0, 1, 445, 0}";
}
);
layerId = "07D67BE4-D244-4E4A-8B00-C8B60A440C6D";
name = Light;
paths = (
{
closed = 1;
nodes = (
"399 1199 CURVE SMOOTH",
"399 1159 OFFCURVE",
"365 1127 OFFCURVE",
"326 1127 CURVE SMOOTH",
"285 1127 OFFCURVE",
"252 1159 OFFCURVE",
"252 1199 CURVE SMOOTH",
"252 1240 OFFCURVE",
"285 1272 OFFCURVE",
"326 1272 CURVE SMOOTH",
"365 1272 OFFCURVE",
"399 1240 OFFCURVE"
);
}
);
width = 1221;
}
);
unicode = FB2D;
},
{
glyphname = zero;
lastChange = "2015-11-23 13:46:33 +0000";
layers = (
{
guideLines = (
{
position = "{-80, 1180}";
}
);
layerId = "07D67BE4-D244-4E4A-8B00-C8B60A440C6D";
name = Light;
paths = (
{
closed = 1;
nodes = (
"95 609 CURVE SMOOTH",
"95 747 OFFCURVE",
"116 963 OFFCURVE",
"208 1084 CURVE SMOOTH",
"288 1188 OFFCURVE",
"362 1267 OFFCURVE",
"483 1267 CURVE SMOOTH",
"620 1267 OFFCURVE",
"734 1168 OFFCURVE",
"790 1074 CURVE SMOOTH",
"860 954 OFFCURVE",
"868 767 OFFCURVE",
"868 629 CURVE SMOOTH",
"868 570 OFFCURVE",
"865 494 OFFCURVE",
"844 407 CURVE SMOOTH",
"825 337 OFFCURVE",
"781 185 OFFCURVE",
"668 77 CURVE SMOOTH",
"616 29 OFFCURVE",
"557 -29 OFFCURVE",
"451 -29 CURVE SMOOTH",
"335 -29 OFFCURVE",
"251 31 OFFCURVE",
"184 138 CURVE SMOOTH",
"129 228 OFFCURVE",
"95 438 OFFCURVE"
);
},
{
closed = 1;
nodes = (
"521 147 CURVE SMOOTH",
"557 147 OFFCURVE",
"605 158 OFFCURVE",
"627 185 CURVE SMOOTH",
"656 221 OFFCURVE",
"675 292 OFFCURVE",
"685 362 CURVE SMOOTH",
"697 436 OFFCURVE",
"707 515 OFFCURVE",
"707 619 CURVE SMOOTH",
"707 730 OFFCURVE",
"693 823 OFFCURVE",
"673 901 CURVE SMOOTH",
"643 1023 OFFCURVE",
"545 1100 OFFCURVE",
"426 1100 CURVE SMOOTH",
"336 1100 OFFCURVE",
"307 1029 OFFCURVE",
"297 993 CURVE SMOOTH",
"266 896 OFFCURVE",
"254 781 OFFCURVE",
"254 656 CURVE SMOOTH",
"254 520 OFFCURVE",
"277 375 OFFCURVE",
"304 292 CURVE SMOOTH",
"328 224 OFFCURVE",
"406 147 OFFCURVE"
);
}
);
width = 938;
}
);
unicode = 0030;
userData = {
com.typemytype.robofont.guides = (
{
angle = 0;
isGlobal = 0;
magnetic = 5;
x = 0;
y = 576;
}
);
};
},
{
glyphname = one;
lastChange = "2015-11-23 13:46:33 +0000";
layers = (
{
layerId = "07D67BE4-D244-4E4A-8B00-C8B60A440C6D";
name = Light;
paths = (
{
closed = 1;
nodes = (
"57 29 CURVE SMOOTH",
"85 77 OFFCURVE",
"105 108 OFFCURVE",
"131 144 CURVE SMOOTH",
"139 158 OFFCURVE",
"148 166 OFFCURVE",
"179 166 CURVE SMOOTH",
"335 166 LINE SMOOTH",
"370 166 OFFCURVE",
"401 195 OFFCURVE",
"403 246 CURVE SMOOTH",
"403 285 OFFCURVE",
"405 326 OFFCURVE",
"405 368 CURVE SMOOTH",
"405 545 OFFCURVE",
"398 737 OFFCURVE",
"381 887 CURVE SMOOTH",
"372 971 OFFCURVE",
"340 1023 OFFCURVE",
"270 1023 CURVE SMOOTH",
"195 1023 LINE SMOOTH",
"177 1023 OFFCURVE",
"150 1027 OFFCURVE",
"150 1050 CURVE SMOOTH",
"150 1055 OFFCURVE",
"152 1062 OFFCURVE",
"157 1068 CURVE SMOOTH",
"223 1127 OFFCURVE",
"374 1228 OFFCURVE",
"475 1279 CURVE SMOOTH",
"483 1285 OFFCURVE",
"492 1286 OFFCURVE",
"501 1286 CURVE SMOOTH",
"521 1286 OFFCURVE",
"537 1274 OFFCURVE",
"541 1249 CURVE SMOOTH",
"555 1149 OFFCURVE",
"560 910 OFFCURVE",
"560 903 CURVE SMOOTH",
"560 824 OFFCURVE",
"571 313 OFFCURVE",
"571 228 CURVE SMOOTH",
"571 190 OFFCURVE",
"584 166 OFFCURVE",
"625 166 CURVE SMOOTH",
"824 166 LINE SMOOTH",
"832 166 OFFCURVE",
"844 158 OFFCURVE",
"844 147 CURVE SMOOTH",
"844 142 OFFCURVE",
"840 137 OFFCURVE",
"836 131 CURVE SMOOTH",
"811 91 OFFCURVE",
"788 67 OFFCURVE",
"750 22 CURVE SMOOTH",
"731 -2 OFFCURVE",
"723 -2 OFFCURVE",
"697 -2 CURVE SMOOTH",
"95 -2 LINE SMOOTH",
"73 -2 OFFCURVE",
"51 -2 OFFCURVE",
"51 12 CURVE SMOOTH",
"51 16 OFFCURVE",
"53 22 OFFCURVE"
);
}
);
width = 938;
}
);
unicode = 0031;
},
{
glyphname = two;
lastChange = "2015-11-23 13:46:33 +0000";
layers = (
{
layerId = "07D67BE4-D244-4E4A-8B00-C8B60A440C6D";
name = Light;
paths = (
{
closed = 1;
nodes = (
"125 41 CURVE SMOOTH",
"179 190 OFFCURVE",
"307 349 OFFCURVE",
"360 424 CURVE SMOOTH",
"437 537 OFFCURVE",
"589 706 OFFCURVE",
"589 844 CURVE SMOOTH",
"589 914 OFFCURVE",
"541 1011 OFFCURVE",
"447 1045 CURVE SMOOTH",
"388 1068 OFFCURVE",
"268 1082 OFFCURVE",
"193 1082 CURVE SMOOTH",
"174 1082 OFFCURVE",
"162 1088 OFFCURVE",
"162 1098 CURVE SMOOTH",
"162 1103 OFFCURVE",
"167 1108 OFFCURVE",
"170 1115 CURVE SMOOTH",
"189 1147 OFFCURVE",
"237 1206 OFFCURVE",
"270 1247 CURVE SMOOTH",
"275 1253 OFFCURVE",
"292 1267 OFFCURVE",
"311 1267 CURVE SMOOTH",
"333 1267 OFFCURVE",
"365 1265 OFFCURVE",
"376 1264 CURVE SMOOTH",
"499 1249 OFFCURVE",
"629 1219 OFFCURVE",
"707 1124 CURVE SMOOTH",
"755 1067 OFFCURVE",
"784 1021 OFFCURVE",
"784 918 CURVE SMOOTH",
"784 816 OFFCURVE",
"711 708 OFFCURVE",
"618 595 CURVE SMOOTH",
"531 489 OFFCURVE",
"372 233 OFFCURVE",
"370 190 CURVE SMOOTH",
"370 181 OFFCURVE",
"376 172 OFFCURVE",
"383 172 CURVE SMOOTH",
"842 172 LINE SMOOTH",
"854 172 OFFCURVE",
"861 169 OFFCURVE",
"861 159 CURVE SMOOTH",
"861 156 OFFCURVE",
"860 149 OFFCURVE",
"856 144 CURVE SMOOTH",
"842 118 OFFCURVE",
"798 43 OFFCURVE",
"770 14 CURVE SMOOTH",
"759 4 OFFCURVE",
"752 2 OFFCURVE",
"740 2 CURVE",
"152 2 LINE",
"131 2 OFFCURVE",
"121 9 OFFCURVE",
"121 24 CURVE SMOOTH",
"121 29 OFFCURVE",
"123 34 OFFCURVE"
);
}
);
width = 938;
}
);
unicode = 0032;
},
{
glyphname = three;
lastChange = "2015-11-23 13:46:33 +0000";
layers = (
{
layerId = "07D67BE4-D244-4E4A-8B00-C8B60A440C6D";
name = Light;
paths = (
{
closed = 1;
nodes = (
"186 159 CURVE SMOOTH",
"195 169 OFFCURVE",
"202 181 OFFCURVE",
"209 181 CURVE SMOOTH",
"211 181 OFFCURVE",
"215 179 OFFCURVE",
"216 179 CURVE SMOOTH",
"283 158 OFFCURVE",
"360 138 OFFCURVE",
"420 138 CURVE SMOOTH",
"509 138 OFFCURVE",
"571 163 OFFCURVE",
"612 204 CURVE SMOOTH",
"643 236 OFFCURVE",
"668 296 OFFCURVE",
"668 342 CURVE SMOOTH",
"668 421 OFFCURVE",
"641 470 OFFCURVE",
"584 516 CURVE SMOOTH",
"533 557 OFFCURVE",
"394 588 OFFCURVE",
"295 588 CURVE SMOOTH",
"286 588 OFFCURVE",
"285 593 OFFCURVE",
"285 599 CURVE SMOOTH",
"285 602 OFFCURVE",
"286 606 OFFCURVE",
"288 609 CURVE SMOOTH",
"315 647 OFFCURVE",
"340 688 OFFCURVE",
"365 715 CURVE SMOOTH",
"376 727 OFFCURVE",
"392 735 OFFCURVE",
"419 742 CURVE SMOOTH",
"480 758 OFFCURVE",
"594 823 OFFCURVE",
"594 921 CURVE SMOOTH",
"594 1004 OFFCURVE",
"533 1029 OFFCURVE",
"499 1043 CURVE SMOOTH",
"433 1072 OFFCURVE",
"326 1091 OFFCURVE",
"209 1091 CURVE SMOOTH",
"196 1091 OFFCURVE",
"188 1096 OFFCURVE",
"188 1108 CURVE SMOOTH",
"188 1113 OFFCURVE",
"189 1118 OFFCURVE",
"193 1125 CURVE SMOOTH",
"209 1149 OFFCURVE",
"249 1197 OFFCURVE",
"299 1255 CURVE SMOOTH",
"306 1262 OFFCURVE",
"315 1267 OFFCURVE",
"326 1267 CURVE SMOOTH",
"367 1267 OFFCURVE",
"569 1251 OFFCURVE",
"664 1178 CURVE SMOOTH",
"734 1124 OFFCURVE",
"752 1068 OFFCURVE",
"752 1002 CURVE SMOOTH",
"752 927 OFFCURVE",
"714 830 OFFCURVE",
"589 746 CURVE SMOOTH",
"584 742 OFFCURVE",
"582 739 OFFCURVE",
"582 735 CURVE SMOOTH",
"582 730 OFFCURVE",
"589 722 OFFCURVE",
"600 718 CURVE SMOOTH",
"745 672 OFFCURVE",
"831 556 OFFCURVE",
"831 438 CURVE SMOOTH",
"831 299 OFFCURVE",
"740 149 OFFCURVE",
"634 65 CURVE SMOOTH",
"548 -4 OFFCURVE",
"451 -27 OFFCURVE",
"376 -27 CURVE SMOOTH",
"281 -27 OFFCURVE",
"170 -2 OFFCURVE",
"118 22 CURVE SMOOTH",
"107 27 OFFCURVE",
"98 31 OFFCURVE",
"98 38 CURVE SMOOTH",
"98 41 OFFCURVE",
"102 46 OFFCURVE",
"104 50 CURVE SMOOTH",
"125 86 OFFCURVE",
"170 144 OFFCURVE"
);
}
);
width = 938;
}
);
unicode = 0033;
},
{
glyphname = four;
lastChange = "2015-11-23 13:46:33 +0000";
layers = (
{
layerId = "07D67BE4-D244-4E4A-8B00-C8B60A440C6D";
name = Light;
paths = (
{
closed = 1;
nodes = (
"523 355 CURVE SMOOTH",
"523 376 OFFCURVE",
"514 380 OFFCURVE",
"490 380 CURVE",
"131 380 LINE",
"69 380 OFFCURVE",
"51 450 OFFCURVE",
"51 506 CURVE SMOOTH",
"51 622 OFFCURVE",
"164 857 OFFCURVE",
"193 908 CURVE SMOOTH",
"285 1070 OFFCURVE",
"396 1190 OFFCURVE",
"560 1279 CURVE SMOOTH",
"569 1285 OFFCURVE",
"577 1286 OFFCURVE",
"586 1286 CURVE SMOOTH",
"607 1286 OFFCURVE",
"625 1272 OFFCURVE",
"629 1249 CURVE SMOOTH",
"654 1040 OFFCURVE",
"656 614 OFFCURVE",
"657 571 CURVE SMOOTH",
"659 552 OFFCURVE",
"666 550 OFFCURVE",
"677 550 CURVE",
"876 550 LINE",
"887 550 OFFCURVE",
"894 547 OFFCURVE",
"894 537 CURVE SMOOTH",
"894 534 OFFCURVE",
"894 529 OFFCURVE",
"890 523 CURVE SMOOTH",
"880 506 OFFCURVE",
"836 434 OFFCURVE",
"815 403 CURVE SMOOTH",
"806 390 OFFCURVE",
"798 382 OFFCURVE",
"776 382 CURVE SMOOTH",
"678 382 LINE",
"663 382 OFFCURVE",
"661 378 OFFCURVE",
"661 366 CURVE SMOOTH",
"661 346 OFFCURVE",
"663 217 OFFCURVE",
"663 144 CURVE",
"663 127 OFFCURVE",
"661 116 OFFCURVE",
"654 101 CURVE SMOOTH",
"637 67 OFFCURVE",
"603 4 OFFCURVE",
"566 -36 CURVE SMOOTH",
"560 -41 OFFCURVE",
"553 -45 OFFCURVE",
"548 -45 CURVE SMOOTH",
"537 -45 OFFCURVE",
"528 -36 OFFCURVE",
"528 -16 CURVE SMOOTH",
"528 111 OFFCURVE",
"523 330 OFFCURVE"
);
},
{
closed = 1;
nodes = (
"483 1019 CURVE SMOOTH",
"482 1036 OFFCURVE",
"475 1043 OFFCURVE",
"461 1043 CURVE SMOOTH",
"456 1043 OFFCURVE",
"447 1040 OFFCURVE",
"440 1036 CURVE SMOOTH",
"372 1002 OFFCURVE",
"331 951 OFFCURVE",
"300 910 CURVE SMOOTH",
"251 838 OFFCURVE",
"172 662 OFFCURVE",
"172 607 CURVE SMOOTH",
"172 568 OFFCURVE",
"188 550 OFFCURVE",
"211 550 CURVE",
"501 550 LINE",
"509 550 OFFCURVE",
"517 559 OFFCURVE",
"517 571 CURVE SMOOTH",
"516 638 OFFCURVE",
"507 857 OFFCURVE"
);
}
);
width = 938;
}
);
unicode = 0034;
},
{
glyphname = five;
lastChange = "2015-11-23 13:46:33 +0000";
layers = (
{
layerId = "07D67BE4-D244-4E4A-8B00-C8B60A440C6D";
name = Light;
paths = (
{
closed = 1;
nodes = (
"186 172 CURVE SMOOTH",
"191 179 OFFCURVE",
"198 183 OFFCURVE",
"208 183 CURVE SMOOTH",
"213 183 OFFCURVE",
"218 181 OFFCURVE",
"225 179 CURVE SMOOTH",
"281 159 OFFCURVE",
"388 144 OFFCURVE",
"446 144 CURVE SMOOTH",
"497 144 OFFCURVE",
"543 152 OFFCURVE",
"580 185 CURVE SMOOTH",
"625 222 OFFCURVE",
"659 291 OFFCURVE",
"659 357 CURVE SMOOTH",
"659 423 OFFCURVE",
"622 484 OFFCURVE",
"571 523 CURVE SMOOTH",
"519 563 OFFCURVE",
"432 575 OFFCURVE",
"328 575 CURVE SMOOTH",
"254 575 LINE",
"198 575 OFFCURVE",
"177 604 OFFCURVE",
"175 634 CURVE SMOOTH",
"167 773 OFFCURVE",
"167 908 OFFCURVE",
"167 1041 CURVE SMOOTH",
"167 1052 OFFCURVE",
"162 1070 OFFCURVE",
"162 1091 CURVE SMOOTH",
"162 1106 OFFCURVE",
"164 1122 OFFCURVE",
"170 1134 CURVE SMOOTH",
"200 1195 OFFCURVE",
"220 1242 OFFCURVE",
"251 1278 CURVE SMOOTH",
"254 1283 OFFCURVE",
"261 1286 OFFCURVE",
"268 1286 CURVE SMOOTH",
"277 1286 OFFCURVE",
"288 1283 OFFCURVE",
"292 1276 CURVE SMOOTH",
"302 1258 OFFCURVE",
"322 1224 OFFCURVE",
"329 1215 CURVE SMOOTH",
"338 1204 OFFCURVE",
"349 1204 OFFCURVE",
"362 1204 CURVE SMOOTH",
"772 1204 LINE",
"795 1204 OFFCURVE",
"803 1194 OFFCURVE",
"803 1185 CURVE SMOOTH",
"803 1181 OFFCURVE",
"795 1165 OFFCURVE",
"793 1163 CURVE SMOOTH",
"776 1136 OFFCURVE",
"738 1072 OFFCURVE",
"720 1048 CURVE SMOOTH",
"709 1036 OFFCURVE",
"700 1033 OFFCURVE",
"677 1033 CURVE SMOOTH",
"336 1033 LINE",
"315 1033 OFFCURVE",
"304 1027 OFFCURVE",
"304 1005 CURVE SMOOTH",
"304 1005 OFFCURVE",
"309 824 OFFCURVE",
"309 799 CURVE SMOOTH",
"309 769 OFFCURVE",
"331 746 OFFCURVE",
"353 746 CURVE",
"463 746 LINE",
"584 746 OFFCURVE",
"811 663 OFFCURVE",
"811 432 CURVE SMOOTH",
"811 306 OFFCURVE",
"725 197 OFFCURVE",
"721 190 CURVE SMOOTH",
"639 65 OFFCURVE",
"509 -29 OFFCURVE",
"363 -29 CURVE SMOOTH",
"288 -29 OFFCURVE",
"177 -11 OFFCURVE",
"112 20 CURVE SMOOTH",
"98 27 OFFCURVE",
"95 32 OFFCURVE",
"95 39 CURVE SMOOTH",
"95 46 OFFCURVE",
"98 53 OFFCURVE",
"102 60 CURVE SMOOTH",
"134 106 OFFCURVE",
"168 151 OFFCURVE"
);
}
);
width = 938;
}
);
unicode = 0035;
},
{
glyphname = six;
lastChange = "2015-11-23 13:46:33 +0000";
layers = (
{
layerId = "07D67BE4-D244-4E4A-8B00-C8B60A440C6D";
name = Light;
paths = (
{
closed = 1;
nodes = (
"159 619 CURVE SMOOTH",
"232 767 OFFCURVE",
"435 1062 OFFCURVE",
"548 1190 CURVE SMOOTH",
"564 1208 OFFCURVE",
"584 1217 OFFCURVE",
"593 1224 CURVE SMOOTH",
"618 1238 OFFCURVE",
"709 1283 OFFCURVE",
"734 1283 CURVE SMOOTH",
"745 1283 OFFCURVE",
"750 1278 OFFCURVE",
"750 1271 CURVE SMOOTH",
"750 1257 OFFCURVE",
"716 1215 OFFCURVE",
"684 1172 CURVE SMOOTH",
"644 1118 OFFCURVE",
"381 747 OFFCURVE",
"381 727 CURVE SMOOTH",
"381 725 OFFCURVE",
"384 722 OFFCURVE",
"386 722 CURVE SMOOTH",
"388 722 OFFCURVE",
"460 781 OFFCURVE",
"553 781 CURVE SMOOTH",
"661 781 OFFCURVE",
"734 733 OFFCURVE",
"781 684 CURVE SMOOTH",
"842 624 OFFCURVE",
"878 534 OFFCURVE",
"878 414 CURVE SMOOTH",
"878 292 OFFCURVE",
"798 166 OFFCURVE",
"704 82 CURVE SMOOTH",
"623 11 OFFCURVE",
"533 -29 OFFCURVE",
"433 -29 CURVE SMOOTH",
"245 -29 OFFCURVE",
"78 161 OFFCURVE",
"78 342 CURVE SMOOTH",
"78 452 OFFCURVE",
"118 537 OFFCURVE"
);
},
{
closed = 1;
nodes = (
"682 522 CURVE SMOOTH",
"634 588 OFFCURVE",
"557 631 OFFCURVE",
"469 631 CURVE SMOOTH",
"345 631 OFFCURVE",
"232 541 OFFCURVE",
"232 405 CURVE SMOOTH",
"232 255 OFFCURVE",
"350 135 OFFCURVE",
"501 135 CURVE SMOOTH",
"632 135 OFFCURVE",
"725 233 OFFCURVE",
"725 369 CURVE SMOOTH",
"725 414 OFFCURVE",
"714 479 OFFCURVE"
);
}
);
width = 938;
}
);
unicode = 0036;
},
{
glyphname = seven;
lastChange = "2015-11-23 13:46:33 +0000";
layers = (
{
layerId = "07D67BE4-D244-4E4A-8B00-C8B60A440C6D";
name = Light;
paths = (
{
closed = 1;
nodes = (
"204 183 CURVE SMOOTH",
"244 287 OFFCURVE",
"343 450 OFFCURVE",
"446 624 CURVE SMOOTH",
"533 771 OFFCURVE",
"636 946 OFFCURVE",
"636 1012 CURVE SMOOTH",
"636 1027 OFFCURVE",
"625 1031 OFFCURVE",
"608 1031 CURVE SMOOTH",
"87 1031 LINE",
"66 1031 OFFCURVE",
"48 1048 OFFCURVE",
"48 1068 CURVE SMOOTH",
"48 1074 OFFCURVE",
"51 1077 OFFCURVE",
"53 1082 CURVE SMOOTH",
"95 1158 OFFCURVE",
"152 1233 OFFCURVE",
"191 1274 CURVE SMOOTH",
"196 1279 OFFCURVE",
"206 1286 OFFCURVE",
"211 1286 CURVE SMOOTH",
"222 1286 OFFCURVE",
"230 1278 OFFCURVE",
"234 1264 CURVE SMOOTH",
"249 1209 OFFCURVE",
"261 1204 OFFCURVE",
"333 1204 CURVE SMOOTH",
"860 1204 LINE",
"890 1204 OFFCURVE",
"892 1190 OFFCURVE",
"892 1180 CURVE SMOOTH",
"892 1161 OFFCURVE",
"878 1127 OFFCURVE",
"858 1084 CURVE SMOOTH",
"806 970 OFFCURVE",
"656 753 OFFCURVE",
"603 672 CURVE SMOOTH",
"528 559 OFFCURVE",
"432 396 OFFCURVE",
"396 277 CURVE SMOOTH",
"383 238 OFFCURVE",
"369 188 OFFCURVE",
"369 171 CURVE SMOOTH",
"369 152 OFFCURVE",
"360 133 OFFCURVE",
"350 120 CURVE SMOOTH",
"319 74 OFFCURVE",
"258 14 OFFCURVE",
"208 -25 CURVE SMOOTH",
"200 -32 OFFCURVE",
"186 -41 OFFCURVE",
"179 -41 CURVE SMOOTH",
"170 -41 OFFCURVE",
"164 -34 OFFCURVE",
"164 -25 CURVE SMOOTH",
"164 55 OFFCURVE",
"184 127 OFFCURVE"
);
}
);
width = 938;
}
);
unicode = 0037;
},
{
glyphname = eight;
lastChange = "2015-11-23 13:46:33 +0000";
layers = (
{
layerId = "07D67BE4-D244-4E4A-8B00-C8B60A440C6D";
name = Light;
paths = (
{
closed = 1;
nodes = (
"76 326 CURVE SMOOTH",
"76 491 OFFCURVE",
"184 577 OFFCURVE",
"283 633 CURVE SMOOTH",
"290 636 OFFCURVE",
"293 641 OFFCURVE",
"293 645 CURVE SMOOTH",
"293 648 OFFCURVE",
"292 650 OFFCURVE",
"290 652 CURVE SMOOTH",
"229 684 OFFCURVE",
"139 761 OFFCURVE",
"139 910 CURVE SMOOTH",
"139 949 OFFCURVE",
"153 1012 OFFCURVE",
"182 1052 CURVE SMOOTH",
"218 1108 OFFCURVE",
"293 1183 OFFCURVE",
"338 1213 CURVE SMOOTH",
"372 1238 OFFCURVE",
"422 1267 OFFCURVE",
"499 1267 CURVE SMOOTH",
"657 1267 OFFCURVE",
"784 1151 OFFCURVE",
"784 997 CURVE SMOOTH",
"784 886 OFFCURVE",
"716 788 OFFCURVE",
"636 730 CURVE SMOOTH",
"620 717 OFFCURVE",
"605 710 OFFCURVE",
"598 701 CURVE SMOOTH",
"596 699 OFFCURVE",
"596 696 OFFCURVE",
"596 694 CURVE SMOOTH",
"596 688 OFFCURVE",
"598 684 OFFCURVE",
"601 683 CURVE SMOOTH",
"634 665 OFFCURVE",
"693 626 OFFCURVE",
"734 593 CURVE SMOOTH",
"798 543 OFFCURVE",
"842 464 OFFCURVE",
"842 376 CURVE SMOOTH",
"842 301 OFFCURVE",
"806 208 OFFCURVE",
"740 133 CURVE SMOOTH",
"673 55 OFFCURVE",
"545 -29 OFFCURVE",
"440 -29 CURVE SMOOTH",
"369 -29 OFFCURVE",
"252 9 OFFCURVE",
"177 88 CURVE SMOOTH",
"111 156 OFFCURVE",
"76 236 OFFCURVE"
);
},
{
closed = 1;
nodes = (
"677 335 CURVE SMOOTH",
"677 403 OFFCURVE",
"639 459 OFFCURVE",
"591 489 CURVE SMOOTH",
"541 522 OFFCURVE",
"483 550 OFFCURVE",
"412 586 CURVE SMOOTH",
"408 588 OFFCURVE",
"406 588 OFFCURVE",
"403 588 CURVE SMOOTH",
"399 588 OFFCURVE",
"398 588 OFFCURVE",
"394 586 CURVE SMOOTH",
"358 573 OFFCURVE",
"237 506 OFFCURVE",
"237 380 CURVE SMOOTH",
"237 244 OFFCURVE",
"347 137 OFFCURVE",
"505 137 CURVE SMOOTH",
"623 137 OFFCURVE",
"677 214 OFFCURVE"
);
},
{
closed = 1;
nodes = (
"497 756 CURVE SMOOTH",
"569 795 OFFCURVE",
"630 858 OFFCURVE",
"630 937 CURVE SMOOTH",
"630 1027 OFFCURVE",
"530 1111 OFFCURVE",
"424 1111 CURVE SMOOTH",
"336 1111 OFFCURVE",
"300 1019 OFFCURVE",
"300 946 CURVE SMOOTH",
"300 853 OFFCURVE",
"384 795 OFFCURVE",
"446 767 CURVE SMOOTH",
"454 763 OFFCURVE",
"473 753 OFFCURVE",
"483 753 CURVE SMOOTH",
"490 753 OFFCURVE",
"494 754 OFFCURVE"
);
}
);
width = 938;
}
);
unicode = 0038;
},
{
glyphname = nine;
lastChange = "2015-11-23 13:46:33 +0000";
layers = (
{
layerId = "07D67BE4-D244-4E4A-8B00-C8B60A440C6D";
name = Light;
paths = (
{
closed = 1;
nodes = (
"546 457 CURVE SMOOTH",
"546 462 OFFCURVE",
"545 466 OFFCURVE",
"539 466 CURVE SMOOTH",
"533 466 OFFCURVE",
"478 443 OFFCURVE",
"413 443 CURVE SMOOTH",
"335 443 OFFCURVE",
"252 473 OFFCURVE",
"188 537 CURVE SMOOTH",
"119 607 OFFCURVE",
"76 696 OFFCURVE",
"76 814 CURVE SMOOTH",
"76 928 OFFCURVE",
"116 1012 OFFCURVE",
"181 1098 CURVE SMOOTH",
"249 1190 OFFCURVE",
"369 1267 OFFCURVE",
"496 1267 CURVE SMOOTH",
"699 1267 OFFCURVE",
"883 1088 OFFCURVE",
"883 884 CURVE SMOOTH",
"883 758 OFFCURVE",
"832 641 OFFCURVE",
"770 537 CURVE SMOOTH",
"707 432 OFFCURVE",
"553 207 OFFCURVE",
"505 140 CURVE SMOOTH",
"489 118 OFFCURVE",
"471 99 OFFCURVE",
"460 88 CURVE SMOOTH",
"430 61 OFFCURVE",
"281 -45 OFFCURVE",
"245 -45 CURVE SMOOTH",
"232 -45 OFFCURVE",
"227 -32 OFFCURVE",
"227 -22 CURVE SMOOTH",
"227 -14 OFFCURVE",
"230 -7 OFFCURVE",
"234 0 CURVE SMOOTH",
"263 43 OFFCURVE",
"546 450 OFFCURVE"
);
},
{
closed = 1;
nodes = (
"430 1104 CURVE SMOOTH",
"355 1104 OFFCURVE",
"290 1062 OFFCURVE",
"252 1002 CURVE SMOOTH",
"227 963 OFFCURVE",
"222 916 OFFCURVE",
"222 872 CURVE SMOOTH",
"222 771 OFFCURVE",
"258 708 OFFCURVE",
"309 660 CURVE SMOOTH",
"356 619 OFFCURVE",
"433 595 OFFCURVE",
"497 595 CURVE SMOOTH",
"566 595 OFFCURVE",
"605 613 OFFCURVE",
"643 650 CURVE SMOOTH",
"682 690 OFFCURVE",
"716 754 OFFCURVE",
"716 844 CURVE SMOOTH",
"716 1007 OFFCURVE",
"580 1104 OFFCURVE"
);
}
);
width = 938;
}
);
unicode = 0039;
},
{
glyphname = zero.001;
lastChange = "2015-11-23 13:46:33 +0000";
layers = (
{
guideLines = (
{
position = "{-80, 1180}";
}
);
layerId = "07D67BE4-D244-4E4A-8B00-C8B60A440C6D";
name = Light;
paths = (
{
closed = 1;
nodes = (
"41 503 CURVE SMOOTH",
"41 619 OFFCURVE",
"68 795 OFFCURVE",
"145 898 CURVE SMOOTH",
"211 984 OFFCURVE",
"307 1067 OFFCURVE",
"417 1067 CURVE SMOOTH",
"531 1067 OFFCURVE",
"644 1005 OFFCURVE",
"700 921 CURVE SMOOTH",
"776 805 OFFCURVE",
"793 650 OFFCURVE",
"793 518 CURVE SMOOTH",
"793 438 OFFCURVE",
"781 359 OFFCURVE",
"765 306 CURVE SMOOTH",
"745 244 OFFCURVE",
"704 151 OFFCURVE",
"610 61 CURVE SMOOTH",
"567 18 OFFCURVE",
"480 -29 OFFCURVE",
"391 -29 CURVE SMOOTH",
"295 -29 OFFCURVE",
"196 4 OFFCURVE",
"132 109 CURVE SMOOTH",
"76 199 OFFCURVE",
"41 359 OFFCURVE"
);
},
{
closed = 1;
nodes = (
"449 135 CURVE SMOOTH",
"476 135 OFFCURVE",
"539 138 OFFCURVE",
"579 179 CURVE SMOOTH",
"603 208 OFFCURVE",
"625 246 OFFCURVE",
"636 315 CURVE SMOOTH",
"644 378 OFFCURVE",
"646 428 OFFCURVE",
"646 511 CURVE SMOOTH",
"646 609 OFFCURVE",
"629 724 OFFCURVE",
"579 801 CURVE SMOOTH",
"531 872 OFFCURVE",
"460 898 OFFCURVE",
"386 898 CURVE SMOOTH",
"319 898 OFFCURVE",
"256 867 OFFCURVE",
"230 816 CURVE SMOOTH",
"193 739 OFFCURVE",
"182 640 OFFCURVE",
"182 541 CURVE SMOOTH",
"182 432 OFFCURVE",
"209 312 OFFCURVE",
"237 251 CURVE SMOOTH",
"277 165 OFFCURVE",
"358 135 OFFCURVE"
);
}
);
width = 816;
}
);
userData = {
com.typemytype.robofont.guides = (
{
angle = 0;
isGlobal = 0;
magnetic = 5;
x = 0;
y = 576;
}
);
};
},
{
glyphname = one.001;
lastChange = "2015-11-23 13:46:33 +0000";
layers = (
{
layerId = "07D67BE4-D244-4E4A-8B00-C8B60A440C6D";
name = Light;
paths = (
{
closed = 1;
nodes = (
"49 25 CURVE SMOOTH",
"73 67 OFFCURVE",
"107 118 OFFCURVE",
"129 149 CURVE SMOOTH",
"136 161 OFFCURVE",
"145 169 OFFCURVE",
"172 169 CURVE SMOOTH",
"293 169 LINE SMOOTH",
"324 169 OFFCURVE",
"349 192 OFFCURVE",
"349 235 CURVE SMOOTH",
"349 267 OFFCURVE",
"350 301 OFFCURVE",
"350 339 CURVE SMOOTH",
"350 486 OFFCURVE",
"349 611 OFFCURVE",
"336 735 CURVE SMOOTH",
"329 809 OFFCURVE",
"306 851 OFFCURVE",
"247 851 CURVE SMOOTH",
"182 851 LINE",
"168 851 OFFCURVE",
"139 853 OFFCURVE",
"139 874 CURVE SMOOTH",
"139 880 OFFCURVE",
"141 887 OFFCURVE",
"150 896 CURVE SMOOTH",
"204 946 OFFCURVE",
"336 1031 OFFCURVE",
"422 1075 CURVE SMOOTH",
"430 1079 OFFCURVE",
"437 1081 OFFCURVE",
"446 1081 CURVE SMOOTH",
"463 1081 OFFCURVE",
"476 1072 OFFCURVE",
"480 1048 CURVE SMOOTH",
"490 964 OFFCURVE",
"496 763 OFFCURVE",
"496 758 CURVE SMOOTH",
"496 692 OFFCURVE",
"505 291 OFFCURVE",
"505 219 CURVE SMOOTH",
"505 186 OFFCURVE",
"514 169 OFFCURVE",
"550 169 CURVE SMOOTH",
"748 169 LINE",
"755 169 OFFCURVE",
"765 161 OFFCURVE",
"765 152 CURVE SMOOTH",
"765 147 OFFCURVE",
"763 144 OFFCURVE",
"759 138 CURVE SMOOTH",
"738 102 OFFCURVE",
"693 58 OFFCURVE",
"663 18 CURVE SMOOTH",
"644 0 OFFCURVE",
"637 0 OFFCURVE",
"616 0 CURVE SMOOTH",
"80 0 LINE",
"64 0 OFFCURVE",
"46 0 OFFCURVE",
"46 11 CURVE SMOOTH",
"46 14 OFFCURVE",
"48 18 OFFCURVE"
);
}
);
width = 816;
}
);
},
{
glyphname = two.001;
lastChange = "2015-11-23 13:46:33 +0000";
layers = (
{
layerId = "07D67BE4-D244-4E4A-8B00-C8B60A440C6D";
name = Light;
paths = (
{
closed = 1;
nodes = (
"85 34 CURVE SMOOTH",
"131 158 OFFCURVE",
"237 296 OFFCURVE",
"286 355 CURVE SMOOTH",
"362 450 OFFCURVE",
"499 597 OFFCURVE",
"499 711 CURVE SMOOTH",
"499 771 OFFCURVE",
"454 841 OFFCURVE",
"381 867 CURVE SMOOTH",
"331 889 OFFCURVE",
"225 903 OFFCURVE",
"162 903 CURVE SMOOTH",
"146 903 OFFCURVE",
"138 910 OFFCURVE",
"138 920 CURVE SMOOTH",
"138 921 OFFCURVE",
"141 930 OFFCURVE",
"145 935 CURVE SMOOTH",
"160 963 OFFCURVE",
"198 1016 OFFCURVE",
"227 1048 CURVE SMOOTH",
"230 1054 OFFCURVE",
"245 1067 OFFCURVE",
"261 1067 CURVE SMOOTH",
"279 1067 OFFCURVE",
"293 1067 OFFCURVE",
"317 1062 CURVE SMOOTH",
"419 1047 OFFCURVE",
"543 1018 OFFCURVE",
"603 948 CURVE SMOOTH",
"644 900 OFFCURVE",
"668 858 OFFCURVE",
"668 774 CURVE SMOOTH",
"668 688 OFFCURVE",
"598 590 OFFCURVE",
"523 494 CURVE SMOOTH",
"449 405 OFFCURVE",
"322 221 OFFCURVE",
"321 185 CURVE SMOOTH",
"321 174 OFFCURVE",
"324 169 OFFCURVE",
"331 169 CURVE SMOOTH",
"757 169 LINE SMOOTH",
"769 169 OFFCURVE",
"774 163 OFFCURVE",
"774 156 CURVE SMOOTH",
"774 152 OFFCURVE",
"769 144 OFFCURVE",
"765 138 CURVE SMOOTH",
"754 118 OFFCURVE",
"704 38 OFFCURVE",
"678 14 CURVE SMOOTH",
"670 5 OFFCURVE",
"659 2 OFFCURVE",
"650 2 CURVE",
"107 2 LINE",
"89 2 OFFCURVE",
"82 7 OFFCURVE",
"82 20 CURVE SMOOTH",
"82 25 OFFCURVE",
"83 29 OFFCURVE"
);
}
);
width = 816;
}
);
},
{
glyphname = three.001;
lastChange = "2015-11-23 13:46:33 +0000";
layers = (
{
layerId = "07D67BE4-D244-4E4A-8B00-C8B60A440C6D";
name = Light;
paths = (
{
closed = 1;
nodes = (
"152 158 CURVE SMOOTH",
"155 165 OFFCURVE",
"160 169 OFFCURVE",
"167 169 CURVE SMOOTH",
"168 169 OFFCURVE",
"172 166 OFFCURVE",
"174 166 CURVE SMOOTH",
"229 149 OFFCURVE",
"300 131 OFFCURVE",
"353 131 CURVE SMOOTH",
"426 131 OFFCURVE",
"494 147 OFFCURVE",
"528 183 CURVE SMOOTH",
"553 210 OFFCURVE",
"564 249 OFFCURVE",
"564 285 CURVE SMOOTH",
"564 342 OFFCURVE",
"546 385 OFFCURVE",
"499 424 CURVE SMOOTH",
"454 457 OFFCURVE",
"338 480 OFFCURVE",
"256 480 CURVE SMOOTH",
"247 480 OFFCURVE",
"242 484 OFFCURVE",
"242 489 CURVE SMOOTH",
"242 493 OFFCURVE",
"244 496 OFFCURVE",
"245 500 CURVE SMOOTH",
"268 534 OFFCURVE",
"293 588 OFFCURVE",
"315 611 CURVE SMOOTH",
"326 620 OFFCURVE",
"336 627 OFFCURVE",
"360 633 CURVE SMOOTH",
"412 647 OFFCURVE",
"490 684 OFFCURVE",
"490 769 CURVE SMOOTH",
"490 830 OFFCURVE",
"444 855 OFFCURVE",
"413 867 CURVE SMOOTH",
"355 891 OFFCURVE",
"254 903 OFFCURVE",
"155 903 CURVE SMOOTH",
"146 903 OFFCURVE",
"138 907 OFFCURVE",
"138 916 CURVE SMOOTH",
"138 920 OFFCURVE",
"138 928 OFFCURVE",
"143 934 CURVE SMOOTH",
"155 954 OFFCURVE",
"193 1007 OFFCURVE",
"236 1055 CURVE SMOOTH",
"244 1062 OFFCURVE",
"251 1067 OFFCURVE",
"259 1067 CURVE SMOOTH",
"295 1067 OFFCURVE",
"478 1047 OFFCURVE",
"560 985 CURVE SMOOTH",
"620 941 OFFCURVE",
"641 893 OFFCURVE",
"641 835 CURVE SMOOTH",
"641 773 OFFCURVE",
"601 694 OFFCURVE",
"496 620 CURVE SMOOTH",
"492 617 OFFCURVE",
"490 613 OFFCURVE",
"490 611 CURVE SMOOTH",
"490 607 OFFCURVE",
"496 604 OFFCURVE",
"505 600 CURVE SMOOTH",
"629 561 OFFCURVE",
"709 477 OFFCURVE",
"709 368 CURVE SMOOTH",
"709 238 OFFCURVE",
"627 116 OFFCURVE",
"537 46 CURVE SMOOTH",
"463 -12 OFFCURVE",
"365 -29 OFFCURVE",
"300 -29 CURVE SMOOTH",
"220 -29 OFFCURVE",
"121 -7 OFFCURVE",
"76 12 CURVE SMOOTH",
"68 18 OFFCURVE",
"64 22 OFFCURVE",
"64 27 CURVE SMOOTH",
"64 29 OFFCURVE",
"66 32 OFFCURVE",
"68 36 CURVE SMOOTH",
"85 67 OFFCURVE",
"139 142 OFFCURVE"
);
}
);
width = 816;
}
);
},
{
glyphname = four.001;
lastChange = "2015-11-23 13:46:33 +0000";
layers = (
{
layerId = "07D67BE4-D244-4E4A-8B00-C8B60A440C6D";
name = Light;
paths = (
{
closed = 1;
nodes = (
"480 269 CURVE SMOOTH",
"480 287 OFFCURVE",
"471 294 OFFCURVE",
"451 294 CURVE",
"107 294 LINE",
"53 294 OFFCURVE",
"39 359 OFFCURVE",
"39 405 CURVE SMOOTH",
"39 503 OFFCURVE",
"195 742 OFFCURVE",
"223 785 CURVE SMOOTH",
"306 908 OFFCURVE",
"396 997 OFFCURVE",
"535 1074 CURVE SMOOTH",
"545 1077 OFFCURVE",
"552 1081 OFFCURVE",
"559 1081 CURVE SMOOTH",
"577 1081 OFFCURVE",
"591 1068 OFFCURVE",
"593 1047 CURVE SMOOTH",
"615 869 OFFCURVE",
"616 511 OFFCURVE",
"616 473 CURVE SMOOTH",
"618 457 OFFCURVE",
"625 457 OFFCURVE",
"636 457 CURVE",
"786 457 LINE",
"801 455 OFFCURVE",
"804 450 OFFCURVE",
"804 441 CURVE SMOOTH",
"804 434 OFFCURVE",
"798 423 OFFCURVE",
"793 412 CURVE SMOOTH",
"784 395 OFFCURVE",
"759 346 OFFCURVE",
"740 319 CURVE SMOOTH",
"733 310 OFFCURVE",
"720 296 OFFCURVE",
"702 296 CURVE SMOOTH",
"639 296 LINE",
"625 296 OFFCURVE",
"620 289 OFFCURVE",
"620 276 CURVE SMOOTH",
"620 260 OFFCURVE",
"622 197 OFFCURVE",
"622 137 CURVE",
"622 123 OFFCURVE",
"620 113 OFFCURVE",
"615 99 CURVE SMOOTH",
"600 70 OFFCURVE",
"555 -4 OFFCURVE",
"523 -38 CURVE SMOOTH",
"519 -41 OFFCURVE",
"507 -45 OFFCURVE",
"503 -45 CURVE SMOOTH",
"494 -45 OFFCURVE",
"487 -38 OFFCURVE",
"487 -20 CURVE SMOOTH",
"487 86 OFFCURVE",
"480 248 OFFCURVE"
);
},
{
closed = 1;
nodes = (
"454 830 CURVE SMOOTH",
"453 843 OFFCURVE",
"447 848 OFFCURVE",
"437 848 CURVE SMOOTH",
"433 848 OFFCURVE",
"426 846 OFFCURVE",
"419 843 CURVE SMOOTH",
"370 814 OFFCURVE",
"340 783 OFFCURVE",
"317 753 CURVE SMOOTH",
"245 663 OFFCURVE",
"174 543 OFFCURVE",
"174 491 CURVE SMOOTH",
"174 459 OFFCURVE",
"184 453 OFFCURVE",
"204 453 CURVE",
"461 453 LINE",
"468 453 OFFCURVE",
"475 466 OFFCURVE",
"475 475 CURVE SMOOTH",
"473 529 OFFCURVE",
"473 697 OFFCURVE"
);
}
);
width = 816;
}
);
},
{
glyphname = five.001;
lastChange = "2015-11-23 13:46:33 +0000";
layers = (
{
layerId = "07D67BE4-D244-4E4A-8B00-C8B60A440C6D";
name = Light;
paths = (
{
closed = 1;
nodes = (
"184 161 CURVE SMOOTH",
"188 166 OFFCURVE",
"196 172 OFFCURVE",
"204 172 CURVE SMOOTH",
"208 172 OFFCURVE",
"216 171 OFFCURVE",
"222 169 CURVE SMOOTH",
"270 152 OFFCURVE",
"342 140 OFFCURVE",
"391 140 CURVE SMOOTH",
"433 140 OFFCURVE",
"496 144 OFFCURVE",
"526 171 CURVE SMOOTH",
"562 200 OFFCURVE",
"566 240 OFFCURVE",
"566 298 CURVE SMOOTH",
"566 351 OFFCURVE",
"539 390 OFFCURVE",
"497 423 CURVE SMOOTH",
"453 455 OFFCURVE",
"363 479 OFFCURVE",
"277 479 CURVE SMOOTH",
"215 479 LINE",
"170 479 OFFCURVE",
"152 501 OFFCURVE",
"148 527 CURVE SMOOTH",
"139 606 OFFCURVE",
"139 715 OFFCURVE",
"139 787 CURVE SMOOTH",
"139 824 OFFCURVE",
"141 837 OFFCURVE",
"141 857 CURVE SMOOTH",
"141 865 OFFCURVE",
"138 882 OFFCURVE",
"138 898 CURVE SMOOTH",
"138 912 OFFCURVE",
"139 925 OFFCURVE",
"145 935 CURVE SMOOTH",
"172 985 OFFCURVE",
"196 1038 OFFCURVE",
"222 1067 CURVE SMOOTH",
"223 1070 OFFCURVE",
"230 1074 OFFCURVE",
"237 1074 CURVE SMOOTH",
"245 1074 OFFCURVE",
"259 1070 OFFCURVE",
"261 1065 CURVE SMOOTH",
"270 1050 OFFCURVE",
"290 1009 OFFCURVE",
"297 1000 CURVE SMOOTH",
"304 991 OFFCURVE",
"313 991 OFFCURVE",
"324 991 CURVE SMOOTH",
"668 991 LINE",
"687 991 OFFCURVE",
"695 982 OFFCURVE",
"695 975 CURVE SMOOTH",
"695 968 OFFCURVE",
"684 948 OFFCURVE",
"682 946 CURVE SMOOTH",
"668 925 OFFCURVE",
"618 855 OFFCURVE",
"603 837 CURVE SMOOTH",
"594 826 OFFCURVE",
"580 821 OFFCURVE",
"560 821 CURVE SMOOTH",
"311 821 LINE",
"293 821 OFFCURVE",
"285 817 OFFCURVE",
"285 799 CURVE SMOOTH",
"285 799 OFFCURVE",
"290 703 OFFCURVE",
"290 679 CURVE SMOOTH",
"290 655 OFFCURVE",
"307 634 OFFCURVE",
"324 634 CURVE",
"413 634 LINE",
"526 634 OFFCURVE",
"718 552 OFFCURVE",
"718 361 CURVE SMOOTH",
"718 263 OFFCURVE",
"673 193 OFFCURVE",
"643 154 CURVE SMOOTH",
"566 55 OFFCURVE",
"432 -29 OFFCURVE",
"309 -29 CURVE SMOOTH",
"247 -29 OFFCURVE",
"168 -14 OFFCURVE",
"112 11 CURVE SMOOTH",
"102 16 OFFCURVE",
"98 22 OFFCURVE",
"98 29 CURVE SMOOTH",
"98 36 OFFCURVE",
"104 43 OFFCURVE",
"105 46 CURVE SMOOTH",
"132 86 OFFCURVE",
"170 144 OFFCURVE"
);
}
);
width = 816;
}
);
},
{
glyphname = six.001;
lastChange = "2015-11-23 13:46:33 +0000";
layers = (
{
layerId = "07D67BE4-D244-4E4A-8B00-C8B60A440C6D";
name = Light;
paths = (
{
closed = 1;
nodes = (
"134 518 CURVE SMOOTH",
"196 643 OFFCURVE",
"363 879 OFFCURVE",
"458 985 CURVE SMOOTH",
"473 1000 OFFCURVE",
"489 1009 OFFCURVE",
"496 1014 CURVE SMOOTH",
"517 1027 OFFCURVE",
"630 1074 OFFCURVE",
"652 1074 CURVE SMOOTH",
"661 1074 OFFCURVE",
"666 1068 OFFCURVE",
"666 1062 CURVE SMOOTH",
"666 1050 OFFCURVE",
"623 1000 OFFCURVE",
"608 980 CURVE SMOOTH",
"577 935 OFFCURVE",
"379 665 OFFCURVE",
"379 648 CURVE SMOOTH",
"379 647 OFFCURVE",
"383 643 OFFCURVE",
"383 643 CURVE SMOOTH",
"384 643 OFFCURVE",
"391 660 OFFCURVE",
"469 660 CURVE SMOOTH",
"560 660 OFFCURVE",
"636 624 OFFCURVE",
"677 583 CURVE SMOOTH",
"729 530 OFFCURVE",
"765 450 OFFCURVE",
"765 349 CURVE SMOOTH",
"765 246 OFFCURVE",
"692 137 OFFCURVE",
"610 65 CURVE SMOOTH",
"543 5 OFFCURVE",
"453 -29 OFFCURVE",
"367 -29 CURVE SMOOTH",
"209 -29 OFFCURVE",
"61 120 OFFCURVE",
"61 277 CURVE SMOOTH",
"61 371 OFFCURVE",
"100 450 OFFCURVE"
);
},
{
closed = 1;
nodes = (
"569 434 CURVE SMOOTH",
"533 484 OFFCURVE",
"466 522 OFFCURVE",
"398 522 CURVE SMOOTH",
"288 522 OFFCURVE",
"215 445 OFFCURVE",
"215 330 CURVE SMOOTH",
"215 215 OFFCURVE",
"304 131 OFFCURVE",
"422 131 CURVE SMOOTH",
"552 131 OFFCURVE",
"610 181 OFFCURVE",
"610 310 CURVE SMOOTH",
"610 342 OFFCURVE",
"594 400 OFFCURVE"
);
}
);
width = 816;
}
);
},
{
glyphname = seven.001;
lastChange = "2015-11-23 13:46:33 +0000";
layers = (
{
layerId = "07D67BE4-D244-4E4A-8B00-C8B60A440C6D";
name = Light;
paths = (
{
closed = 1;
nodes = (
"177 147 CURVE SMOOTH",
"209 233 OFFCURVE",
"317 387 OFFCURVE",
"401 530 CURVE SMOOTH",
"473 652 OFFCURVE",
"543 747 OFFCURVE",
"543 803 CURVE SMOOTH",
"543 814 OFFCURVE",
"533 817 OFFCURVE",
"519 817 CURVE SMOOTH",
"66 817 LINE",
"48 817 OFFCURVE",
"34 831 OFFCURVE",
"34 848 CURVE SMOOTH",
"34 853 OFFCURVE",
"37 857 OFFCURVE",
"37 860 CURVE SMOOTH",
"73 923 OFFCURVE",
"141 1027 OFFCURVE",
"174 1061 CURVE SMOOTH",
"179 1065 OFFCURVE",
"186 1074 OFFCURVE",
"193 1074 CURVE SMOOTH",
"202 1074 OFFCURVE",
"215 1062 OFFCURVE",
"218 1052 CURVE SMOOTH",
"230 1007 OFFCURVE",
"237 989 OFFCURVE",
"297 989 CURVE SMOOTH",
"745 989 LINE",
"770 989 OFFCURVE",
"772 968 OFFCURVE",
"772 959 CURVE SMOOTH",
"772 942 OFFCURVE",
"759 914 OFFCURVE",
"743 880 CURVE SMOOTH",
"699 785 OFFCURVE",
"587 647 OFFCURVE",
"545 581 CURVE SMOOTH",
"482 486 OFFCURVE",
"383 332 OFFCURVE",
"355 233 CURVE SMOOTH",
"343 200 OFFCURVE",
"338 172 OFFCURVE",
"335 158 CURVE SMOOTH",
"331 142 OFFCURVE",
"324 109 OFFCURVE",
"317 101 CURVE SMOOTH",
"290 61 OFFCURVE",
"222 4 OFFCURVE",
"181 -31 CURVE SMOOTH",
"174 -36 OFFCURVE",
"162 -43 OFFCURVE",
"155 -43 CURVE SMOOTH",
"148 -43 OFFCURVE",
"145 -38 OFFCURVE",
"145 -31 CURVE SMOOTH",
"145 38 OFFCURVE",
"160 101 OFFCURVE"
);
}
);
width = 816;
}
);
},
{
glyphname = eight.001;
lastChange = "2015-11-23 13:46:33 +0000";
layers = (
{
layerId = "07D67BE4-D244-4E4A-8B00-C8B60A440C6D";
name = Light;
paths = (
{
closed = 1;
nodes = (
"44 270 CURVE SMOOTH",
"44 410 OFFCURVE",
"138 487 OFFCURVE",
"222 534 CURVE SMOOTH",
"229 537 OFFCURVE",
"230 543 OFFCURVE",
"230 545 CURVE SMOOTH",
"230 549 OFFCURVE",
"230 550 OFFCURVE",
"229 552 CURVE SMOOTH",
"177 579 OFFCURVE",
"98 638 OFFCURVE",
"98 763 CURVE SMOOTH",
"98 797 OFFCURVE",
"112 853 OFFCURVE",
"134 884 CURVE SMOOTH",
"167 932 OFFCURVE",
"230 997 OFFCURVE",
"268 1019 CURVE SMOOTH",
"297 1041 OFFCURVE",
"347 1067 OFFCURVE",
"412 1067 CURVE SMOOTH",
"545 1067 OFFCURVE",
"659 968 OFFCURVE",
"659 838 CURVE SMOOTH",
"659 744 OFFCURVE",
"605 676 OFFCURVE",
"537 626 CURVE SMOOTH",
"523 614 OFFCURVE",
"512 607 OFFCURVE",
"507 600 CURVE SMOOTH",
"505 599 OFFCURVE",
"505 595 OFFCURVE",
"505 595 CURVE SMOOTH",
"505 590 OFFCURVE",
"507 588 OFFCURVE",
"509 586 CURVE SMOOTH",
"535 571 OFFCURVE",
"584 543 OFFCURVE",
"622 511 CURVE SMOOTH",
"673 464 OFFCURVE",
"711 387 OFFCURVE",
"711 313 CURVE SMOOTH",
"711 249 OFFCURVE",
"678 172 OFFCURVE",
"625 108 CURVE SMOOTH",
"567 41 OFFCURVE",
"449 -29 OFFCURVE",
"362 -29 CURVE SMOOTH",
"300 -29 OFFCURVE",
"193 4 OFFCURVE",
"129 70 CURVE SMOOTH",
"73 127 OFFCURVE",
"44 193 OFFCURVE"
);
},
{
closed = 1;
nodes = (
"550 270 CURVE SMOOTH",
"550 323 OFFCURVE",
"523 369 OFFCURVE",
"489 393 CURVE SMOOTH",
"449 416 OFFCURVE",
"392 450 OFFCURVE",
"338 475 CURVE SMOOTH",
"335 477 OFFCURVE",
"333 477 OFFCURVE",
"333 477 CURVE SMOOTH",
"329 477 OFFCURVE",
"328 477 OFFCURVE",
"324 475 CURVE SMOOTH",
"297 466 OFFCURVE",
"198 410 OFFCURVE",
"198 313 CURVE SMOOTH",
"198 212 OFFCURVE",
"295 129 OFFCURVE",
"415 129 CURVE SMOOTH",
"514 129 OFFCURVE",
"550 172 OFFCURVE"
);
},
{
closed = 1;
nodes = (
"415 648 LINE",
"471 681 OFFCURVE",
"512 727 OFFCURVE",
"512 788 CURVE SMOOTH",
"512 865 OFFCURVE",
"430 925 OFFCURVE",
"350 925 CURVE SMOOTH",
"270 925 OFFCURVE",
"247 871 OFFCURVE",
"247 795 CURVE SMOOTH",
"247 725 OFFCURVE",
"322 676 OFFCURVE",
"369 655 CURVE SMOOTH",
"376 650 OFFCURVE",
"388 643 OFFCURVE",
"396 643 CURVE"
);
}
);
width = 816;
}
);
},
{
glyphname = nine.001;
lastChange = "2015-11-23 13:46:33 +0000";
layers = (
{
layerId = "07D67BE4-D244-4E4A-8B00-C8B60A440C6D";
name = Light;
paths = (
{
closed = 1;
nodes = (
"451 376 CURVE SMOOTH",
"451 382 OFFCURVE",
"451 385 OFFCURVE",
"446 385 CURVE SMOOTH",
"440 385 OFFCURVE",
"396 362 OFFCURVE",
"342 362 CURVE SMOOTH",
"272 362 OFFCURVE",
"202 385 OFFCURVE",
"146 441 CURVE SMOOTH",
"89 501 OFFCURVE",
"48 577 OFFCURVE",
"48 677 CURVE SMOOTH",
"48 774 OFFCURVE",
"85 850 OFFCURVE",
"141 923 CURVE SMOOTH",
"198 998 OFFCURVE",
"313 1067 OFFCURVE",
"420 1067 CURVE SMOOTH",
"596 1067 OFFCURVE",
"759 912 OFFCURVE",
"759 737 CURVE SMOOTH",
"759 629 OFFCURVE",
"714 529 OFFCURVE",
"661 441 CURVE SMOOTH",
"605 349 OFFCURVE",
"478 169 OFFCURVE",
"435 111 CURVE SMOOTH",
"420 93 OFFCURVE",
"405 75 OFFCURVE",
"396 67 CURVE SMOOTH",
"372 45 OFFCURVE",
"234 -46 OFFCURVE",
"202 -46 CURVE SMOOTH",
"191 -46 OFFCURVE",
"182 -36 OFFCURVE",
"182 -27 CURVE SMOOTH",
"182 -20 OFFCURVE",
"184 -14 OFFCURVE",
"188 -7 CURVE SMOOTH",
"213 29 OFFCURVE",
"451 371 OFFCURVE"
);
},
{
closed = 1;
nodes = (
"372 914 CURVE SMOOTH",
"313 914 OFFCURVE",
"247 889 OFFCURVE",
"218 843 CURVE SMOOTH",
"198 810 OFFCURVE",
"189 758 OFFCURVE",
"189 725 CURVE SMOOTH",
"189 647 OFFCURVE",
"220 597 OFFCURVE",
"258 556 CURVE SMOOTH",
"293 518 OFFCURVE",
"365 494 OFFCURVE",
"413 494 CURVE SMOOTH",
"480 494 OFFCURVE",
"509 513 OFFCURVE",
"537 543 CURVE SMOOTH",
"569 573 OFFCURVE",
"594 636 OFFCURVE",
"594 704 CURVE SMOOTH",
"594 830 OFFCURVE",
"487 914 OFFCURVE"
);
}
);
width = 816;
}
);
},
{
glyphname = asterisk;
lastChange = "2015-11-23 13:46:33 +0000";
layers = (
{
layerId = "07D67BE4-D244-4E4A-8B00-C8B60A440C6D";
name = Light;
paths = (
{
closed = 1;
nodes = (
"335 1129 CURVE SMOOTH",
"331 1131 OFFCURVE",
"328 1132 OFFCURVE",
"324 1132 CURVE SMOOTH",
"321 1132 OFFCURVE",
"319 1131 OFFCURVE",
"315 1129 CURVE SMOOTH",
"306 1124 OFFCURVE",
"236 1075 OFFCURVE",
"225 1070 CURVE SMOOTH",
"223 1068 OFFCURVE",
"220 1068 OFFCURVE",
"218 1068 CURVE SMOOTH",
"211 1068 OFFCURVE",
"204 1074 OFFCURVE",
"204 1082 CURVE SMOOTH",
"204 1100 OFFCURVE",
"236 1166 OFFCURVE",
"236 1178 CURVE SMOOTH",
"236 1190 OFFCURVE",
"234 1195 OFFCURVE",
"230 1199 CURVE SMOOTH",
"208 1217 OFFCURVE",
"164 1245 OFFCURVE",
"155 1251 CURVE SMOOTH",
"150 1255 OFFCURVE",
"148 1260 OFFCURVE",
"148 1264 CURVE SMOOTH",
"148 1271 OFFCURVE",
"153 1276 OFFCURVE",
"162 1276 CURVE",
"252 1276 LINE SMOOTH",
"263 1276 OFFCURVE",
"273 1279 OFFCURVE",
"277 1292 CURVE SMOOTH",
"285 1315 OFFCURVE",
"307 1382 OFFCURVE",
"311 1389 CURVE SMOOTH",
"313 1396 OFFCURVE",
"319 1399 OFFCURVE",
"324 1399 CURVE SMOOTH",
"329 1399 OFFCURVE",
"335 1396 OFFCURVE",
"336 1389 CURVE SMOOTH",
"338 1382 OFFCURVE",
"365 1315 OFFCURVE",
"372 1292 CURVE SMOOTH",
"376 1279 OFFCURVE",
"386 1276 OFFCURVE",
"398 1276 CURVE",
"483 1276 LINE SMOOTH",
"492 1276 OFFCURVE",
"497 1271 OFFCURVE",
"497 1264 CURVE SMOOTH",
"497 1260 OFFCURVE",
"492 1253 OFFCURVE",
"487 1249 CURVE SMOOTH",
"478 1243 OFFCURVE",
"440 1217 OFFCURVE",
"419 1199 CURVE SMOOTH",
"415 1195 OFFCURVE",
"413 1190 OFFCURVE",
"413 1178 CURVE SMOOTH",
"413 1163 OFFCURVE",
"442 1103 OFFCURVE",
"442 1084 CURVE SMOOTH",
"442 1075 OFFCURVE",
"437 1068 OFFCURVE",
"430 1068 CURVE SMOOTH",
"430 1068 OFFCURVE",
"426 1070 OFFCURVE",
"424 1070 CURVE SMOOTH",
"413 1075 OFFCURVE",
"343 1124 OFFCURVE"
);
}
);
width = 652;
}
);
unicode = 002A;
},
{
glyphname = backslash;
lastChange = "2015-11-23 13:46:33 +0000";
layers = (
{
guideLines = (
{
position = "{-80, 1333}";
},
{
position = "{-80, -246}";
}
);
layerId = "07D67BE4-D244-4E4A-8B00-C8B60A440C6D";
name = Light;
paths = (
{
closed = 1;
nodes = (
"548 -133 LINE",
"557 -154 OFFCURVE",
"564 -163 OFFCURVE",
"573 -163 CURVE SMOOTH",
"580 -163 OFFCURVE",
"591 -149 OFFCURVE",
"593 -138 CURVE SMOOTH",
"598 -115 OFFCURVE",
"608 -48 OFFCURVE",
"608 -29 CURVE SMOOTH",
"608 -11 OFFCURVE",
"600 7 OFFCURVE",
"596 14 CURVE SMOOTH",
"510 193 OFFCURVE",
"430 400 OFFCURVE",
"362 573 CURVE SMOOTH",
"273 795 OFFCURVE",
"152 1096 OFFCURVE",
"109 1204 CURVE SMOOTH",
"105 1213 OFFCURVE",
"98 1219 OFFCURVE",
"91 1219 CURVE SMOOTH",
"82 1219 OFFCURVE",
"75 1209 OFFCURVE",
"69 1195 CURVE SMOOTH",
"59 1168 OFFCURVE",
"53 1158 OFFCURVE",
"46 1131 CURVE SMOOTH",
"44 1122 OFFCURVE",
"41 1111 OFFCURVE",
"41 1098 CURVE SMOOTH",
"41 1084 OFFCURVE",
"57 1057 OFFCURVE",
"66 1040 CURVE SMOOTH",
"126 916 OFFCURVE",
"177 807 OFFCURVE",
"295 508 CURVE SMOOTH"
);
}
);
width = 652;
}
);
unicode = 005C;
userData = {
com.typemytype.robofont.guides = (
{
angle = 0;
isGlobal = 0;
magnetic = 5;
x = 0;
y = 651;
},
{
angle = 0;
isGlobal = 0;
magnetic = 5;
x = 0;
y = -120;
}
);
};
},
{
glyphname = periodcentered;
lastChange = "2015-11-23 13:46:33 +0000";
layers = (
{
layerId = "07D67BE4-D244-4E4A-8B00-C8B60A440C6D";
name = Light;
paths = (
{
closed = 1;
nodes = (
"164 566 CURVE SMOOTH",
"162 568 OFFCURVE",
"157 571 OFFCURVE",
"157 579 CURVE SMOOTH",
"157 585 OFFCURVE",
"159 590 OFFCURVE",
"167 595 CURVE SMOOTH",
"182 609 OFFCURVE",
"218 648 OFFCURVE",
"258 697 CURVE SMOOTH",
"263 704 OFFCURVE",
"268 708 OFFCURVE",
"273 708 CURVE SMOOTH",
"277 708 OFFCURVE",
"281 704 OFFCURVE",
"288 699 CURVE SMOOTH",
"304 684 OFFCURVE",
"360 626 OFFCURVE",
"398 602 CURVE SMOOTH",
"405 599 OFFCURVE",
"408 592 OFFCURVE",
"408 586 CURVE SMOOTH",
"408 583 OFFCURVE",
"406 579 OFFCURVE",
"403 575 CURVE SMOOTH",
"381 550 OFFCURVE",
"319 480 OFFCURVE",
"304 468 CURVE SMOOTH",
"299 462 OFFCURVE",
"293 460 OFFCURVE",
"288 460 CURVE SMOOTH",
"285 460 OFFCURVE",
"281 462 OFFCURVE",
"275 466 CURVE SMOOTH",
"232 496 OFFCURVE",
"177 552 OFFCURVE"
);
}
);
width = 575;
}
);
unicode = 00B7;
},
{
glyphname = bullet;
lastChange = "2015-11-23 13:46:33 +0000";
layers = (
{
layerId = "07D67BE4-D244-4E4A-8B00-C8B60A440C6D";
name = Light;
paths = (
{
closed = 1;
nodes = (
"306 199 CURVE SMOOTH",
"254 226 OFFCURVE",
"145 312 OFFCURVE",
"132 326 CURVE SMOOTH",
"131 328 OFFCURVE",
"126 333 OFFCURVE",
"126 339 CURVE SMOOTH",
"126 342 OFFCURVE",
"129 347 OFFCURVE",
"134 355 CURVE",
"234 496 LINE",
"239 503 OFFCURVE",
"249 508 OFFCURVE",
"256 508 CURVE SMOOTH",
"265 508 OFFCURVE",
"272 503 OFFCURVE",
"277 496 CURVE SMOOTH",
"317 450 OFFCURVE",
"388 410 OFFCURVE",
"426 390 CURVE SMOOTH",
"435 387 OFFCURVE",
"442 371 OFFCURVE",
"442 361 CURVE SMOOTH",
"442 357 OFFCURVE",
"442 353 OFFCURVE",
"440 351 CURVE SMOOTH",
"415 313 OFFCURVE",
"363 244 OFFCURVE",
"342 208 CURVE SMOOTH",
"336 200 OFFCURVE",
"328 195 OFFCURVE",
"319 195 CURVE SMOOTH",
"315 195 OFFCURVE",
"309 197 OFFCURVE"
);
}
);
width = 570;
}
);
unicode = 2022;
},
{
glyphname = colon;
lastChange = "2015-11-23 13:46:33 +0000";
layers = (
{
guideLines = (
{
angle = 90;
position = "{344, 0}";
}
);
layerId = "07D67BE4-D244-4E4A-8B00-C8B60A440C6D";
name = Light;
paths = (
{
closed = 1;
nodes = (
"213 61 CURVE SMOOTH",
"208 68 OFFCURVE",
"204 77 OFFCURVE",
"204 82 CURVE SMOOTH",
"204 88 OFFCURVE",
"206 93 OFFCURVE",
"209 97 CURVE SMOOTH",
"244 131 OFFCURVE",
"279 172 OFFCURVE",
"297 199 CURVE SMOOTH",
"302 207 OFFCURVE",
"307 208 OFFCURVE",
"313 208 CURVE SMOOTH",
"321 208 OFFCURVE",
"324 204 OFFCURVE",
"329 200 CURVE SMOOTH",
"350 186 OFFCURVE",
"415 118 OFFCURVE",
"433 108 CURVE SMOOTH",
"440 102 OFFCURVE",
"447 95 OFFCURVE",
"447 86 CURVE SMOOTH",
"447 79 OFFCURVE",
"444 75 OFFCURVE",
"439 65 CURVE SMOOTH",
"428 43 OFFCURVE",
"370 -24 OFFCURVE",
"345 -39 CURVE SMOOTH",
"342 -41 OFFCURVE",
"336 -43 OFFCURVE",
"333 -43 CURVE SMOOTH",
"329 -43 OFFCURVE",
"324 -41 OFFCURVE",
"321 -39 CURVE SMOOTH",
"293 -24 OFFCURVE",
"237 31 OFFCURVE"
);
},
{
closed = 1;
nodes = (
"213 487 CURVE SMOOTH",
"208 494 OFFCURVE",
"204 503 OFFCURVE",
"204 509 CURVE SMOOTH",
"204 515 OFFCURVE",
"206 520 OFFCURVE",
"209 523 CURVE SMOOTH",
"244 557 OFFCURVE",
"279 599 OFFCURVE",
"297 626 CURVE SMOOTH",
"302 633 OFFCURVE",
"307 634 OFFCURVE",
"313 634 CURVE SMOOTH",
"321 634 OFFCURVE",
"324 631 OFFCURVE",
"329 627 CURVE SMOOTH",
"350 613 OFFCURVE",
"415 545 OFFCURVE",
"433 534 CURVE SMOOTH",
"440 529 OFFCURVE",
"447 522 OFFCURVE",
"447 513 CURVE SMOOTH",
"447 506 OFFCURVE",
"444 501 OFFCURVE",
"439 491 CURVE SMOOTH",
"428 470 OFFCURVE",
"370 403 OFFCURVE",
"345 387 CURVE SMOOTH",
"342 385 OFFCURVE",
"336 383 OFFCURVE",
"333 383 CURVE SMOOTH",
"329 383 OFFCURVE",
"324 385 OFFCURVE",
"321 387 CURVE SMOOTH",
"293 403 OFFCURVE",
"237 457 OFFCURVE"
);
}
);
width = 652;
}
);
unicode = 003A;
userData = {
com.typemytype.robofont.guides = (
{
angle = 90;
isGlobal = 0;
magnetic = 5;
x = 207;
y = 0;
}
);
};
},
{
glyphname = comma;
lastChange = "2015-11-23 13:46:33 +0000";
layers = (
{
layerId = "07D67BE4-D244-4E4A-8B00-C8B60A440C6D";
name = Light;
paths = (
{
closed = 1;
nodes = (
"270 -22 CURVE SMOOTH",
"270 36 OFFCURVE",
"254 82 OFFCURVE",
"245 108 CURVE SMOOTH",
"244 113 OFFCURVE",
"242 116 OFFCURVE",
"242 122 CURVE SMOOTH",
"242 127 OFFCURVE",
"244 133 OFFCURVE",
"247 138 CURVE SMOOTH",
"266 166 OFFCURVE",
"315 228 OFFCURVE",
"347 265 CURVE SMOOTH",
"353 270 OFFCURVE",
"358 272 OFFCURVE",
"363 272 CURVE SMOOTH",
"369 272 OFFCURVE",
"374 269 OFFCURVE",
"377 263 CURVE SMOOTH",
"394 235 OFFCURVE",
"435 156 OFFCURVE",
"435 81 CURVE SMOOTH",
"435 18 OFFCURVE",
"415 -38 OFFCURVE",
"401 -72 CURVE SMOOTH",
"383 -115 OFFCURVE",
"232 -390 OFFCURVE",
"208 -390 CURVE SMOOTH",
"200 -390 OFFCURVE",
"189 -387 OFFCURVE",
"189 -378 CURVE SMOOTH",
"189 -355 OFFCURVE",
"270 -99 OFFCURVE"
);
}
);
width = 652;
}
);
unicode = 002C;
},
{
glyphname = ellipsis;
lastChange = "2015-11-23 13:46:33 +0000";
layers = (
{
layerId = "07D67BE4-D244-4E4A-8B00-C8B60A440C6D";
name = Light;
paths = (
{
closed = 1;
nodes = (
"671 61 CURVE SMOOTH",
"666 68 OFFCURVE",
"663 77 OFFCURVE",
"663 82 CURVE SMOOTH",
"663 88 OFFCURVE",
"664 93 OFFCURVE",
"668 97 CURVE SMOOTH",
"702 131 OFFCURVE",
"738 172 OFFCURVE",
"755 199 CURVE SMOOTH",
"761 207 OFFCURVE",
"767 208 OFFCURVE",
"772 208 CURVE SMOOTH",
"779 208 OFFCURVE",
"783 204 OFFCURVE",
"788 200 CURVE SMOOTH",
"810 186 OFFCURVE",
"874 118 OFFCURVE",
"892 108 CURVE SMOOTH",
"899 102 OFFCURVE",
"906 95 OFFCURVE",
"906 86 CURVE SMOOTH",
"906 79 OFFCURVE",
"902 75 OFFCURVE",
"897 65 CURVE SMOOTH",
"887 43 OFFCURVE",
"829 -24 OFFCURVE",
"804 -39 CURVE SMOOTH",
"801 -41 OFFCURVE",
"795 -43 OFFCURVE",
"791 -43 CURVE SMOOTH",
"788 -43 OFFCURVE",
"783 -41 OFFCURVE",
"779 -39 CURVE SMOOTH",
"752 -24 OFFCURVE",
"697 31 OFFCURVE"
);
},
{
closed = 1;
nodes = (
"1133 61 CURVE SMOOTH",
"1128 68 OFFCURVE",
"1125 77 OFFCURVE",
"1125 82 CURVE SMOOTH",
"1125 88 OFFCURVE",
"1126 93 OFFCURVE",
"1130 97 CURVE SMOOTH",
"1164 131 OFFCURVE",
"1200 172 OFFCURVE",
"1218 199 CURVE SMOOTH",
"1224 207 OFFCURVE",
"1229 208 OFFCURVE",
"1234 208 CURVE SMOOTH",
"1241 208 OFFCURVE",
"1245 204 OFFCURVE",
"1251 200 CURVE SMOOTH",
"1272 186 OFFCURVE",
"1336 118 OFFCURVE",
"1354 108 CURVE SMOOTH",
"1362 102 OFFCURVE",
"1369 95 OFFCURVE",
"1369 86 CURVE SMOOTH",
"1369 79 OFFCURVE",
"1365 75 OFFCURVE",
"1359 65 CURVE SMOOTH",
"1349 43 OFFCURVE",
"1292 -24 OFFCURVE",
"1266 -39 CURVE SMOOTH",
"1263 -41 OFFCURVE",
"1258 -43 OFFCURVE",
"1254 -43 CURVE SMOOTH",
"1251 -43 OFFCURVE",
"1245 -41 OFFCURVE",
"1241 -39 CURVE SMOOTH",
"1215 -24 OFFCURVE",
"1159 31 OFFCURVE"
);
},
{
closed = 1;
nodes = (
"213 61 CURVE SMOOTH",
"208 68 OFFCURVE",
"204 77 OFFCURVE",
"204 82 CURVE SMOOTH",
"204 88 OFFCURVE",
"206 93 OFFCURVE",
"209 97 CURVE SMOOTH",
"244 131 OFFCURVE",
"279 172 OFFCURVE",
"297 199 CURVE SMOOTH",
"302 207 OFFCURVE",
"307 208 OFFCURVE",
"313 208 CURVE SMOOTH",
"321 208 OFFCURVE",
"324 204 OFFCURVE",
"329 200 CURVE SMOOTH",
"350 186 OFFCURVE",
"415 118 OFFCURVE",
"433 108 CURVE SMOOTH",
"440 102 OFFCURVE",
"447 95 OFFCURVE",
"447 86 CURVE SMOOTH",
"447 79 OFFCURVE",
"444 75 OFFCURVE",
"439 65 CURVE SMOOTH",
"428 43 OFFCURVE",
"370 -24 OFFCURVE",
"345 -39 CURVE SMOOTH",
"342 -41 OFFCURVE",
"336 -43 OFFCURVE",
"333 -43 CURVE SMOOTH",
"329 -43 OFFCURVE",
"324 -41 OFFCURVE",
"321 -39 CURVE SMOOTH",
"293 -24 OFFCURVE",
"237 31 OFFCURVE"
);
}
);
width = 1572;
}
);
unicode = 2026;
},
{
glyphname = exclam;
lastChange = "2015-11-23 13:46:33 +0000";
layers = (
{
layerId = "07D67BE4-D244-4E4A-8B00-C8B60A440C6D";
name = Light;
paths = (
{
closed = 1;
nodes = (
"239 61 CURVE SMOOTH",
"234 68 OFFCURVE",
"230 77 OFFCURVE",
"230 82 CURVE SMOOTH",
"230 88 OFFCURVE",
"232 93 OFFCURVE",
"236 97 CURVE SMOOTH",
"270 131 OFFCURVE",
"306 172 OFFCURVE",
"324 199 CURVE SMOOTH",
"329 207 OFFCURVE",
"335 208 OFFCURVE",
"340 208 CURVE SMOOTH",
"347 208 OFFCURVE",
"350 204 OFFCURVE",
"356 200 CURVE SMOOTH",
"377 186 OFFCURVE",
"442 118 OFFCURVE",
"460 108 CURVE SMOOTH",
"468 102 OFFCURVE",
"475 95 OFFCURVE",
"475 86 CURVE SMOOTH",
"475 79 OFFCURVE",
"471 75 OFFCURVE",
"466 65 CURVE SMOOTH",
"454 43 OFFCURVE",
"398 -24 OFFCURVE",
"372 -39 CURVE SMOOTH",
"369 -41 OFFCURVE",
"363 -43 OFFCURVE",
"360 -43 CURVE SMOOTH",
"356 -43 OFFCURVE",
"350 -41 OFFCURVE",
"347 -39 CURVE SMOOTH",
"321 -24 OFFCURVE",
"265 31 OFFCURVE"
);
},
{
closed = 1;
nodes = (
"302 414 CURVE SMOOTH",
"286 604 OFFCURVE",
"247 1034 OFFCURVE",
"247 1084 CURVE SMOOTH",
"247 1106 OFFCURVE",
"251 1120 OFFCURVE",
"258 1131 CURVE SMOOTH",
"295 1195 OFFCURVE",
"326 1240 OFFCURVE",
"363 1271 CURVE SMOOTH",
"367 1274 OFFCURVE",
"376 1279 OFFCURVE",
"381 1279 CURVE SMOOTH",
"388 1279 OFFCURVE",
"396 1272 OFFCURVE",
"396 1260 CURVE SMOOTH",
"396 1219 OFFCURVE",
"401 1036 OFFCURVE",
"401 944 CURVE SMOOTH",
"401 525 LINE SMOOTH",
"401 516 OFFCURVE",
"401 503 OFFCURVE",
"398 489 CURVE SMOOTH",
"384 446 OFFCURVE",
"355 396 OFFCURVE",
"342 376 CURVE SMOOTH",
"336 369 OFFCURVE",
"333 362 OFFCURVE",
"324 362 CURVE SMOOTH",
"309 362 OFFCURVE",
"304 393 OFFCURVE"
);
}
);
width = 652;
}
);
unicode = 0021;
},
{
glyphname = numbersign;
lastChange = "2015-11-23 13:46:33 +0000";
layers = (
{
layerId = "07D67BE4-D244-4E4A-8B00-C8B60A440C6D";
name = Light;
paths = (
{
closed = 1;
nodes = (
"692 1236 CURVE SMOOTH",
"695 1258 OFFCURVE",
"700 1276 OFFCURVE",
"716 1286 CURVE SMOOTH",
"763 1319 LINE",
"776 1327 OFFCURVE",
"786 1335 OFFCURVE",
"795 1335 CURVE SMOOTH",
"803 1335 OFFCURVE",
"808 1332 OFFCURVE",
"808 1320 CURVE SMOOTH",
"808 1305 OFFCURVE",
"795 1265 OFFCURVE",
"788 1235 CURVE SMOOTH",
"727 968 OFFCURVE",
"720 942 OFFCURVE",
"720 941 CURVE SMOOTH",
"720 935 OFFCURVE",
"723 934 OFFCURVE",
"729 934 CURVE SMOOTH",
"935 934 LINE SMOOTH",
"955 934 OFFCURVE",
"962 927 OFFCURVE",
"962 916 CURVE SMOOTH",
"962 908 OFFCURVE",
"958 901 OFFCURVE",
"953 893 CURVE SMOOTH",
"926 850 OFFCURVE",
"897 817 OFFCURVE",
"870 785 CURVE SMOOTH",
"863 776 OFFCURVE",
"849 771 OFFCURVE",
"825 771 CURVE SMOOTH",
"697 771 LINE SMOOTH",
"682 771 OFFCURVE",
"678 767 OFFCURVE",
"677 756 CURVE SMOOTH",
"622 491 LINE SMOOTH",
"622 486 OFFCURVE",
"623 482 OFFCURVE",
"630 482 CURVE SMOOTH",
"824 482 LINE SMOOTH",
"844 482 OFFCURVE",
"851 475 OFFCURVE",
"851 464 CURVE SMOOTH",
"851 457 OFFCURVE",
"847 450 OFFCURVE",
"842 441 CURVE SMOOTH",
"815 398 OFFCURVE",
"786 366 OFFCURVE",
"759 333 CURVE SMOOTH",
"752 325 OFFCURVE",
"738 319 OFFCURVE",
"714 319 CURVE SMOOTH",
"596 319 LINE SMOOTH",
"582 319 OFFCURVE",
"582 310 OFFCURVE",
"580 306 CURVE SMOOTH",
"560 210 OFFCURVE",
"545 115 OFFCURVE",
"526 29 CURVE SMOOTH",
"521 2 OFFCURVE",
"512 -24 OFFCURVE",
"501 -38 CURVE",
"501 -38 OFFCURVE",
"469 -74 OFFCURVE",
"449 -95 CURVE SMOOTH",
"437 -108 OFFCURVE",
"426 -118 OFFCURVE",
"420 -118 CURVE SMOOTH",
"408 -118 OFFCURVE",
"401 -111 OFFCURVE",
"401 -101 CURVE SMOOTH",
"401 -93 OFFCURVE",
"412 -52 OFFCURVE",
"419 -29 CURVE SMOOTH",
"446 72 OFFCURVE",
"507 305 OFFCURVE",
"507 312 CURVE SMOOTH",
"507 315 OFFCURVE",
"505 319 OFFCURVE",
"496 319 CURVE SMOOTH",
"277 319 LINE SMOOTH",
"266 319 OFFCURVE",
"263 313 OFFCURVE",
"261 305 CURVE SMOOTH",
"202 29 LINE SMOOTH",
"196 2 OFFCURVE",
"188 -24 OFFCURVE",
"177 -38 CURVE",
"177 -38 OFFCURVE",
"145 -74 OFFCURVE",
"125 -95 CURVE SMOOTH",
"112 -108 OFFCURVE",
"102 -118 OFFCURVE",
"97 -118 CURVE SMOOTH",
"83 -118 OFFCURVE",
"76 -111 OFFCURVE",
"76 -101 CURVE SMOOTH",
"76 -93 OFFCURVE",
"87 -52 OFFCURVE",
"95 -29 CURVE SMOOTH",
"126 79 OFFCURVE",
"157 188 OFFCURVE",
"184 306 CURVE SMOOTH",
"184 312 OFFCURVE",
"182 319 OFFCURVE",
"174 319 CURVE SMOOTH",
"-23 319 LINE SMOOTH",
"-42 319 OFFCURVE",
"-49 326 OFFCURVE",
"-49 335 CURVE SMOOTH",
"-49 340 OFFCURVE",
"-47 346 OFFCURVE",
"-45 349 CURVE SMOOTH",
"-16 396 OFFCURVE",
"28 448 OFFCURVE",
"48 468 CURVE SMOOTH",
"62 480 OFFCURVE",
"75 482 OFFCURVE",
"85 482 CURVE SMOOTH",
"215 482 LINE SMOOTH",
"227 482 OFFCURVE",
"229 489 OFFCURVE",
"229 493 CURVE SMOOTH",
"249 579 OFFCURVE",
"266 669 OFFCURVE",
"285 760 CURVE SMOOTH",
"285 765 OFFCURVE",
"281 771 OFFCURVE",
"275 771 CURVE SMOOTH",
"89 771 LINE SMOOTH",
"69 771 OFFCURVE",
"62 778 OFFCURVE",
"62 787 CURVE SMOOTH",
"62 792 OFFCURVE",
"64 797 OFFCURVE",
"66 801 CURVE SMOOTH",
"95 848 OFFCURVE",
"139 900 OFFCURVE",
"159 920 CURVE SMOOTH",
"174 932 OFFCURVE",
"186 934 OFFCURVE",
"196 934 CURVE SMOOTH",
"306 934 LINE SMOOTH",
"315 934 OFFCURVE",
"321 939 OFFCURVE",
"322 948 CURVE SMOOTH",
"374 1236 LINE SMOOTH",
"377 1258 OFFCURVE",
"383 1276 OFFCURVE",
"399 1286 CURVE SMOOTH",
"446 1319 LINE",
"458 1327 OFFCURVE",
"469 1335 OFFCURVE",
"478 1335 CURVE SMOOTH",
"485 1335 OFFCURVE",
"490 1332 OFFCURVE",
"490 1320 CURVE SMOOTH",
"490 1305 OFFCURVE",
"478 1265 OFFCURVE",
"471 1235 CURVE SMOOTH",
"408 970 OFFCURVE",
"403 941 OFFCURVE",
"403 941 CURVE SMOOTH",
"403 935 OFFCURVE",
"410 934 OFFCURVE",
"415 934 CURVE SMOOTH",
"625 934 LINE SMOOTH",
"634 934 OFFCURVE",
"639 942 OFFCURVE",
"641 948 CURVE SMOOTH",
"659 1045 OFFCURVE",
"675 1144 OFFCURVE"
);
},
{
closed = 1;
nodes = (
"302 489 LINE",
"302 484 OFFCURVE",
"306 482 OFFCURVE",
"315 482 CURVE SMOOTH",
"528 482 LINE SMOOTH",
"543 482 OFFCURVE",
"548 489 OFFCURVE",
"548 494 CURVE SMOOTH",
"548 496 OFFCURVE",
"603 751 OFFCURVE",
"603 761 CURVE SMOOTH",
"603 765 OFFCURVE",
"600 771 OFFCURVE",
"591 771 CURVE SMOOTH",
"377 771 LINE SMOOTH",
"370 771 OFFCURVE",
"363 765 OFFCURVE",
"362 756 CURVE SMOOTH"
);
}
);
width = 938;
}
);
unicode = 0023;
},
{
glyphname = period;
lastChange = "2015-11-23 13:46:33 +0000";
layers = (
{
layerId = "07D67BE4-D244-4E4A-8B00-C8B60A440C6D";
name = Light;
paths = (
{
closed = 1;
nodes = (
"213 61 CURVE SMOOTH",
"208 68 OFFCURVE",
"204 77 OFFCURVE",
"204 82 CURVE SMOOTH",
"204 88 OFFCURVE",
"206 93 OFFCURVE",
"209 97 CURVE SMOOTH",
"244 131 OFFCURVE",
"279 172 OFFCURVE",
"297 199 CURVE SMOOTH",
"302 207 OFFCURVE",
"307 208 OFFCURVE",
"313 208 CURVE SMOOTH",
"321 208 OFFCURVE",
"324 204 OFFCURVE",
"329 200 CURVE SMOOTH",
"350 186 OFFCURVE",
"415 118 OFFCURVE",
"433 108 CURVE SMOOTH",
"440 102 OFFCURVE",
"447 95 OFFCURVE",
"447 86 CURVE SMOOTH",
"447 79 OFFCURVE",
"444 75 OFFCURVE",
"439 65 CURVE SMOOTH",
"428 43 OFFCURVE",
"370 -24 OFFCURVE",
"345 -39 CURVE SMOOTH",
"342 -41 OFFCURVE",
"336 -43 OFFCURVE",
"333 -43 CURVE SMOOTH",
"329 -43 OFFCURVE",
"324 -41 OFFCURVE",
"321 -39 CURVE SMOOTH",
"293 -24 OFFCURVE",
"237 31 OFFCURVE"
);
}
);
width = 652;
}
);
unicode = 002E;
},
{
glyphname = question;
lastChange = "2015-11-23 13:46:33 +0000";
layers = (
{
layerId = "07D67BE4-D244-4E4A-8B00-C8B60A440C6D";
name = Light;
paths = (
{
closed = 1;
nodes = (
"191 511 CURVE SMOOTH",
"191 564 OFFCURVE",
"220 607 OFFCURVE",
"242 636 CURVE SMOOTH",
"313 733 OFFCURVE",
"415 833 OFFCURVE",
"415 946 CURVE SMOOTH",
"415 1106 OFFCURVE",
"258 1127 OFFCURVE",
"109 1147 CURVE SMOOTH",
"95 1149 OFFCURVE",
"89 1156 OFFCURVE",
"89 1165 CURVE SMOOTH",
"89 1183 OFFCURVE",
"168 1269 OFFCURVE",
"186 1285 CURVE SMOOTH",
"195 1294 OFFCURVE",
"204 1294 OFFCURVE",
"215 1294 CURVE SMOOTH",
"254 1294 OFFCURVE",
"365 1276 OFFCURVE",
"439 1233 CURVE SMOOTH",
"510 1192 OFFCURVE",
"566 1115 OFFCURVE",
"566 1025 CURVE SMOOTH",
"566 886 OFFCURVE",
"466 765 OFFCURVE",
"376 663 CURVE SMOOTH",
"349 633 OFFCURVE",
"340 602 OFFCURVE",
"340 573 CURVE SMOOTH",
"340 552 OFFCURVE",
"350 516 OFFCURVE",
"383 479 CURVE SMOOTH",
"391 472 OFFCURVE",
"394 464 OFFCURVE",
"394 457 CURVE SMOOTH",
"394 450 OFFCURVE",
"392 448 OFFCURVE",
"388 436 CURVE SMOOTH",
"381 414 OFFCURVE",
"340 359 OFFCURVE",
"326 346 CURVE SMOOTH",
"319 339 OFFCURVE",
"311 337 OFFCURVE",
"306 337 CURVE SMOOTH",
"299 337 OFFCURVE",
"293 340 OFFCURVE",
"290 342 CURVE SMOOTH",
"245 376 OFFCURVE",
"191 441 OFFCURVE"
);
},
{
closed = 1;
nodes = (
"198 65 CURVE SMOOTH",
"193 72 OFFCURVE",
"189 81 OFFCURVE",
"189 86 CURVE SMOOTH",
"189 91 OFFCURVE",
"191 97 OFFCURVE",
"195 101 CURVE SMOOTH",
"229 135 OFFCURVE",
"265 176 OFFCURVE",
"283 202 CURVE SMOOTH",
"288 210 OFFCURVE",
"293 212 OFFCURVE",
"299 212 CURVE SMOOTH",
"306 212 OFFCURVE",
"309 208 OFFCURVE",
"315 204 CURVE SMOOTH",
"336 190 OFFCURVE",
"401 122 OFFCURVE",
"419 111 CURVE SMOOTH",
"426 106 OFFCURVE",
"433 99 OFFCURVE",
"433 89 CURVE SMOOTH",
"433 82 OFFCURVE",
"430 79 OFFCURVE",
"424 68 CURVE SMOOTH",
"413 46 OFFCURVE",
"356 -20 OFFCURVE",
"331 -36 CURVE SMOOTH",
"328 -38 OFFCURVE",
"322 -39 OFFCURVE",
"319 -39 CURVE SMOOTH",
"315 -39 OFFCURVE",
"309 -38 OFFCURVE",
"306 -36 CURVE SMOOTH",
"279 -20 OFFCURVE",
"223 34 OFFCURVE"
);
}
);
width = 652;
}
);
unicode = 003F;
},
{
glyphname = quotedbl;
lastChange = "2015-11-23 13:46:33 +0000";
layers = (
{
guideLines = (
{
position = "{-80, 1282}";
},
{
position = "{-80, 524}";
},
{
position = "{-80, 1071}";
},
{
angle = 90;
position = "{229, 0}";
},
{
angle = 90;
position = "{463, 0}";
}
);
layerId = "07D67BE4-D244-4E4A-8B00-C8B60A440C6D";
name = Light;
paths = (
{
closed = 1;
nodes = (
"237 493 CURVE SMOOTH",
"220 493 OFFCURVE",
"215 509 OFFCURVE",
"211 523 CURVE SMOOTH",
"198 581 OFFCURVE",
"160 781 OFFCURVE",
"150 930 CURVE SMOOTH",
"146 966 OFFCURVE",
"146 1004 OFFCURVE",
"146 1047 CURVE SMOOTH",
"146 1074 OFFCURVE",
"152 1104 OFFCURVE",
"179 1104 CURVE SMOOTH",
"297 1104 LINE SMOOTH",
"324 1104 OFFCURVE",
"329 1074 OFFCURVE",
"329 1047 CURVE SMOOTH",
"329 1004 OFFCURVE",
"329 966 OFFCURVE",
"326 930 CURVE SMOOTH",
"315 781 OFFCURVE",
"277 581 OFFCURVE",
"265 523 CURVE SMOOTH",
"261 509 OFFCURVE",
"256 493 OFFCURVE"
);
},
{
closed = 1;
nodes = (
"692 493 CURVE SMOOTH",
"673 493 OFFCURVE",
"668 509 OFFCURVE",
"664 523 CURVE SMOOTH",
"652 581 OFFCURVE",
"615 781 OFFCURVE",
"603 930 CURVE SMOOTH",
"600 966 OFFCURVE",
"600 1004 OFFCURVE",
"600 1047 CURVE SMOOTH",
"600 1074 OFFCURVE",
"605 1104 OFFCURVE",
"632 1104 CURVE SMOOTH",
"750 1104 LINE SMOOTH",
"777 1104 OFFCURVE",
"783 1074 OFFCURVE",
"783 1047 CURVE SMOOTH",
"783 1004 OFFCURVE",
"783 966 OFFCURVE",
"779 930 CURVE SMOOTH",
"769 781 OFFCURVE",
"731 581 OFFCURVE",
"718 523 CURVE SMOOTH",
"714 509 OFFCURVE",
"709 493 OFFCURVE"
);
}
);
width = 929;
}
);
unicode = 0022;
userData = {
com.typemytype.robofont.guides = (
{
angle = 0;
isGlobal = 0;
magnetic = 5;
x = 0;
y = 626;
},
{
angle = 0;
isGlobal = 0;
magnetic = 5;
x = 0;
y = 256;
},
{
angle = 0;
isGlobal = 0;
magnetic = 5;
x = 0;
y = 523;
},
{
angle = 90;
isGlobal = 0;
magnetic = 5;
x = 151;
y = 0;
},
{
angle = 90;
isGlobal = 0;
magnetic = 5;
x = 265;
y = 0;
}
);
};
},
{
glyphname = quotesingle;
lastChange = "2015-11-23 13:46:33 +0000";
layers = (
{
guideLines = (
{
position = "{-80, 1282}";
},
{
position = "{-80, 524}";
},
{
position = "{-80, 1071}";
},
{
angle = 90;
position = "{178, 0}";
},
{
angle = 90;
position = "{412, 0}";
}
);
layerId = "07D67BE4-D244-4E4A-8B00-C8B60A440C6D";
name = Light;
paths = (
{
closed = 1;
nodes = (
"237 493 CURVE SMOOTH",
"220 493 OFFCURVE",
"215 509 OFFCURVE",
"211 523 CURVE SMOOTH",
"198 581 OFFCURVE",
"160 781 OFFCURVE",
"150 930 CURVE SMOOTH",
"146 966 OFFCURVE",
"146 1004 OFFCURVE",
"146 1047 CURVE SMOOTH",
"146 1074 OFFCURVE",
"152 1104 OFFCURVE",
"179 1104 CURVE SMOOTH",
"297 1104 LINE SMOOTH",
"324 1104 OFFCURVE",
"329 1074 OFFCURVE",
"329 1047 CURVE SMOOTH",
"329 1004 OFFCURVE",
"329 966 OFFCURVE",
"326 930 CURVE SMOOTH",
"315 781 OFFCURVE",
"277 581 OFFCURVE",
"265 523 CURVE SMOOTH",
"261 509 OFFCURVE",
"256 493 OFFCURVE"
);
}
);
width = 476;
}
);
unicode = 0027;
userData = {
com.typemytype.robofont.guides = (
{
angle = 0;
isGlobal = 0;
magnetic = 5;
x = 0;
y = 626;
},
{
angle = 0;
isGlobal = 0;
magnetic = 5;
x = 0;
y = 256;
},
{
angle = 0;
isGlobal = 0;
magnetic = 5;
x = 0;
y = 523;
},
{
angle = 90;
isGlobal = 0;
magnetic = 5;
x = 126;
y = 0;
},
{
angle = 90;
isGlobal = 0;
magnetic = 5;
x = 240;
y = 0;
}
);
};
},
{
glyphname = semicolon;
lastChange = "2015-11-23 13:46:33 +0000";
layers = (
{
layerId = "07D67BE4-D244-4E4A-8B00-C8B60A440C6D";
name = Light;
paths = (
{
closed = 1;
nodes = (
"270 -22 CURVE SMOOTH",
"270 36 OFFCURVE",
"254 82 OFFCURVE",
"245 108 CURVE SMOOTH",
"244 113 OFFCURVE",
"242 116 OFFCURVE",
"242 122 CURVE SMOOTH",
"242 127 OFFCURVE",
"244 133 OFFCURVE",
"247 138 CURVE SMOOTH",
"266 166 OFFCURVE",
"315 228 OFFCURVE",
"347 265 CURVE SMOOTH",
"353 270 OFFCURVE",
"358 272 OFFCURVE",
"363 272 CURVE SMOOTH",
"369 272 OFFCURVE",
"374 269 OFFCURVE",
"377 263 CURVE SMOOTH",
"394 235 OFFCURVE",
"435 156 OFFCURVE",
"435 81 CURVE SMOOTH",
"435 18 OFFCURVE",
"415 -38 OFFCURVE",
"401 -72 CURVE SMOOTH",
"383 -115 OFFCURVE",
"232 -390 OFFCURVE",
"208 -390 CURVE SMOOTH",
"200 -390 OFFCURVE",
"189 -387 OFFCURVE",
"189 -378 CURVE SMOOTH",
"189 -355 OFFCURVE",
"270 -99 OFFCURVE"
);
},
{
closed = 1;
nodes = (
"208 564 CURVE SMOOTH",
"202 571 OFFCURVE",
"198 581 OFFCURVE",
"198 586 CURVE SMOOTH",
"198 592 OFFCURVE",
"200 597 OFFCURVE",
"204 600 CURVE SMOOTH",
"237 634 OFFCURVE",
"273 676 OFFCURVE",
"292 703 CURVE SMOOTH",
"297 710 OFFCURVE",
"302 711 OFFCURVE",
"307 711 CURVE SMOOTH",
"315 711 OFFCURVE",
"319 708 OFFCURVE",
"324 704 CURVE SMOOTH",
"345 690 OFFCURVE",
"410 622 OFFCURVE",
"428 611 CURVE SMOOTH",
"435 606 OFFCURVE",
"442 599 OFFCURVE",
"442 590 CURVE SMOOTH",
"442 583 OFFCURVE",
"439 579 OFFCURVE",
"433 568 CURVE SMOOTH",
"422 547 OFFCURVE",
"365 480 OFFCURVE",
"340 464 CURVE SMOOTH",
"336 462 OFFCURVE",
"331 460 OFFCURVE",
"328 460 CURVE SMOOTH",
"324 460 OFFCURVE",
"319 462 OFFCURVE",
"315 464 CURVE SMOOTH",
"288 480 OFFCURVE",
"232 534 OFFCURVE"
);
}
);
width = 652;
}
);
unicode = 003B;
},
{
glyphname = slash;
lastChange = "2015-11-23 13:46:33 +0000";
layers = (
{
layerId = "07D67BE4-D244-4E4A-8B00-C8B60A440C6D";
name = Light;
paths = (
{
closed = 1;
nodes = (
"261 479 CURVE SMOOTH",
"377 767 OFFCURVE",
"476 1029 OFFCURVE",
"501 1096 CURVE SMOOTH",
"509 1118 OFFCURVE",
"516 1131 OFFCURVE",
"531 1145 CURVE",
"598 1201 LINE SMOOTH",
"608 1209 OFFCURVE",
"623 1219 OFFCURVE",
"634 1219 CURVE SMOOTH",
"641 1219 OFFCURVE",
"646 1211 OFFCURVE",
"646 1206 CURVE SMOOTH",
"646 1199 OFFCURVE",
"641 1180 OFFCURVE",
"637 1170 CURVE SMOOTH",
"584 1036 OFFCURVE",
"426 656 OFFCURVE",
"367 508 CURVE SMOOTH",
"290 313 OFFCURVE",
"223 142 OFFCURVE",
"159 -7 CURVE SMOOTH",
"139 -53 OFFCURVE",
"125 -86 OFFCURVE",
"111 -101 CURVE SMOOTH",
"83 -125 OFFCURVE",
"62 -144 OFFCURVE",
"41 -156 CURVE SMOOTH",
"32 -161 OFFCURVE",
"27 -163 OFFCURVE",
"21 -163 CURVE SMOOTH",
"8 -163 OFFCURVE",
"1 -156 OFFCURVE",
"1 -145 CURVE SMOOTH",
"1 -138 OFFCURVE",
"5 -127 OFFCURVE",
"8 -118 CURVE SMOOTH",
"59 4 OFFCURVE",
"160 229 OFFCURVE"
);
}
);
width = 652;
}
);
unicode = 002F;
},
{
glyphname = braceleft;
lastChange = "2015-11-23 13:46:33 +0000";
layers = (
{
guideLines = (
{
position = "{-80, 569}";
},
{
angle = 90;
position = "{127, 0}";
},
{
angle = 90;
position = "{708, 0}";
}
);
layerId = "07D67BE4-D244-4E4A-8B00-C8B60A440C6D";
name = Light;
paths = (
{
closed = 1;
nodes = (
"432 -140 LINE",
"342 -140 OFFCURVE",
"319 -61 OFFCURVE",
"319 5 CURVE SMOOTH",
"319 48 OFFCURVE",
"324 156 OFFCURVE",
"324 238 CURVE SMOOTH",
"324 368 OFFCURVE",
"290 450 OFFCURVE",
"213 489 CURVE SMOOTH",
"209 491 OFFCURVE",
"208 494 OFFCURVE",
"208 500 CURVE SMOOTH",
"208 506 OFFCURVE",
"209 509 OFFCURVE",
"213 511 CURVE SMOOTH",
"290 550 OFFCURVE",
"324 633 OFFCURVE",
"324 761 CURVE SMOOTH",
"324 844 OFFCURVE",
"319 951 OFFCURVE",
"319 995 CURVE SMOOTH",
"319 1061 OFFCURVE",
"343 1140 OFFCURVE",
"433 1140 CURVE SMOOTH",
"492 1140 LINE SMOOTH",
"503 1140 OFFCURVE",
"512 1144 OFFCURVE",
"526 1156 CURVE SMOOTH",
"552 1178 OFFCURVE",
"566 1188 OFFCURVE",
"594 1217 CURVE SMOOTH",
"605 1228 OFFCURVE",
"605 1235 OFFCURVE",
"605 1236 CURVE SMOOTH",
"605 1242 OFFCURVE",
"598 1245 OFFCURVE",
"587 1245 CURVE SMOOTH",
"383 1245 LINE SMOOTH",
"234 1245 OFFCURVE",
"181 1144 OFFCURVE",
"181 1004 CURVE SMOOTH",
"181 934 OFFCURVE",
"195 835 OFFCURVE",
"195 753 CURVE SMOOTH",
"195 683 OFFCURVE",
"170 609 OFFCURVE",
"104 583 CURVE SMOOTH",
"95 579 OFFCURVE",
"83 570 OFFCURVE",
"83 557 CURVE SMOOTH",
"83 443 LINE",
"83 431 OFFCURVE",
"95 421 OFFCURVE",
"104 417 CURVE SMOOTH",
"170 390 OFFCURVE",
"195 317 OFFCURVE",
"195 248 CURVE SMOOTH",
"195 165 OFFCURVE",
"182 67 OFFCURVE",
"182 -4 CURVE",
"182 -144 OFFCURVE",
"236 -246 OFFCURVE",
"384 -246 CURVE SMOOTH",
"494 -246 LINE SMOOTH",
"505 -246 OFFCURVE",
"514 -242 OFFCURVE",
"528 -229 CURVE SMOOTH",
"553 -208 OFFCURVE",
"567 -197 OFFCURVE",
"596 -169 CURVE SMOOTH",
"607 -158 OFFCURVE",
"607 -151 OFFCURVE",
"607 -149 CURVE SMOOTH",
"607 -144 OFFCURVE",
"600 -140 OFFCURVE",
"589 -140 CURVE SMOOTH"
);
}
);
width = 652;
}
);
unicode = 007B;
userData = {
com.typemytype.robofont.guides = (
{
angle = 0;
isGlobal = 0;
magnetic = 5;
x = 0;
y = 278;
},
{
angle = 90;
isGlobal = 0;
magnetic = 5;
x = 101;
y = 0;
},
{
angle = 90;
isGlobal = 0;
magnetic = 5;
x = 385;
y = 0;
}
);
};
},
{
glyphname = braceright;
lastChange = "2015-11-23 13:46:33 +0000";
layers = (
{
guideLines = (
{
position = "{-80, 569}";
},
{
angle = 90;
position = "{82, 0}";
},
{
angle = 90;
position = "{663, 0}";
}
);
layerId = "07D67BE4-D244-4E4A-8B00-C8B60A440C6D";
name = Light;
paths = (
{
closed = 1;
nodes = (
"218 1140 LINE",
"307 1140 OFFCURVE",
"331 1061 OFFCURVE",
"331 995 CURVE SMOOTH",
"331 951 OFFCURVE",
"326 844 OFFCURVE",
"326 761 CURVE SMOOTH",
"326 633 OFFCURVE",
"360 550 OFFCURVE",
"437 511 CURVE SMOOTH",
"440 509 OFFCURVE",
"442 506 OFFCURVE",
"442 500 CURVE SMOOTH",
"442 494 OFFCURVE",
"440 491 OFFCURVE",
"437 489 CURVE SMOOTH",
"360 450 OFFCURVE",
"326 368 OFFCURVE",
"326 238 CURVE SMOOTH",
"326 156 OFFCURVE",
"331 48 OFFCURVE",
"331 5 CURVE SMOOTH",
"331 -61 OFFCURVE",
"306 -140 OFFCURVE",
"216 -140 CURVE SMOOTH",
"157 -140 LINE SMOOTH",
"146 -140 OFFCURVE",
"138 -144 OFFCURVE",
"123 -156 CURVE SMOOTH",
"98 -178 OFFCURVE",
"83 -188 OFFCURVE",
"55 -217 CURVE SMOOTH",
"44 -228 OFFCURVE",
"44 -235 OFFCURVE",
"44 -236 CURVE SMOOTH",
"44 -242 OFFCURVE",
"51 -246 OFFCURVE",
"62 -246 CURVE SMOOTH",
"266 -246 LINE SMOOTH",
"415 -246 OFFCURVE",
"469 -144 OFFCURVE",
"469 -4 CURVE SMOOTH",
"469 67 OFFCURVE",
"454 165 OFFCURVE",
"454 248 CURVE SMOOTH",
"454 317 OFFCURVE",
"480 390 OFFCURVE",
"546 417 CURVE SMOOTH",
"555 421 OFFCURVE",
"566 431 OFFCURVE",
"566 443 CURVE SMOOTH",
"566 557 LINE SMOOTH",
"566 570 OFFCURVE",
"555 579 OFFCURVE",
"546 583 CURVE SMOOTH",
"480 609 OFFCURVE",
"454 683 OFFCURVE",
"454 753 CURVE SMOOTH",
"454 835 OFFCURVE",
"468 934 OFFCURVE",
"468 1004 CURVE SMOOTH",
"468 1144 OFFCURVE",
"413 1245 OFFCURVE",
"265 1245 CURVE SMOOTH",
"157 1245 LINE SMOOTH",
"146 1245 OFFCURVE",
"138 1242 OFFCURVE",
"123 1229 CURVE SMOOTH",
"98 1208 OFFCURVE",
"83 1197 OFFCURVE",
"55 1168 CURVE SMOOTH",
"44 1158 OFFCURVE",
"44 1151 OFFCURVE",
"44 1149 CURVE SMOOTH",
"44 1144 OFFCURVE",
"51 1140 OFFCURVE",
"62 1140 CURVE SMOOTH"
);
}
);
width = 652;
}
);
unicode = 007D;
userData = {
com.typemytype.robofont.guides = (
{
angle = 0;
isGlobal = 0;
magnetic = 5;
x = 0;
y = 278;
},
{
angle = 90;
isGlobal = 0;
magnetic = 5;
x = 79;
y = 0;
},
{
angle = 90;
isGlobal = 0;
magnetic = 5;
x = 363;
y = 0;
}
);
};
},
{
glyphname = bracketleft;
lastChange = "2015-11-23 13:46:33 +0000";
layers = (
{
layerId = "07D67BE4-D244-4E4A-8B00-C8B60A440C6D";
name = Light;
paths = (
{
closed = 1;
nodes = (
"102 -125 CURVE SMOOTH",
"102 101 OFFCURVE",
"112 326 OFFCURVE",
"112 552 CURVE SMOOTH",
"112 735 OFFCURVE",
"95 1023 OFFCURVE",
"95 1096 CURVE SMOOTH",
"95 1170 OFFCURVE",
"129 1242 OFFCURVE",
"208 1242 CURVE",
"589 1242 LINE",
"600 1242 OFFCURVE",
"607 1242 OFFCURVE",
"607 1236 CURVE SMOOTH",
"607 1235 OFFCURVE",
"605 1231 OFFCURVE",
"601 1228 CURVE SMOOTH",
"579 1199 OFFCURVE",
"550 1168 OFFCURVE",
"524 1151 CURVE SMOOTH",
"510 1140 OFFCURVE",
"505 1138 OFFCURVE",
"494 1138 CURVE",
"295 1138 LINE",
"272 1138 OFFCURVE",
"237 1118 OFFCURVE",
"236 1077 CURVE SMOOTH",
"232 1007 OFFCURVE",
"230 613 OFFCURVE",
"230 541 CURVE SMOOTH",
"230 477 OFFCURVE",
"239 25 OFFCURVE",
"242 -81 CURVE SMOOTH",
"242 -123 OFFCURVE",
"263 -144 OFFCURVE",
"300 -144 CURVE",
"577 -144 LINE",
"596 -144 OFFCURVE",
"605 -145 OFFCURVE",
"605 -152 CURVE SMOOTH",
"605 -156 OFFCURVE",
"603 -158 OFFCURVE",
"594 -171 CURVE SMOOTH",
"579 -190 OFFCURVE",
"553 -221 OFFCURVE",
"526 -238 CURVE SMOOTH",
"516 -246 OFFCURVE",
"505 -246 OFFCURVE",
"492 -246 CURVE SMOOTH",
"256 -246 LINE",
"232 -246 OFFCURVE",
"175 -244 OFFCURVE",
"145 -221 CURVE SMOOTH",
"114 -195 OFFCURVE",
"102 -166 OFFCURVE"
);
}
);
width = 652;
}
);
unicode = 005B;
},
{
glyphname = bracketright;
lastChange = "2015-11-23 13:46:33 +0000";
layers = (
{
layerId = "07D67BE4-D244-4E4A-8B00-C8B60A440C6D";
name = Light;
paths = (
{
closed = 1;
nodes = (
"548 -125 CURVE SMOOTH",
"548 101 OFFCURVE",
"537 326 OFFCURVE",
"537 552 CURVE SMOOTH",
"537 735 OFFCURVE",
"555 1023 OFFCURVE",
"555 1096 CURVE SMOOTH",
"555 1170 OFFCURVE",
"521 1242 OFFCURVE",
"442 1242 CURVE",
"61 1242 LINE",
"49 1242 OFFCURVE",
"42 1242 OFFCURVE",
"42 1236 CURVE SMOOTH",
"42 1235 OFFCURVE",
"44 1231 OFFCURVE",
"48 1228 CURVE SMOOTH",
"71 1199 OFFCURVE",
"100 1168 OFFCURVE",
"125 1151 CURVE SMOOTH",
"139 1140 OFFCURVE",
"145 1138 OFFCURVE",
"155 1138 CURVE",
"355 1138 LINE",
"377 1138 OFFCURVE",
"412 1118 OFFCURVE",
"413 1077 CURVE SMOOTH",
"417 1007 OFFCURVE",
"419 613 OFFCURVE",
"419 541 CURVE SMOOTH",
"419 477 OFFCURVE",
"410 25 OFFCURVE",
"408 -81 CURVE SMOOTH",
"408 -123 OFFCURVE",
"386 -144 OFFCURVE",
"349 -144 CURVE",
"73 -144 LINE",
"53 -144 OFFCURVE",
"44 -145 OFFCURVE",
"44 -152 CURVE SMOOTH",
"44 -156 OFFCURVE",
"48 -161 OFFCURVE",
"53 -169 CURVE SMOOTH",
"71 -188 OFFCURVE",
"111 -229 OFFCURVE",
"123 -238 CURVE SMOOTH",
"134 -246 OFFCURVE",
"145 -246 OFFCURVE",
"157 -246 CURVE SMOOTH",
"394 -246 LINE",
"417 -246 OFFCURVE",
"475 -244 OFFCURVE",
"505 -221 CURVE SMOOTH",
"535 -195 OFFCURVE",
"548 -166 OFFCURVE"
);
}
);
width = 650;
}
);
unicode = 005D;
},
{
glyphname = parenleft;
lastChange = "2015-11-23 13:46:33 +0000";
layers = (
{
layerId = "07D67BE4-D244-4E4A-8B00-C8B60A440C6D";
name = Light;
paths = (
{
closed = 1;
nodes = (
"277 536 CURVE SMOOTH",
"277 439 OFFCURVE",
"300 291 OFFCURVE",
"345 176 CURVE SMOOTH",
"394 48 OFFCURVE",
"456 -46 OFFCURVE",
"512 -127 CURVE SMOOTH",
"519 -138 OFFCURVE",
"524 -147 OFFCURVE",
"524 -159 CURVE SMOOTH",
"524 -165 OFFCURVE",
"524 -172 OFFCURVE",
"521 -179 CURVE SMOOTH",
"497 -228 OFFCURVE",
"471 -272 OFFCURVE",
"451 -299 CURVE SMOOTH",
"446 -306 OFFCURVE",
"439 -310 OFFCURVE",
"433 -310 CURVE SMOOTH",
"426 -310 OFFCURVE",
"420 -306 OFFCURVE",
"415 -299 CURVE SMOOTH",
"356 -221 OFFCURVE",
"268 -97 OFFCURVE",
"208 52 CURVE SMOOTH",
"153 183 OFFCURVE",
"129 349 OFFCURVE",
"129 448 CURVE SMOOTH",
"129 622 OFFCURVE",
"186 744 OFFCURVE",
"234 846 CURVE SMOOTH",
"265 908 OFFCURVE",
"347 1052 OFFCURVE",
"362 1075 CURVE SMOOTH",
"377 1103 OFFCURVE",
"391 1127 OFFCURVE",
"413 1156 CURVE SMOOTH",
"419 1163 OFFCURVE",
"469 1215 OFFCURVE",
"505 1243 CURVE SMOOTH",
"510 1247 OFFCURVE",
"519 1251 OFFCURVE",
"523 1251 CURVE SMOOTH",
"531 1251 OFFCURVE",
"535 1245 OFFCURVE",
"535 1235 CURVE SMOOTH",
"535 1226 OFFCURVE",
"398 970 OFFCURVE",
"384 941 CURVE SMOOTH",
"322 805 OFFCURVE",
"277 669 OFFCURVE"
);
}
);
width = 652;
}
);
unicode = 0028;
},
{
glyphname = parenright;
lastChange = "2015-11-23 13:46:33 +0000";
layers = (
{
layerId = "07D67BE4-D244-4E4A-8B00-C8B60A440C6D";
name = Light;
paths = (
{
closed = 1;
nodes = (
"386 405 CURVE SMOOTH",
"386 501 OFFCURVE",
"363 650 OFFCURVE",
"319 765 CURVE SMOOTH",
"270 893 OFFCURVE",
"208 987 OFFCURVE",
"152 1068 CURVE SMOOTH",
"145 1079 OFFCURVE",
"139 1088 OFFCURVE",
"139 1100 CURVE SMOOTH",
"139 1106 OFFCURVE",
"139 1113 OFFCURVE",
"143 1120 CURVE SMOOTH",
"167 1168 OFFCURVE",
"193 1213 OFFCURVE",
"213 1240 CURVE SMOOTH",
"218 1247 OFFCURVE",
"225 1251 OFFCURVE",
"230 1251 CURVE SMOOTH",
"237 1251 OFFCURVE",
"244 1247 OFFCURVE",
"249 1240 CURVE SMOOTH",
"307 1161 OFFCURVE",
"396 1038 OFFCURVE",
"456 889 CURVE SMOOTH",
"510 758 OFFCURVE",
"535 592 OFFCURVE",
"535 493 CURVE SMOOTH",
"535 319 OFFCURVE",
"482 192 OFFCURVE",
"430 91 CURVE SMOOTH",
"398 29 OFFCURVE",
"321 -111 OFFCURVE",
"306 -135 CURVE SMOOTH",
"290 -161 OFFCURVE",
"273 -186 OFFCURVE",
"251 -215 CURVE SMOOTH",
"245 -222 OFFCURVE",
"195 -274 OFFCURVE",
"159 -303 CURVE SMOOTH",
"153 -306 OFFCURVE",
"145 -310 OFFCURVE",
"141 -310 CURVE SMOOTH",
"132 -310 OFFCURVE",
"129 -305 OFFCURVE",
"129 -294 CURVE SMOOTH",
"129 -285 OFFCURVE",
"266 -29 OFFCURVE",
"279 0 CURVE SMOOTH",
"342 137 OFFCURVE",
"386 272 OFFCURVE"
);
}
);
width = 652;
}
);
unicode = 0029;
},
{
glyphname = emdash;
lastChange = "2015-11-23 13:46:33 +0000";
layers = (
{
layerId = "07D67BE4-D244-4E4A-8B00-C8B60A440C6D";
name = Light;
paths = (
{
closed = 1;
nodes = (
"164 547 CURVE SMOOTH",
"181 561 OFFCURVE",
"193 561 OFFCURVE",
"206 561 CURVE SMOOTH",
"996 561 LINE SMOOTH",
"1015 561 OFFCURVE",
"1022 554 OFFCURVE",
"1022 543 CURVE SMOOTH",
"1022 536 OFFCURVE",
"1017 525 OFFCURVE",
"1012 518 CURVE SMOOTH",
"985 477 OFFCURVE",
"987 477 OFFCURVE",
"958 445 CURVE SMOOTH",
"945 431 OFFCURVE",
"933 431 OFFCURVE",
"914 431 CURVE SMOOTH",
"121 431 LINE SMOOTH",
"102 431 OFFCURVE",
"95 438 OFFCURVE",
"95 446 CURVE SMOOTH",
"95 452 OFFCURVE",
"97 457 OFFCURVE",
"98 460 CURVE SMOOTH",
"126 508 OFFCURVE",
"145 527 OFFCURVE"
);
}
);
width = 1117;
}
);
unicode = 2014;
},
{
glyphname = endash;
lastChange = "2015-11-23 13:46:33 +0000";
layers = (
{
layerId = "07D67BE4-D244-4E4A-8B00-C8B60A440C6D";
name = Light;
paths = (
{
closed = 1;
nodes = (
"164 547 CURVE SMOOTH",
"181 561 OFFCURVE",
"193 561 OFFCURVE",
"206 561 CURVE SMOOTH",
"770 561 LINE SMOOTH",
"790 561 OFFCURVE",
"797 554 OFFCURVE",
"797 543 CURVE SMOOTH",
"797 536 OFFCURVE",
"791 525 OFFCURVE",
"786 518 CURVE SMOOTH",
"759 477 OFFCURVE",
"761 477 OFFCURVE",
"733 445 CURVE SMOOTH",
"720 431 OFFCURVE",
"707 431 OFFCURVE",
"687 431 CURVE SMOOTH",
"121 431 LINE SMOOTH",
"102 431 OFFCURVE",
"95 438 OFFCURVE",
"95 446 CURVE SMOOTH",
"95 452 OFFCURVE",
"97 457 OFFCURVE",
"98 460 CURVE SMOOTH",
"126 508 OFFCURVE",
"145 527 OFFCURVE"
);
}
);
width = 891;
}
);
unicode = 2013;
},
{
glyphname = hyphen;
lastChange = "2015-11-23 13:46:33 +0000";
layers = (
{
layerId = "07D67BE4-D244-4E4A-8B00-C8B60A440C6D";
name = Light;
paths = (
{
closed = 1;
nodes = (
"134 977 CURVE SMOOTH",
"150 991 OFFCURVE",
"162 991 OFFCURVE",
"175 991 CURVE",
"596 991 LINE",
"616 991 OFFCURVE",
"623 984 OFFCURVE",
"623 973 CURVE SMOOTH",
"623 966 OFFCURVE",
"618 956 OFFCURVE",
"612 948 CURVE SMOOTH",
"586 907 OFFCURVE",
"560 869 OFFCURVE",
"531 837 CURVE SMOOTH",
"519 823 OFFCURVE",
"507 823 OFFCURVE",
"487 823 CURVE SMOOTH",
"64 823 LINE",
"44 823 OFFCURVE",
"37 830 OFFCURVE",
"37 838 CURVE SMOOTH",
"37 844 OFFCURVE",
"39 850 OFFCURVE",
"41 853 CURVE SMOOTH",
"69 900 OFFCURVE",
"114 957 OFFCURVE"
);
}
);
width = 650;
}
);
unicode = 002D;
},
{
glyphname = guillemotleft;
lastChange = "2015-11-23 13:46:33 +0000";
layers = (
{
layerId = "07D67BE4-D244-4E4A-8B00-C8B60A440C6D";
name = Light;
paths = (
{
closed = 1;
nodes = (
"134 643 CURVE SMOOTH",
"105 607 OFFCURVE",
"61 543 OFFCURVE",
"39 498 CURVE SMOOTH",
"35 491 OFFCURVE",
"32 480 OFFCURVE",
"32 472 CURVE SMOOTH",
"32 460 OFFCURVE",
"35 450 OFFCURVE",
"48 431 CURVE SMOOTH",
"75 385 OFFCURVE",
"136 317 OFFCURVE",
"184 276 CURVE SMOOTH",
"193 269 OFFCURVE",
"198 267 OFFCURVE",
"202 267 CURVE SMOOTH",
"208 267 OFFCURVE",
"215 270 OFFCURVE",
"220 276 CURVE SMOOTH",
"251 310 OFFCURVE",
"273 347 OFFCURVE",
"286 369 CURVE",
"286 369 OFFCURVE",
"297 389 OFFCURVE",
"297 398 CURVE SMOOTH",
"297 403 OFFCURVE",
"295 412 OFFCURVE",
"290 417 CURVE",
"209 500 LINE",
"204 506 OFFCURVE",
"200 516 OFFCURVE",
"200 522 CURVE SMOOTH",
"200 527 OFFCURVE",
"200 534 OFFCURVE",
"206 543 CURVE SMOOTH",
"227 586 OFFCURVE",
"256 638 OFFCURVE",
"277 683 CURVE SMOOTH",
"281 690 OFFCURVE",
"283 697 OFFCURVE",
"283 703 CURVE SMOOTH",
"283 710 OFFCURVE",
"275 715 OFFCURVE",
"266 715 CURVE SMOOTH",
"263 715 OFFCURVE",
"258 715 OFFCURVE",
"251 711 CURVE SMOOTH",
"236 706 OFFCURVE",
"188 683 OFFCURVE",
"179 677 CURVE SMOOTH",
"167 670 OFFCURVE",
"150 665 OFFCURVE"
);
},
{
closed = 1;
nodes = (
"437 643 CURVE SMOOTH",
"408 607 OFFCURVE",
"363 543 OFFCURVE",
"342 498 CURVE SMOOTH",
"338 491 OFFCURVE",
"335 480 OFFCURVE",
"335 472 CURVE SMOOTH",
"335 460 OFFCURVE",
"338 450 OFFCURVE",
"350 431 CURVE SMOOTH",
"377 385 OFFCURVE",
"439 317 OFFCURVE",
"487 276 CURVE SMOOTH",
"496 269 OFFCURVE",
"501 267 OFFCURVE",
"505 267 CURVE SMOOTH",
"510 267 OFFCURVE",
"517 270 OFFCURVE",
"523 276 CURVE SMOOTH",
"553 310 OFFCURVE",
"577 347 OFFCURVE",
"589 369 CURVE",
"589 369 OFFCURVE",
"600 389 OFFCURVE",
"600 398 CURVE SMOOTH",
"600 403 OFFCURVE",
"598 412 OFFCURVE",
"593 417 CURVE SMOOTH",
"512 500 LINE SMOOTH",
"507 506 OFFCURVE",
"503 516 OFFCURVE",
"503 522 CURVE SMOOTH",
"503 527 OFFCURVE",
"503 534 OFFCURVE",
"509 543 CURVE SMOOTH",
"530 586 OFFCURVE",
"559 638 OFFCURVE",
"580 683 CURVE SMOOTH",
"584 690 OFFCURVE",
"586 697 OFFCURVE",
"586 703 CURVE SMOOTH",
"586 710 OFFCURVE",
"579 715 OFFCURVE",
"569 715 CURVE SMOOTH",
"566 715 OFFCURVE",
"560 715 OFFCURVE",
"553 711 CURVE SMOOTH",
"539 706 OFFCURVE",
"490 683 OFFCURVE",
"482 677 CURVE SMOOTH",
"469 670 OFFCURVE",
"453 665 OFFCURVE"
);
}
);
width = 652;
}
);
unicode = 00AB;
},
{
glyphname = guillemotright;
lastChange = "2015-11-23 13:46:33 +0000";
layers = (
{
layerId = "07D67BE4-D244-4E4A-8B00-C8B60A440C6D";
name = Light;
paths = (
{
closed = 1;
nodes = (
"503 339 CURVE SMOOTH",
"531 375 OFFCURVE",
"573 439 OFFCURVE",
"598 484 CURVE SMOOTH",
"601 491 OFFCURVE",
"605 501 OFFCURVE",
"605 511 CURVE SMOOTH",
"605 522 OFFCURVE",
"601 532 OFFCURVE",
"589 552 CURVE SMOOTH",
"562 597 OFFCURVE",
"501 665 OFFCURVE",
"453 706 CURVE SMOOTH",
"444 713 OFFCURVE",
"439 715 OFFCURVE",
"435 715 CURVE SMOOTH",
"430 715 OFFCURVE",
"422 711 OFFCURVE",
"417 706 CURVE SMOOTH",
"386 672 OFFCURVE",
"363 634 OFFCURVE",
"350 613 CURVE",
"350 613 OFFCURVE",
"340 593 OFFCURVE",
"340 585 CURVE SMOOTH",
"340 579 OFFCURVE",
"342 570 OFFCURVE",
"347 564 CURVE SMOOTH",
"428 482 LINE SMOOTH",
"433 477 OFFCURVE",
"437 466 OFFCURVE",
"437 460 CURVE SMOOTH",
"437 455 OFFCURVE",
"437 448 OFFCURVE",
"432 439 CURVE SMOOTH",
"410 396 OFFCURVE",
"381 344 OFFCURVE",
"360 299 CURVE SMOOTH",
"356 292 OFFCURVE",
"355 285 OFFCURVE",
"355 279 CURVE SMOOTH",
"355 272 OFFCURVE",
"362 267 OFFCURVE",
"370 267 CURVE SMOOTH",
"374 267 OFFCURVE",
"381 269 OFFCURVE",
"391 272 CURVE SMOOTH",
"408 282 OFFCURVE",
"449 299 OFFCURVE",
"458 305 CURVE SMOOTH",
"471 312 OFFCURVE",
"487 317 OFFCURVE"
);
},
{
closed = 1;
nodes = (
"202 339 CURVE SMOOTH",
"230 375 OFFCURVE",
"272 439 OFFCURVE",
"297 484 CURVE SMOOTH",
"300 491 OFFCURVE",
"304 501 OFFCURVE",
"304 511 CURVE SMOOTH",
"304 522 OFFCURVE",
"300 532 OFFCURVE",
"288 552 CURVE SMOOTH",
"261 597 OFFCURVE",
"200 665 OFFCURVE",
"152 706 CURVE SMOOTH",
"143 713 OFFCURVE",
"138 715 OFFCURVE",
"134 715 CURVE SMOOTH",
"129 715 OFFCURVE",
"121 711 OFFCURVE",
"116 706 CURVE SMOOTH",
"85 672 OFFCURVE",
"62 634 OFFCURVE",
"49 613 CURVE",
"49 613 OFFCURVE",
"39 593 OFFCURVE",
"39 585 CURVE SMOOTH",
"39 579 OFFCURVE",
"41 570 OFFCURVE",
"46 564 CURVE SMOOTH",
"126 482 LINE SMOOTH",
"132 477 OFFCURVE",
"136 466 OFFCURVE",
"136 460 CURVE SMOOTH",
"136 455 OFFCURVE",
"136 448 OFFCURVE",
"131 439 CURVE SMOOTH",
"109 396 OFFCURVE",
"80 344 OFFCURVE",
"59 299 CURVE SMOOTH",
"55 292 OFFCURVE",
"53 285 OFFCURVE",
"53 279 CURVE SMOOTH",
"53 272 OFFCURVE",
"61 267 OFFCURVE",
"69 267 CURVE SMOOTH",
"73 267 OFFCURVE",
"80 269 OFFCURVE",
"89 272 CURVE SMOOTH",
"107 282 OFFCURVE",
"148 299 OFFCURVE",
"157 305 CURVE SMOOTH",
"170 312 OFFCURVE",
"186 317 OFFCURVE"
);
}
);
width = 652;
}
);
unicode = 00BB;
},
{
glyphname = guilsinglleft;
lastChange = "2015-11-23 13:46:33 +0000";
layers = (
{
layerId = "07D67BE4-D244-4E4A-8B00-C8B60A440C6D";
name = Light;
paths = (
{
closed = 1;
nodes = (
"134 643 CURVE SMOOTH",
"105 607 OFFCURVE",
"61 543 OFFCURVE",
"39 498 CURVE SMOOTH",
"35 491 OFFCURVE",
"32 480 OFFCURVE",
"32 472 CURVE SMOOTH",
"32 460 OFFCURVE",
"35 450 OFFCURVE",
"48 431 CURVE SMOOTH",
"75 385 OFFCURVE",
"136 317 OFFCURVE",
"184 276 CURVE SMOOTH",
"193 269 OFFCURVE",
"198 267 OFFCURVE",
"202 267 CURVE SMOOTH",
"208 267 OFFCURVE",
"215 270 OFFCURVE",
"220 276 CURVE SMOOTH",
"251 310 OFFCURVE",
"273 347 OFFCURVE",
"286 369 CURVE",
"286 369 OFFCURVE",
"297 389 OFFCURVE",
"297 398 CURVE SMOOTH",
"297 403 OFFCURVE",
"295 412 OFFCURVE",
"290 417 CURVE SMOOTH",
"209 500 LINE SMOOTH",
"204 506 OFFCURVE",
"200 516 OFFCURVE",
"200 522 CURVE SMOOTH",
"200 527 OFFCURVE",
"200 534 OFFCURVE",
"206 543 CURVE SMOOTH",
"227 586 OFFCURVE",
"256 638 OFFCURVE",
"277 683 CURVE SMOOTH",
"281 690 OFFCURVE",
"281 697 OFFCURVE",
"281 703 CURVE SMOOTH",
"281 710 OFFCURVE",
"275 715 OFFCURVE",
"266 715 CURVE SMOOTH",
"263 715 OFFCURVE",
"258 715 OFFCURVE",
"251 711 CURVE SMOOTH",
"236 706 OFFCURVE",
"188 683 OFFCURVE",
"179 677 CURVE SMOOTH",
"167 670 OFFCURVE",
"150 665 OFFCURVE"
);
}
);
width = 334;
}
);
unicode = 2039;
},
{
glyphname = guilsinglright;
lastChange = "2015-11-23 13:46:33 +0000";
layers = (
{
layerId = "07D67BE4-D244-4E4A-8B00-C8B60A440C6D";
name = Light;
paths = (
{
closed = 1;
nodes = (
"200 339 CURVE SMOOTH",
"229 375 OFFCURVE",
"273 439 OFFCURVE",
"295 484 CURVE SMOOTH",
"299 491 OFFCURVE",
"302 501 OFFCURVE",
"302 511 CURVE SMOOTH",
"302 522 OFFCURVE",
"299 532 OFFCURVE",
"286 552 CURVE SMOOTH",
"259 597 OFFCURVE",
"198 665 OFFCURVE",
"150 706 CURVE SMOOTH",
"141 713 OFFCURVE",
"136 715 OFFCURVE",
"132 715 CURVE SMOOTH",
"126 715 OFFCURVE",
"119 711 OFFCURVE",
"114 706 CURVE SMOOTH",
"83 672 OFFCURVE",
"61 634 OFFCURVE",
"48 613 CURVE",
"48 613 OFFCURVE",
"37 593 OFFCURVE",
"37 585 CURVE SMOOTH",
"37 579 OFFCURVE",
"39 570 OFFCURVE",
"44 564 CURVE SMOOTH",
"125 482 LINE SMOOTH",
"131 477 OFFCURVE",
"134 466 OFFCURVE",
"134 460 CURVE SMOOTH",
"134 455 OFFCURVE",
"134 448 OFFCURVE",
"129 439 CURVE SMOOTH",
"107 396 OFFCURVE",
"78 344 OFFCURVE",
"57 299 CURVE SMOOTH",
"53 292 OFFCURVE",
"53 285 OFFCURVE",
"53 279 CURVE SMOOTH",
"53 272 OFFCURVE",
"59 267 OFFCURVE",
"68 267 CURVE SMOOTH",
"71 267 OFFCURVE",
"76 267 OFFCURVE",
"83 270 CURVE SMOOTH",
"98 276 OFFCURVE",
"146 299 OFFCURVE",
"155 305 CURVE SMOOTH",
"168 312 OFFCURVE",
"184 317 OFFCURVE"
);
}
);
width = 334;
}
);
unicode = 203A;
},
{
glyphname = quotedblbase;
lastChange = "2015-11-23 13:46:33 +0000";
layers = (
{
layerId = "07D67BE4-D244-4E4A-8B00-C8B60A440C6D";
name = Light;
paths = (
{
closed = 1;
nodes = (
"209 -22 CURVE SMOOTH",
"209 36 OFFCURVE",
"193 82 OFFCURVE",
"184 108 CURVE SMOOTH",
"182 113 OFFCURVE",
"181 116 OFFCURVE",
"181 122 CURVE SMOOTH",
"181 127 OFFCURVE",
"182 133 OFFCURVE",
"186 138 CURVE SMOOTH",
"206 166 OFFCURVE",
"254 228 OFFCURVE",
"286 265 CURVE SMOOTH",
"292 270 OFFCURVE",
"297 272 OFFCURVE",
"302 272 CURVE SMOOTH",
"307 272 OFFCURVE",
"313 269 OFFCURVE",
"317 263 CURVE SMOOTH",
"333 235 OFFCURVE",
"374 156 OFFCURVE",
"374 81 CURVE SMOOTH",
"374 18 OFFCURVE",
"355 -38 OFFCURVE",
"340 -72 CURVE SMOOTH",
"322 -115 OFFCURVE",
"172 -390 OFFCURVE",
"146 -390 CURVE SMOOTH",
"139 -390 OFFCURVE",
"129 -387 OFFCURVE",
"129 -378 CURVE SMOOTH",
"129 -355 OFFCURVE",
"209 -99 OFFCURVE"
);
},
{
closed = 1;
nodes = (
"661 -22 CURVE SMOOTH",
"661 36 OFFCURVE",
"644 82 OFFCURVE",
"636 108 CURVE SMOOTH",
"634 113 OFFCURVE",
"632 116 OFFCURVE",
"632 122 CURVE SMOOTH",
"632 127 OFFCURVE",
"634 133 OFFCURVE",
"637 138 CURVE SMOOTH",
"657 166 OFFCURVE",
"706 228 OFFCURVE",
"738 265 CURVE SMOOTH",
"743 270 OFFCURVE",
"748 272 OFFCURVE",
"754 272 CURVE SMOOTH",
"759 272 OFFCURVE",
"765 269 OFFCURVE",
"769 263 CURVE SMOOTH",
"784 235 OFFCURVE",
"825 156 OFFCURVE",
"825 81 CURVE SMOOTH",
"825 18 OFFCURVE",
"806 -38 OFFCURVE",
"791 -72 CURVE SMOOTH",
"774 -115 OFFCURVE",
"623 -390 OFFCURVE",
"598 -390 CURVE SMOOTH",
"591 -390 OFFCURVE",
"580 -387 OFFCURVE",
"580 -378 CURVE SMOOTH",
"580 -355 OFFCURVE",
"661 -99 OFFCURVE"
);
}
);
width = 927;
}
);
unicode = 201E;
},
{
glyphname = quotedblleft;
lastChange = "2015-11-23 13:46:33 +0000";
layers = (
{
layerId = "07D67BE4-D244-4E4A-8B00-C8B60A440C6D";
name = Light;
paths = (
{
closed = 1;
nodes = (
"745 753 CURVE SMOOTH",
"745 696 OFFCURVE",
"761 648 OFFCURVE",
"770 624 CURVE SMOOTH",
"772 619 OFFCURVE",
"774 614 OFFCURVE",
"774 609 CURVE SMOOTH",
"774 604 OFFCURVE",
"772 599 OFFCURVE",
"769 593 CURVE SMOOTH",
"748 564 OFFCURVE",
"700 503 OFFCURVE",
"668 466 CURVE SMOOTH",
"663 460 OFFCURVE",
"657 459 OFFCURVE",
"652 459 CURVE SMOOTH",
"646 459 OFFCURVE",
"641 462 OFFCURVE",
"637 468 CURVE SMOOTH",
"622 496 OFFCURVE",
"580 575 OFFCURVE",
"580 650 CURVE SMOOTH",
"580 713 OFFCURVE",
"600 769 OFFCURVE",
"615 803 CURVE SMOOTH",
"632 846 OFFCURVE",
"783 1122 OFFCURVE",
"808 1122 CURVE SMOOTH",
"815 1122 OFFCURVE",
"825 1118 OFFCURVE",
"825 1110 CURVE SMOOTH",
"825 1086 OFFCURVE",
"745 830 OFFCURVE"
);
},
{
closed = 1;
nodes = (
"293 753 CURVE SMOOTH",
"293 696 OFFCURVE",
"309 648 OFFCURVE",
"319 624 CURVE SMOOTH",
"321 619 OFFCURVE",
"322 614 OFFCURVE",
"322 609 CURVE SMOOTH",
"322 604 OFFCURVE",
"321 599 OFFCURVE",
"317 593 CURVE SMOOTH",
"297 564 OFFCURVE",
"249 503 OFFCURVE",
"216 466 CURVE SMOOTH",
"211 460 OFFCURVE",
"206 459 OFFCURVE",
"200 459 CURVE SMOOTH",
"195 459 OFFCURVE",
"189 462 OFFCURVE",
"186 468 CURVE SMOOTH",
"170 496 OFFCURVE",
"129 575 OFFCURVE",
"129 650 CURVE SMOOTH",
"129 713 OFFCURVE",
"148 769 OFFCURVE",
"162 803 CURVE SMOOTH",
"181 846 OFFCURVE",
"331 1122 OFFCURVE",
"356 1122 CURVE SMOOTH",
"363 1122 OFFCURVE",
"374 1118 OFFCURVE",
"374 1110 CURVE SMOOTH",
"374 1086 OFFCURVE",
"293 830 OFFCURVE"
);
}
);
width = 927;
}
);
unicode = 201C;
},
{
glyphname = quotedblright;
lastChange = "2015-11-23 13:46:33 +0000";
layers = (
{
layerId = "07D67BE4-D244-4E4A-8B00-C8B60A440C6D";
name = Light;
paths = (
{
closed = 1;
nodes = (
"182 828 CURVE SMOOTH",
"182 886 OFFCURVE",
"167 932 OFFCURVE",
"157 957 CURVE SMOOTH",
"155 963 OFFCURVE",
"153 966 OFFCURVE",
"153 971 CURVE SMOOTH",
"153 977 OFFCURVE",
"155 982 OFFCURVE",
"159 987 CURVE SMOOTH",
"179 1016 OFFCURVE",
"227 1077 OFFCURVE",
"259 1115 CURVE SMOOTH",
"265 1120 OFFCURVE",
"270 1122 OFFCURVE",
"275 1122 CURVE SMOOTH",
"281 1122 OFFCURVE",
"286 1118 OFFCURVE",
"290 1113 CURVE SMOOTH",
"306 1084 OFFCURVE",
"347 1005 OFFCURVE",
"347 930 CURVE SMOOTH",
"347 867 OFFCURVE",
"328 812 OFFCURVE",
"313 778 CURVE SMOOTH",
"295 735 OFFCURVE",
"145 459 OFFCURVE",
"119 459 CURVE SMOOTH",
"112 459 OFFCURVE",
"102 462 OFFCURVE",
"102 472 CURVE SMOOTH",
"102 494 OFFCURVE",
"182 751 OFFCURVE"
);
},
{
closed = 1;
nodes = (
"634 828 CURVE SMOOTH",
"634 886 OFFCURVE",
"618 932 OFFCURVE",
"608 957 CURVE SMOOTH",
"607 963 OFFCURVE",
"605 966 OFFCURVE",
"605 971 CURVE SMOOTH",
"605 977 OFFCURVE",
"607 982 OFFCURVE",
"610 987 CURVE SMOOTH",
"630 1016 OFFCURVE",
"678 1077 OFFCURVE",
"711 1115 CURVE SMOOTH",
"716 1120 OFFCURVE",
"721 1122 OFFCURVE",
"727 1122 CURVE SMOOTH",
"733 1122 OFFCURVE",
"738 1118 OFFCURVE",
"741 1113 CURVE SMOOTH",
"757 1084 OFFCURVE",
"798 1005 OFFCURVE",
"798 930 CURVE SMOOTH",
"798 867 OFFCURVE",
"779 812 OFFCURVE",
"765 778 CURVE SMOOTH",
"747 735 OFFCURVE",
"596 459 OFFCURVE",
"571 459 CURVE SMOOTH",
"564 459 OFFCURVE",
"553 462 OFFCURVE",
"553 472 CURVE SMOOTH",
"553 494 OFFCURVE",
"634 751 OFFCURVE"
);
}
);
width = 927;
}
);
unicode = 201D;
},
{
glyphname = quoteleft;
lastChange = "2015-11-23 13:46:33 +0000";
layers = (
{
layerId = "07D67BE4-D244-4E4A-8B00-C8B60A440C6D";
name = Light;
paths = (
{
closed = 1;
nodes = (
"293 753 CURVE SMOOTH",
"293 696 OFFCURVE",
"309 648 OFFCURVE",
"319 624 CURVE SMOOTH",
"321 619 OFFCURVE",
"322 614 OFFCURVE",
"322 609 CURVE SMOOTH",
"322 604 OFFCURVE",
"321 599 OFFCURVE",
"317 593 CURVE SMOOTH",
"297 564 OFFCURVE",
"249 503 OFFCURVE",
"216 466 CURVE SMOOTH",
"211 460 OFFCURVE",
"206 459 OFFCURVE",
"200 459 CURVE SMOOTH",
"195 459 OFFCURVE",
"189 462 OFFCURVE",
"186 468 CURVE SMOOTH",
"170 496 OFFCURVE",
"129 575 OFFCURVE",
"129 650 CURVE SMOOTH",
"129 713 OFFCURVE",
"148 769 OFFCURVE",
"162 803 CURVE SMOOTH",
"181 846 OFFCURVE",
"331 1122 OFFCURVE",
"356 1122 CURVE SMOOTH",
"363 1122 OFFCURVE",
"374 1118 OFFCURVE",
"374 1110 CURVE SMOOTH",
"374 1086 OFFCURVE",
"293 830 OFFCURVE"
);
}
);
width = 476;
}
);
unicode = 2018;
},
{
glyphname = quoteright;
lastChange = "2015-11-23 13:46:33 +0000";
layers = (
{
layerId = "07D67BE4-D244-4E4A-8B00-C8B60A440C6D";
name = Light;
paths = (
{
closed = 1;
nodes = (
"182 828 CURVE SMOOTH",
"182 886 OFFCURVE",
"167 932 OFFCURVE",
"157 957 CURVE SMOOTH",
"155 963 OFFCURVE",
"153 966 OFFCURVE",
"153 971 CURVE SMOOTH",
"153 977 OFFCURVE",
"155 982 OFFCURVE",
"159 987 CURVE SMOOTH",
"179 1016 OFFCURVE",
"227 1077 OFFCURVE",
"259 1115 CURVE SMOOTH",
"265 1120 OFFCURVE",
"270 1122 OFFCURVE",
"275 1122 CURVE SMOOTH",
"281 1122 OFFCURVE",
"286 1118 OFFCURVE",
"290 1113 CURVE SMOOTH",
"306 1084 OFFCURVE",
"347 1005 OFFCURVE",
"347 930 CURVE SMOOTH",
"347 867 OFFCURVE",
"328 812 OFFCURVE",
"313 778 CURVE SMOOTH",
"295 735 OFFCURVE",
"145 459 OFFCURVE",
"119 459 CURVE SMOOTH",
"112 459 OFFCURVE",
"102 462 OFFCURVE",
"102 472 CURVE SMOOTH",
"102 494 OFFCURVE",
"182 751 OFFCURVE"
);
}
);
width = 476;
}
);
unicode = 2019;
},
{
glyphname = afii67842;
lastChange = "2015-11-23 13:46:33 +0000";
layers = (
{
guideLines = (
{
angle = 90;
position = "{254, 0}";
}
);
layerId = "07D67BE4-D244-4E4A-8B00-C8B60A440C6D";
name = Light;
paths = (
{
closed = 1;
nodes = (
"206 -63 CURVE SMOOTH",
"206 -77 OFFCURVE",
"209 -93 OFFCURVE",
"230 -93 CURVE SMOOTH",
"273 -93 LINE SMOOTH",
"293 -93 OFFCURVE",
"300 -79 OFFCURVE",
"300 -65 CURVE SMOOTH",
"307 256 OFFCURVE",
"311 383 OFFCURVE",
"311 498 CURVE SMOOTH",
"311 645 OFFCURVE",
"306 853 OFFCURVE",
"300 1086 CURVE SMOOTH",
"300 1100 OFFCURVE",
"293 1115 OFFCURVE",
"273 1115 CURVE SMOOTH",
"230 1115 LINE SMOOTH",
"209 1115 OFFCURVE",
"206 1098 OFFCURVE",
"206 1084 CURVE SMOOTH",
"198 857 OFFCURVE",
"193 645 OFFCURVE",
"193 498 CURVE SMOOTH",
"193 383 OFFCURVE",
"200 214 OFFCURVE"
);
}
);
width = 505;
}
);
unicode = 05C0;
userData = {
com.typemytype.robofont.guides = (
{
angle = 90;
isGlobal = 0;
magnetic = 5;
x = 163;
y = 0;
}
);
};
},
{
glyphname = afii57658;
lastChange = "2015-11-23 13:46:33 +0000";
layers = (
{
layerId = "07D67BE4-D244-4E4A-8B00-C8B60A440C6D";
name = Light;
paths = (
{
closed = 1;
nodes = (
"160 496 CURVE SMOOTH",
"157 500 OFFCURVE",
"157 506 OFFCURVE",
"157 509 CURVE SMOOTH",
"157 516 OFFCURVE",
"159 522 OFFCURVE",
"162 525 CURVE SMOOTH",
"188 550 OFFCURVE",
"244 606 OFFCURVE",
"259 631 CURVE SMOOTH",
"263 634 OFFCURVE",
"266 638 OFFCURVE",
"272 638 CURVE SMOOTH",
"275 638 OFFCURVE",
"279 638 OFFCURVE",
"281 634 CURVE SMOOTH",
"309 600 OFFCURVE",
"363 554 OFFCURVE",
"394 532 CURVE SMOOTH",
"403 527 OFFCURVE",
"405 520 OFFCURVE",
"405 515 CURVE SMOOTH",
"405 509 OFFCURVE",
"403 506 OFFCURVE",
"401 501 CURVE SMOOTH",
"386 479 OFFCURVE",
"322 410 OFFCURVE",
"302 390 CURVE SMOOTH",
"299 387 OFFCURVE",
"295 385 OFFCURVE",
"292 385 CURVE SMOOTH",
"288 385 OFFCURVE",
"285 387 OFFCURVE",
"281 389 CURVE SMOOTH",
"239 416 OFFCURVE",
"175 477 OFFCURVE"
);
},
{
closed = 1;
nodes = (
"160 67 CURVE SMOOTH",
"157 70 OFFCURVE",
"157 75 OFFCURVE",
"157 79 CURVE SMOOTH",
"157 86 OFFCURVE",
"159 91 OFFCURVE",
"162 95 CURVE SMOOTH",
"188 120 OFFCURVE",
"244 176 OFFCURVE",
"259 200 CURVE SMOOTH",
"263 204 OFFCURVE",
"265 208 OFFCURVE",
"270 208 CURVE SMOOTH",
"273 208 OFFCURVE",
"279 207 OFFCURVE",
"281 202 CURVE SMOOTH",
"309 169 OFFCURVE",
"363 122 OFFCURVE",
"394 101 CURVE SMOOTH",
"403 95 OFFCURVE",
"405 89 OFFCURVE",
"405 84 CURVE SMOOTH",
"405 79 OFFCURVE",
"401 75 OFFCURVE",
"399 72 CURVE SMOOTH",
"384 48 OFFCURVE",
"322 -20 OFFCURVE",
"302 -39 CURVE SMOOTH",
"299 -43 OFFCURVE",
"293 -45 OFFCURVE",
"290 -45 CURVE SMOOTH",
"286 -45 OFFCURVE",
"285 -43 OFFCURVE",
"281 -41 CURVE SMOOTH",
"239 -14 OFFCURVE",
"175 46 OFFCURVE"
);
}
);
width = 616;
}
);
unicode = 05C3;
},
{
glyphname = uni05F3;
lastChange = "2015-11-23 13:46:33 +0000";
layers = (
{
layerId = "07D67BE4-D244-4E4A-8B00-C8B60A440C6D";
name = Light;
paths = (
{
closed = 1;
nodes = (
"266 1180 CURVE SMOOTH",
"270 1183 OFFCURVE",
"275 1187 OFFCURVE",
"285 1187 CURVE SMOOTH",
"322 1187 LINE SMOOTH",
"345 1187 OFFCURVE",
"347 1145 OFFCURVE",
"347 1120 CURVE SMOOTH",
"347 1077 OFFCURVE",
"317 1029 OFFCURVE",
"299 1004 CURVE SMOOTH",
"272 963 OFFCURVE",
"75 799 OFFCURVE",
"37 799 CURVE SMOOTH",
"23 799 OFFCURVE",
"13 812 OFFCURVE",
"13 824 CURVE SMOOTH",
"13 830 OFFCURVE",
"18 835 OFFCURVE",
"20 838 CURVE SMOOTH",
"64 907 OFFCURVE",
"204 1113 OFFCURVE"
);
}
);
width = 431;
}
);
unicode = 05F3;
},
{
glyphname = uni05F4;
lastChange = "2015-11-23 13:46:33 +0000";
layers = (
{
layerId = "07D67BE4-D244-4E4A-8B00-C8B60A440C6D";
name = Light;
paths = (
{
closed = 1;
nodes = (
"266 1180 CURVE SMOOTH",
"270 1183 OFFCURVE",
"275 1187 OFFCURVE",
"285 1187 CURVE SMOOTH",
"321 1187 LINE SMOOTH",
"343 1187 OFFCURVE",
"345 1145 OFFCURVE",
"345 1120 CURVE SMOOTH",
"345 1077 OFFCURVE",
"315 1029 OFFCURVE",
"299 1004 CURVE SMOOTH",
"272 963 OFFCURVE",
"73 799 OFFCURVE",
"35 799 CURVE SMOOTH",
"21 799 OFFCURVE",
"13 812 OFFCURVE",
"13 824 CURVE SMOOTH",
"13 830 OFFCURVE",
"18 835 OFFCURVE",
"20 838 CURVE SMOOTH",
"62 907 OFFCURVE",
"202 1113 OFFCURVE"
);
},
{
closed = 1;
nodes = (
"541 1180 CURVE SMOOTH",
"545 1183 OFFCURVE",
"552 1187 OFFCURVE",
"560 1187 CURVE SMOOTH",
"594 1187 LINE SMOOTH",
"618 1187 OFFCURVE",
"620 1145 OFFCURVE",
"620 1120 CURVE SMOOTH",
"620 1077 OFFCURVE",
"591 1031 OFFCURVE",
"574 1005 CURVE SMOOTH",
"548 964 OFFCURVE",
"349 799 OFFCURVE",
"311 799 CURVE SMOOTH",
"299 799 OFFCURVE",
"290 814 OFFCURVE",
"290 826 CURVE SMOOTH",
"290 831 OFFCURVE",
"292 835 OFFCURVE",
"293 838 CURVE SMOOTH",
"336 907 OFFCURVE",
"476 1113 OFFCURVE"
);
}
);
width = 652;
}
);
unicode = 05F4;
},
{
glyphname = afii57645;
lastChange = "2015-11-23 13:46:33 +0000";
layers = (
{
layerId = "07D67BE4-D244-4E4A-8B00-C8B60A440C6D";
name = Light;
paths = (
{
closed = 1;
nodes = (
"125 975 CURVE SMOOTH",
"141 989 OFFCURVE",
"155 989 OFFCURVE",
"168 989 CURVE SMOOTH",
"589 989 LINE SMOOTH",
"608 989 OFFCURVE",
"616 984 OFFCURVE",
"616 973 CURVE SMOOTH",
"616 966 OFFCURVE",
"610 954 OFFCURVE",
"603 942 CURVE SMOOTH",
"574 900 OFFCURVE",
"552 865 OFFCURVE",
"523 833 CURVE SMOOTH",
"510 819 OFFCURVE",
"499 819 OFFCURVE",
"480 819 CURVE SMOOTH",
"57 819 LINE SMOOTH",
"37 819 OFFCURVE",
"30 826 OFFCURVE",
"30 835 CURVE SMOOTH",
"30 841 OFFCURVE",
"32 846 OFFCURVE",
"34 850 CURVE SMOOTH",
"62 896 OFFCURVE",
"105 956 OFFCURVE"
);
}
);
width = 645;
}
);
unicode = 05BE;
},
{
glyphname = Euro;
lastChange = "2015-11-23 13:46:33 +0000";
layers = (
{
guideLines = (
{
position = "{-80, -33}";
},
{
position = "{-80, 1444}";
},
{
position = "{-80, 842}";
},
{
position = "{-80, 727}";
},
{
position = "{-80, 618}";
},
{
position = "{-80, 950}";
},
{
position = "{-80, 150}";
},
{
angle = 90;
position = "{280, 0}";
},
{
angle = 90;
position = "{-105, 0}";
},
{
angle = 90;
position = "{67, 0}";
}
);
layerId = "07D67BE4-D244-4E4A-8B00-C8B60A440C6D";
name = Light;
paths = (
{
closed = 1;
nodes = (
"612 -29 CURVE SMOOTH",
"661 -29 OFFCURVE",
"738 -18 OFFCURVE",
"783 5 CURVE SMOOTH",
"827 29 OFFCURVE",
"890 88 OFFCURVE",
"937 138 CURVE SMOOTH",
"942 145 OFFCURVE",
"951 159 OFFCURVE",
"951 169 CURVE SMOOTH",
"951 176 OFFCURVE",
"945 181 OFFCURVE",
"938 181 CURVE SMOOTH",
"926 181 OFFCURVE",
"795 127 OFFCURVE",
"702 127 CURVE SMOOTH",
"440 127 OFFCURVE",
"275 260 OFFCURVE",
"275 541 CURVE",
"275 541 OFFCURVE",
"555 541 OFFCURVE",
"723 545 CURVE SMOOTH",
"748 545 OFFCURVE",
"806 554 OFFCURVE",
"825 563 CURVE SMOOTH",
"854 575 OFFCURVE",
"878 590 OFFCURVE",
"894 600 CURVE SMOOTH",
"904 607 OFFCURVE",
"919 619 OFFCURVE",
"919 624 CURVE SMOOTH",
"919 631 OFFCURVE",
"914 636 OFFCURVE",
"901 636 CURVE SMOOTH",
"272 636 LINE",
"272 681 OFFCURVE",
"273 703 OFFCURVE",
"275 722 CURVE SMOOTH",
"277 732 OFFCURVE",
"283 735 OFFCURVE",
"286 735 CURVE SMOOTH",
"363 735 OFFCURVE",
"627 737 OFFCURVE",
"743 740 CURVE SMOOTH",
"795 742 OFFCURVE",
"803 746 OFFCURVE",
"840 761 CURVE SMOOTH",
"856 769 OFFCURVE",
"885 783 OFFCURVE",
"904 795 CURVE SMOOTH",
"909 799 OFFCURVE",
"928 814 OFFCURVE",
"928 819 CURVE SMOOTH",
"928 826 OFFCURVE",
"923 831 OFFCURVE",
"909 831 CURVE SMOOTH",
"293 831 LINE",
"288 831 OFFCURVE",
"288 835 OFFCURVE",
"288 838 CURVE SMOOTH",
"288 864 OFFCURVE",
"319 982 OFFCURVE",
"363 1036 CURVE SMOOTH",
"403 1082 OFFCURVE",
"466 1136 OFFCURVE",
"552 1136 CURVE SMOOTH",
"644 1136 OFFCURVE",
"733 1089 OFFCURVE",
"784 1062 CURVE SMOOTH",
"791 1059 OFFCURVE",
"806 1054 OFFCURVE",
"817 1054 CURVE SMOOTH",
"827 1054 OFFCURVE",
"842 1070 OFFCURVE",
"849 1079 CURVE SMOOTH",
"872 1110 OFFCURVE",
"890 1132 OFFCURVE",
"914 1172 CURVE SMOOTH",
"921 1185 OFFCURVE",
"928 1195 OFFCURVE",
"928 1204 CURVE SMOOTH",
"928 1213 OFFCURVE",
"921 1221 OFFCURVE",
"906 1226 CURVE SMOOTH",
"839 1247 OFFCURVE",
"772 1265 OFFCURVE",
"702 1265 CURVE SMOOTH",
"675 1265 OFFCURVE",
"598 1262 OFFCURVE",
"546 1242 CURVE SMOOTH",
"469 1213 OFFCURVE",
"356 1145 OFFCURVE",
"275 1089 CURVE SMOOTH",
"236 1062 OFFCURVE",
"209 1029 OFFCURVE",
"181 985 CURVE SMOOTH",
"152 939 OFFCURVE",
"134 889 OFFCURVE",
"116 835 CURVE SMOOTH",
"114 831 OFFCURVE",
"111 831 OFFCURVE",
"111 831 CURVE",
"111 831 OFFCURVE",
"107 831 OFFCURVE",
"93 831 CURVE SMOOTH",
"68 831 OFFCURVE",
"46 830 OFFCURVE",
"27 817 CURVE",
"-44 771 LINE",
"-56 761 OFFCURVE",
"-64 753 OFFCURVE",
"-64 747 CURVE SMOOTH",
"-64 740 OFFCURVE",
"-60 735 OFFCURVE",
"-47 735 CURVE SMOOTH",
"97 735 LINE",
"89 699 OFFCURVE",
"89 669 OFFCURVE",
"87 636 CURVE",
"71 636 LINE SMOOTH",
"51 636 OFFCURVE",
"25 631 OFFCURVE",
"6 617 CURVE",
"-42 583 LINE SMOOTH",
"-54 571 OFFCURVE",
"-64 561 OFFCURVE",
"-64 554 CURVE SMOOTH",
"-64 547 OFFCURVE",
"-60 541 OFFCURVE",
"-47 541 CURVE SMOOTH",
"89 541 LINE",
"109 217 OFFCURVE",
"281 -29 OFFCURVE"
);
}
);
width = 938;
}
);
unicode = 20AC;
userData = {
com.typemytype.robofont.guides = (
{
angle = 0;
isGlobal = 0;
magnetic = 5;
x = 0;
y = -16;
},
{
angle = 0;
isGlobal = 0;
magnetic = 5;
x = 0;
y = 705;
},
{
angle = 0;
isGlobal = 0;
magnetic = 5;
x = 0;
y = 411;
},
{
angle = 0;
isGlobal = 0;
magnetic = 5;
x = 0;
y = 355;
},
{
angle = 0;
isGlobal = 0;
magnetic = 5;
x = 0;
y = 302;
},
{
angle = 0;
isGlobal = 0;
magnetic = 5;
x = 0;
y = 464;
},
{
angle = 0;
isGlobal = 0;
magnetic = 5;
x = 0;
y = 73;
},
{
angle = 90;
isGlobal = 0;
magnetic = 5;
x = 176;
y = 0;
},
{
angle = 90;
isGlobal = 0;
magnetic = 5;
x = -12;
y = 0;
},
{
angle = 90;
isGlobal = 0;
magnetic = 5;
x = 72;
y = 0;
}
);
};
},
{
glyphname = currency;
lastChange = "2015-11-23 13:46:33 +0000";
layers = (
{
layerId = "07D67BE4-D244-4E4A-8B00-C8B60A440C6D";
name = Light;
paths = (
{
closed = 1;
nodes = (
"890 799 CURVE SMOOTH",
"880 814 OFFCURVE",
"868 831 OFFCURVE",
"883 846 CURVE SMOOTH",
"953 916 OFFCURVE",
"1025 987 OFFCURVE",
"1025 987 CURVE SMOOTH",
"1032 997 OFFCURVE",
"1035 1004 OFFCURVE",
"1035 1009 CURVE SMOOTH",
"1035 1018 OFFCURVE",
"1032 1021 OFFCURVE",
"1027 1029 CURVE SMOOTH",
"985 1067 LINE SMOOTH",
"976 1074 OFFCURVE",
"969 1077 OFFCURVE",
"965 1077 CURVE SMOOTH",
"958 1077 OFFCURVE",
"953 1074 OFFCURVE",
"949 1068 CURVE SMOOTH",
"949 1068 OFFCURVE",
"885 1004 OFFCURVE",
"810 916 CURVE SMOOTH",
"795 903 OFFCURVE",
"784 912 OFFCURVE",
"765 921 CURVE SMOOTH",
"711 954 OFFCURVE",
"629 980 OFFCURVE",
"543 980 CURVE SMOOTH",
"463 980 OFFCURVE",
"376 946 OFFCURVE",
"324 910 CURVE SMOOTH",
"307 896 OFFCURVE",
"299 894 OFFCURVE",
"285 910 CURVE SMOOTH",
"206 993 OFFCURVE",
"150 1057 OFFCURVE",
"150 1057 CURVE SMOOTH",
"145 1065 OFFCURVE",
"138 1068 OFFCURVE",
"134 1068 CURVE SMOOTH",
"125 1068 OFFCURVE",
"118 1065 OFFCURVE",
"111 1057 CURVE SMOOTH",
"71 1018 LINE SMOOTH",
"64 1007 OFFCURVE",
"61 1000 OFFCURVE",
"61 995 CURVE SMOOTH",
"61 987 OFFCURVE",
"64 980 OFFCURVE",
"68 973 CURVE SMOOTH",
"68 973 OFFCURVE",
"125 918 OFFCURVE",
"209 833 CURVE SMOOTH",
"223 821 OFFCURVE",
"222 807 OFFCURVE",
"209 792 CURVE SMOOTH",
"172 732 OFFCURVE",
"143 638 OFFCURVE",
"143 564 CURVE SMOOTH",
"143 477 OFFCURVE",
"175 383 OFFCURVE",
"200 332 CURVE SMOOTH",
"209 315 OFFCURVE",
"215 303 OFFCURVE",
"200 289 CURVE SMOOTH",
"109 195 OFFCURVE",
"42 135 OFFCURVE",
"42 135 CURVE SMOOTH",
"37 127 OFFCURVE",
"34 120 OFFCURVE",
"34 115 CURVE SMOOTH",
"34 106 OFFCURVE",
"37 102 OFFCURVE",
"42 95 CURVE SMOOTH",
"85 50 LINE SMOOTH",
"89 45 OFFCURVE",
"93 43 OFFCURVE",
"102 43 CURVE SMOOTH",
"107 43 OFFCURVE",
"114 45 OFFCURVE",
"123 53 CURVE SMOOTH",
"123 53 OFFCURVE",
"188 115 OFFCURVE",
"273 212 CURVE SMOOTH",
"286 226 OFFCURVE",
"299 221 OFFCURVE",
"313 212 CURVE SMOOTH",
"369 181 OFFCURVE",
"460 152 OFFCURVE",
"528 152 CURVE SMOOTH",
"615 152 OFFCURVE",
"704 188 OFFCURVE",
"757 224 CURVE SMOOTH",
"772 235 OFFCURVE",
"784 240 OFFCURVE",
"797 224 CURVE SMOOTH",
"880 140 OFFCURVE",
"942 72 OFFCURVE",
"942 72 CURVE SMOOTH",
"949 61 OFFCURVE",
"957 60 OFFCURVE",
"960 60 CURVE SMOOTH",
"967 60 OFFCURVE",
"976 65 OFFCURVE",
"981 72 CURVE SMOOTH",
"1022 111 LINE SMOOTH",
"1032 118 OFFCURVE",
"1034 127 OFFCURVE",
"1034 135 CURVE SMOOTH",
"1034 142 OFFCURVE",
"1030 147 OFFCURVE",
"1022 152 CURVE SMOOTH",
"1022 152 OFFCURVE",
"965 212 OFFCURVE",
"880 298 CURVE SMOOTH",
"865 312 OFFCURVE",
"867 323 OFFCURVE",
"880 340 CURVE SMOOTH",
"897 364 OFFCURVE",
"917 400 OFFCURVE",
"926 421 CURVE SMOOTH",
"942 464 OFFCURVE",
"953 516 OFFCURVE",
"953 566 CURVE SMOOTH",
"953 638 OFFCURVE",
"931 742 OFFCURVE"
);
},
{
closed = 1;
nodes = (
"601 299 CURVE SMOOTH",
"396 299 OFFCURVE",
"277 376 OFFCURVE",
"277 581 CURVE SMOOTH",
"277 658 OFFCURVE",
"281 681 OFFCURVE",
"290 713 CURVE SMOOTH",
"309 778 OFFCURVE",
"365 833 OFFCURVE",
"482 833 CURVE SMOOTH",
"750 833 OFFCURVE",
"818 676 OFFCURVE",
"818 516 CURVE SMOOTH",
"818 310 OFFCURVE",
"690 299 OFFCURVE"
);
}
);
width = 1067;
}
);
unicode = 00A4;
},
{
glyphname = dollar;
lastChange = "2015-11-23 13:46:33 +0000";
layers = (
{
layerId = "07D67BE4-D244-4E4A-8B00-C8B60A440C6D";
name = Light;
paths = (
{
closed = 1;
nodes = (
"148 174 CURVE SMOOTH",
"152 178 OFFCURVE",
"157 181 OFFCURVE",
"160 181 CURVE SMOOTH",
"168 181 OFFCURVE",
"175 179 OFFCURVE",
"186 176 CURVE SMOOTH",
"234 159 OFFCURVE",
"336 131 OFFCURVE",
"383 131 CURVE SMOOTH",
"391 131 OFFCURVE",
"398 135 OFFCURVE",
"398 151 CURVE SMOOTH",
"398 276 OFFCURVE",
"399 417 OFFCURVE",
"399 543 CURVE SMOOTH",
"399 550 OFFCURVE",
"396 556 OFFCURVE",
"388 559 CURVE SMOOTH",
"345 579 OFFCURVE",
"215 647 OFFCURVE",
"155 694 CURVE SMOOTH",
"114 724 OFFCURVE",
"80 774 OFFCURVE",
"80 860 CURVE SMOOTH",
"80 934 OFFCURVE",
"100 1002 OFFCURVE",
"152 1072 CURVE SMOOTH",
"206 1145 OFFCURVE",
"242 1195 OFFCURVE",
"363 1238 CURVE SMOOTH",
"374 1242 OFFCURVE",
"379 1245 OFFCURVE",
"379 1257 CURVE SMOOTH",
"379 1292 LINE SMOOTH",
"379 1303 OFFCURVE",
"381 1315 OFFCURVE",
"388 1327 CURVE SMOOTH",
"403 1349 OFFCURVE",
"415 1368 OFFCURVE",
"439 1394 CURVE SMOOTH",
"442 1397 OFFCURVE",
"444 1399 OFFCURVE",
"447 1399 CURVE SMOOTH",
"460 1399 OFFCURVE",
"461 1392 OFFCURVE",
"461 1371 CURVE SMOOTH",
"461 1344 OFFCURVE",
"463 1305 OFFCURVE",
"463 1269 CURVE SMOOTH",
"463 1265 OFFCURVE",
"466 1264 OFFCURVE",
"473 1264 CURVE SMOOTH",
"586 1264 OFFCURVE",
"666 1249 OFFCURVE",
"755 1217 CURVE SMOOTH",
"763 1213 OFFCURVE",
"767 1204 OFFCURVE",
"767 1199 CURVE SMOOTH",
"767 1195 OFFCURVE",
"765 1188 OFFCURVE",
"759 1180 CURVE SMOOTH",
"740 1145 OFFCURVE",
"692 1082 OFFCURVE",
"673 1065 CURVE SMOOTH",
"666 1057 OFFCURVE",
"657 1054 OFFCURVE",
"650 1054 CURVE SMOOTH",
"644 1054 OFFCURVE",
"637 1055 OFFCURVE",
"632 1057 CURVE SMOOTH",
"580 1075 OFFCURVE",
"537 1096 OFFCURVE",
"480 1096 CURVE SMOOTH",
"473 1096 OFFCURVE",
"463 1089 OFFCURVE",
"463 1081 CURVE SMOOTH",
"463 749 LINE",
"463 739 OFFCURVE",
"469 727 OFFCURVE",
"482 720 CURVE SMOOTH",
"528 694 OFFCURVE",
"574 669 OFFCURVE",
"636 638 CURVE SMOOTH",
"741 586 OFFCURVE",
"820 515 OFFCURVE",
"820 395 CURVE SMOOTH",
"820 287 OFFCURVE",
"690 72 OFFCURVE",
"492 -14 CURVE SMOOTH",
"480 -20 OFFCURVE",
"476 -20 OFFCURVE",
"476 -31 CURVE SMOOTH",
"476 -97 OFFCURVE",
"480 -172 OFFCURVE",
"480 -240 CURVE SMOOTH",
"480 -263 OFFCURVE",
"478 -270 OFFCURVE",
"471 -285 CURVE SMOOTH",
"460 -310 OFFCURVE",
"433 -346 OFFCURVE",
"419 -364 CURVE SMOOTH",
"413 -369 OFFCURVE",
"408 -371 OFFCURVE",
"403 -371 CURVE SMOOTH",
"391 -371 OFFCURVE",
"388 -357 OFFCURVE",
"388 -347 CURVE SMOOTH",
"388 -253 OFFCURVE",
"396 -149 OFFCURVE",
"396 -52 CURVE SMOOTH",
"396 -36 OFFCURVE",
"394 -31 OFFCURVE",
"376 -31 CURVE SMOOTH",
"299 -31 OFFCURVE",
"126 -16 OFFCURVE",
"59 22 CURVE SMOOTH",
"49 27 OFFCURVE",
"46 32 OFFCURVE",
"46 39 CURVE SMOOTH",
"46 46 OFFCURVE",
"51 53 OFFCURVE",
"55 61 CURVE SMOOTH",
"80 99 OFFCURVE",
"123 147 OFFCURVE"
);
},
{
closed = 1;
nodes = (
"376 776 CURVE SMOOTH",
"377 774 OFFCURVE",
"379 774 OFFCURVE",
"381 774 CURVE SMOOTH",
"386 774 OFFCURVE",
"392 780 OFFCURVE",
"392 788 CURVE",
"392 831 OFFCURVE",
"384 1016 OFFCURVE",
"384 1074 CURVE SMOOTH",
"384 1089 OFFCURVE",
"379 1096 OFFCURVE",
"367 1096 CURVE SMOOTH",
"275 1096 OFFCURVE",
"204 1036 OFFCURVE",
"204 956 CURVE SMOOTH",
"204 850 OFFCURVE",
"304 814 OFFCURVE"
);
},
{
closed = 1;
nodes = (
"489 127 CURVE SMOOTH",
"517 127 OFFCURVE",
"573 140 OFFCURVE",
"605 169 CURVE SMOOTH",
"632 193 OFFCURVE",
"661 242 OFFCURVE",
"661 292 CURVE SMOOTH",
"661 357 OFFCURVE",
"634 407 OFFCURVE",
"603 431 CURVE SMOOTH",
"577 450 OFFCURVE",
"516 489 OFFCURVE",
"483 506 CURVE SMOOTH",
"482 508 OFFCURVE",
"480 508 OFFCURVE",
"478 508 CURVE SMOOTH",
"473 508 OFFCURVE",
"468 503 OFFCURVE",
"468 496 CURVE SMOOTH",
"468 443 OFFCURVE",
"473 195 OFFCURVE",
"473 145 CURVE SMOOTH",
"473 131 OFFCURVE",
"480 127 OFFCURVE"
);
}
);
width = 936;
}
);
unicode = 0024;
},
{
glyphname = sheqelhebrew;
lastChange = "2015-11-23 13:46:33 +0000";
layers = (
{
layerId = "07D67BE4-D244-4E4A-8B00-C8B60A440C6D";
name = Light;
paths = (
{
closed = 1;
nodes = (
"170 -36 CURVE SMOOTH",
"155 369 OFFCURVE",
"145 662 OFFCURVE",
"91 828 CURVE SMOOTH",
"87 837 OFFCURVE",
"85 848 OFFCURVE",
"85 855 CURVE SMOOTH",
"85 869 OFFCURVE",
"91 880 OFFCURVE",
"95 889 CURVE SMOOTH",
"105 908 OFFCURVE",
"191 1040 OFFCURVE",
"218 1070 CURVE SMOOTH",
"223 1075 OFFCURVE",
"234 1081 OFFCURVE",
"242 1081 CURVE SMOOTH",
"251 1081 OFFCURVE",
"263 1075 OFFCURVE",
"268 1061 CURVE SMOOTH",
"273 1047 OFFCURVE",
"277 1009 OFFCURVE",
"292 1002 CURVE SMOOTH",
"306 993 OFFCURVE",
"338 989 OFFCURVE",
"363 989 CURVE SMOOTH",
"707 989 LINE SMOOTH",
"861 989 OFFCURVE",
"987 918 OFFCURVE",
"987 756 CURVE SMOOTH",
"987 656 OFFCURVE",
"947 552 OFFCURVE",
"890 489 CURVE SMOOTH",
"829 421 OFFCURVE",
"757 368 OFFCURVE",
"692 328 CURVE SMOOTH",
"678 321 OFFCURVE",
"675 312 OFFCURVE",
"675 303 CURVE SMOOTH",
"675 298 OFFCURVE",
"677 289 OFFCURVE",
"678 282 CURVE SMOOTH",
"690 236 OFFCURVE",
"704 200 OFFCURVE",
"718 181 CURVE SMOOTH",
"736 156 OFFCURVE",
"797 137 OFFCURVE",
"839 137 CURVE SMOOTH",
"894 137 OFFCURVE",
"996 185 OFFCURVE",
"1077 253 CURVE SMOOTH",
"1128 298 OFFCURVE",
"1211 417 OFFCURVE",
"1211 563 CURVE SMOOTH",
"1211 674 OFFCURVE",
"1193 785 OFFCURVE",
"1161 869 CURVE SMOOTH",
"1155 886 OFFCURVE",
"1150 900 OFFCURVE",
"1150 912 CURVE SMOOTH",
"1150 927 OFFCURVE",
"1157 937 OFFCURVE",
"1168 951 CURVE SMOOTH",
"1188 978 OFFCURVE",
"1232 1029 OFFCURVE",
"1272 1070 CURVE SMOOTH",
"1277 1075 OFFCURVE",
"1287 1081 OFFCURVE",
"1292 1081 CURVE SMOOTH",
"1299 1081 OFFCURVE",
"1306 1072 OFFCURVE",
"1308 1065 CURVE SMOOTH",
"1347 949 OFFCURVE",
"1364 841 OFFCURVE",
"1364 735 CURVE SMOOTH",
"1364 570 OFFCURVE",
"1292 395 OFFCURVE",
"1211 265 CURVE SMOOTH",
"1098 84 OFFCURVE",
"953 -31 OFFCURVE",
"745 -31 CURVE SMOOTH",
"601 -31 OFFCURVE",
"569 116 OFFCURVE",
"535 284 CURVE SMOOTH",
"521 353 OFFCURVE",
"487 522 OFFCURVE",
"435 590 CURVE SMOOTH",
"432 595 OFFCURVE",
"430 600 OFFCURVE",
"430 604 CURVE SMOOTH",
"430 609 OFFCURVE",
"432 613 OFFCURVE",
"435 620 CURVE SMOOTH",
"451 647 OFFCURVE",
"503 715 OFFCURVE",
"531 744 CURVE SMOOTH",
"541 753 OFFCURVE",
"546 756 OFFCURVE",
"553 756 CURVE SMOOTH",
"566 756 OFFCURVE",
"573 744 OFFCURVE",
"577 737 CURVE SMOOTH",
"622 641 OFFCURVE",
"620 585 OFFCURVE",
"634 513 CURVE SMOOTH",
"646 448 LINE SMOOTH",
"648 441 OFFCURVE",
"654 436 OFFCURVE",
"661 436 CURVE",
"748 436 OFFCURVE",
"831 573 OFFCURVE",
"831 701 CURVE SMOOTH",
"831 761 OFFCURVE",
"815 819 OFFCURVE",
"657 819 CURVE SMOOTH",
"322 819 LINE SMOOTH",
"290 819 OFFCURVE",
"279 797 OFFCURVE",
"279 769 CURVE SMOOTH",
"279 761 OFFCURVE",
"297 513 OFFCURVE",
"297 385 CURVE SMOOTH",
"297 296 OFFCURVE",
"297 229 OFFCURVE",
"292 158 CURVE SMOOTH",
"290 133 OFFCURVE",
"285 111 OFFCURVE",
"277 97 CURVE SMOOTH",
"256 52 OFFCURVE",
"234 7 OFFCURVE",
"193 -39 CURVE SMOOTH",
"186 -46 OFFCURVE",
"182 -46 OFFCURVE",
"179 -46 CURVE SMOOTH",
"174 -46 OFFCURVE",
"170 -41 OFFCURVE"
);
}
);
width = 1447;
}
);
unicode = 20AA;
},
{
glyphname = sterling;
lastChange = "2015-11-23 13:46:33 +0000";
layers = (
{
layerId = "07D67BE4-D244-4E4A-8B00-C8B60A440C6D";
name = Light;
paths = (
{
closed = 1;
nodes = (
"786 1344 CURVE SMOOTH",
"795 1339 OFFCURVE",
"801 1332 OFFCURVE",
"801 1322 CURVE SMOOTH",
"801 1320 OFFCURVE",
"798 1315 OFFCURVE",
"797 1306 CURVE SMOOTH",
"791 1292 OFFCURVE",
"765 1255 OFFCURVE",
"716 1188 CURVE SMOOTH",
"711 1181 OFFCURVE",
"702 1175 OFFCURVE",
"692 1175 CURVE SMOOTH",
"684 1175 OFFCURVE",
"677 1178 OFFCURVE",
"668 1181 CURVE SMOOTH",
"577 1221 OFFCURVE",
"499 1240 OFFCURVE",
"433 1240 CURVE SMOOTH",
"396 1240 OFFCURVE",
"362 1221 OFFCURVE",
"340 1192 CURVE SMOOTH",
"324 1170 OFFCURVE",
"315 1142 OFFCURVE",
"315 1104 CURVE SMOOTH",
"315 1068 OFFCURVE",
"336 964 OFFCURVE",
"376 794 CURVE SMOOTH",
"379 788 OFFCURVE",
"381 785 OFFCURVE",
"383 785 CURVE SMOOTH",
"412 785 OFFCURVE",
"475 785 OFFCURVE",
"569 783 CURVE SMOOTH",
"664 781 OFFCURVE",
"725 781 OFFCURVE",
"752 781 CURVE SMOOTH",
"763 781 OFFCURVE",
"769 776 OFFCURVE",
"769 767 CURVE SMOOTH",
"769 761 OFFCURVE",
"765 756 OFFCURVE",
"761 751 CURVE SMOOTH",
"723 713 OFFCURVE",
"685 679 OFFCURVE",
"650 655 CURVE SMOOTH",
"636 643 OFFCURVE",
"618 638 OFFCURVE",
"594 634 CURVE SMOOTH",
"424 626 LINE SMOOTH",
"419 626 OFFCURVE",
"415 624 OFFCURVE",
"415 620 CURVE SMOOTH",
"433 550 OFFCURVE",
"444 489 OFFCURVE",
"444 441 CURVE SMOOTH",
"444 410 OFFCURVE",
"439 376 OFFCURVE",
"424 339 CURVE SMOOTH",
"396 269 OFFCURVE",
"374 221 OFFCURVE",
"360 190 CURVE",
"360 185 OFFCURVE",
"365 185 OFFCURVE",
"365 185 CURVE SMOOTH",
"460 185 OFFCURVE",
"530 171 OFFCURVE",
"623 158 CURVE SMOOTH",
"661 152 OFFCURVE",
"695 152 OFFCURVE",
"723 152 CURVE SMOOTH",
"804 154 OFFCURVE",
"870 188 OFFCURVE",
"880 188 CURVE SMOOTH",
"887 188 OFFCURVE",
"890 186 OFFCURVE",
"890 179 CURVE SMOOTH",
"890 176 OFFCURVE",
"888 171 OFFCURVE",
"885 163 CURVE SMOOTH",
"858 111 OFFCURVE",
"831 72 OFFCURVE",
"797 27 CURVE SMOOTH",
"786 14 OFFCURVE",
"770 5 OFFCURVE",
"750 -2 CURVE SMOOTH",
"699 -20 OFFCURVE",
"648 -29 OFFCURVE",
"601 -29 CURVE SMOOTH",
"550 -29 OFFCURVE",
"485 -24 OFFCURVE",
"410 -9 CURVE SMOOTH",
"317 7 OFFCURVE",
"244 16 OFFCURVE",
"188 16 CURVE SMOOTH",
"155 16 OFFCURVE",
"119 11 OFFCURVE",
"87 11 CURVE SMOOTH",
"76 11 OFFCURVE",
"71 16 OFFCURVE",
"71 27 CURVE SMOOTH",
"71 43 OFFCURVE",
"97 79 OFFCURVE",
"131 140 CURVE SMOOTH",
"141 158 OFFCURVE",
"157 172 OFFCURVE",
"174 181 CURVE SMOOTH",
"215 207 OFFCURVE",
"244 229 OFFCURVE",
"263 255 CURVE SMOOTH",
"281 277 OFFCURVE",
"290 312 OFFCURVE",
"290 355 CURVE SMOOTH",
"290 376 OFFCURVE",
"286 405 OFFCURVE",
"281 438 CURVE SMOOTH",
"272 496 OFFCURVE",
"259 554 OFFCURVE",
"244 611 CURVE SMOOTH",
"242 619 OFFCURVE",
"237 622 OFFCURVE",
"230 622 CURVE",
"198 622 OFFCURVE",
"177 622 OFFCURVE",
"148 620 CURVE SMOOTH",
"119 620 OFFCURVE",
"102 619 OFFCURVE",
"98 619 CURVE SMOOTH",
"87 619 OFFCURVE",
"82 624 OFFCURVE",
"82 633 CURVE SMOOTH",
"82 638 OFFCURVE",
"85 643 OFFCURVE",
"89 648 CURVE SMOOTH",
"131 696 OFFCURVE",
"164 735 OFFCURVE",
"191 763 CURVE SMOOTH",
"193 767 OFFCURVE",
"195 773 OFFCURVE",
"195 783 CURVE SMOOTH",
"193 790 OFFCURVE",
"193 792 OFFCURVE",
"193 792 CURVE SMOOTH",
"177 857 LINE SMOOTH",
"168 896 OFFCURVE",
"162 928 OFFCURVE",
"162 951 CURVE SMOOTH",
"162 1029 OFFCURVE",
"189 1103 OFFCURVE",
"242 1180 CURVE SMOOTH",
"259 1204 OFFCURVE",
"290 1236 OFFCURVE",
"331 1272 CURVE SMOOTH",
"370 1305 OFFCURVE",
"403 1330 OFFCURVE",
"430 1344 CURVE SMOOTH",
"489 1378 OFFCURVE",
"545 1396 OFFCURVE",
"603 1396 CURVE SMOOTH",
"675 1396 OFFCURVE",
"734 1376 OFFCURVE"
);
}
);
width = 938;
}
);
unicode = 00A3;
},
{
glyphname = divide;
lastChange = "2015-11-23 13:46:33 +0000";
layers = (
{
components = (
{
name = minus;
}
);
layerId = "07D67BE4-D244-4E4A-8B00-C8B60A440C6D";
name = Light;
paths = (
{
closed = 1;
nodes = (
"560 835 CURVE SMOOTH",
"560 788 OFFCURVE",
"519 749 OFFCURVE",
"473 749 CURVE SMOOTH",
"422 749 OFFCURVE",
"383 788 OFFCURVE",
"383 835 CURVE SMOOTH",
"383 884 OFFCURVE",
"422 923 OFFCURVE",
"473 923 CURVE SMOOTH",
"519 923 OFFCURVE",
"560 884 OFFCURVE"
);
},
{
closed = 1;
nodes = (
"559 298 CURVE SMOOTH",
"559 251 OFFCURVE",
"517 212 OFFCURVE",
"471 212 CURVE SMOOTH",
"420 212 OFFCURVE",
"381 251 OFFCURVE",
"381 298 CURVE SMOOTH",
"381 346 OFFCURVE",
"420 385 OFFCURVE",
"471 385 CURVE SMOOTH",
"517 385 OFFCURVE",
"559 346 OFFCURVE"
);
}
);
width = 938;
}
);
unicode = 00F7;
},
{
glyphname = equal;
lastChange = "2015-11-23 13:46:33 +0000";
layers = (
{
guideLines = (
{
angle = 90;
position = "{946, 0}";
}
);
layerId = "07D67BE4-D244-4E4A-8B00-C8B60A440C6D";
name = Light;
paths = (
{
closed = 1;
nodes = (
"107 835 CURVE",
"83 835 OFFCURVE",
"78 824 OFFCURVE",
"78 807 CURVE SMOOTH",
"78 730 LINE SMOOTH",
"78 713 OFFCURVE",
"83 703 OFFCURVE",
"107 703 CURVE SMOOTH",
"107 703 OFFCURVE",
"403 708 OFFCURVE",
"501 708 CURVE SMOOTH",
"584 708 OFFCURVE",
"831 703 OFFCURVE",
"831 703 CURVE",
"854 703 OFFCURVE",
"860 713 OFFCURVE",
"860 730 CURVE SMOOTH",
"860 807 LINE SMOOTH",
"860 831 OFFCURVE",
"851 835 OFFCURVE",
"834 835 CURVE SMOOTH",
"834 835 OFFCURVE",
"600 830 OFFCURVE",
"497 830 CURVE SMOOTH",
"381 830 OFFCURVE",
"107 835 OFFCURVE"
);
},
{
closed = 1;
nodes = (
"107 446 CURVE",
"83 446 OFFCURVE",
"78 436 OFFCURVE",
"78 417 CURVE SMOOTH",
"78 340 LINE SMOOTH",
"78 325 OFFCURVE",
"83 313 OFFCURVE",
"107 313 CURVE SMOOTH",
"107 313 OFFCURVE",
"403 319 OFFCURVE",
"501 319 CURVE SMOOTH",
"584 319 OFFCURVE",
"831 313 OFFCURVE",
"831 313 CURVE",
"854 313 OFFCURVE",
"860 325 OFFCURVE",
"860 340 CURVE SMOOTH",
"860 417 LINE SMOOTH",
"860 443 OFFCURVE",
"846 446 OFFCURVE",
"834 446 CURVE SMOOTH",
"834 446 OFFCURVE",
"600 441 OFFCURVE",
"497 441 CURVE SMOOTH",
"381 441 OFFCURVE",
"107 446 OFFCURVE"
);
}
);
width = 938;
}
);
unicode = 003D;
userData = {
com.typemytype.robofont.guides = (
{
angle = 90;
isGlobal = 0;
magnetic = 5;
x = 501;
y = 0;
}
);
};
},
{
glyphname = greater;
lastChange = "2015-11-23 13:46:33 +0000";
layers = (
{
layerId = "07D67BE4-D244-4E4A-8B00-C8B60A440C6D";
name = Light;
paths = (
{
closed = 1;
nodes = (
"829 503 LINE",
"849 515 OFFCURVE",
"860 522 OFFCURVE",
"860 537 CURVE SMOOTH",
"860 597 LINE SMOOTH",
"860 614 OFFCURVE",
"847 622 OFFCURVE",
"829 631 CURVE SMOOTH",
"765 665 OFFCURVE",
"582 760 OFFCURVE",
"501 807 CURVE SMOOTH",
"413 857 OFFCURVE",
"162 1005 OFFCURVE",
"162 1005 CURVE SMOOTH",
"159 1007 OFFCURVE",
"153 1009 OFFCURVE",
"148 1009 CURVE SMOOTH",
"141 1009 OFFCURVE",
"132 1005 OFFCURVE",
"125 993 CURVE SMOOTH",
"87 921 LINE SMOOTH",
"83 916 OFFCURVE",
"82 912 OFFCURVE",
"82 907 CURVE SMOOTH",
"82 900 OFFCURVE",
"87 893 OFFCURVE",
"98 884 CURVE SMOOTH",
"98 884 OFFCURVE",
"362 751 OFFCURVE",
"433 710 CURVE SMOOTH",
"675 570 LINE",
"598 523 OFFCURVE",
"496 464 OFFCURVE",
"433 428 CURVE SMOOTH",
"345 378 OFFCURVE",
"91 249 OFFCURVE",
"91 249 CURVE SMOOTH",
"85 246 OFFCURVE",
"76 238 OFFCURVE",
"76 226 CURVE SMOOTH",
"76 221 OFFCURVE",
"78 215 OFFCURVE",
"82 210 CURVE SMOOTH",
"125 142 LINE SMOOTH",
"131 133 OFFCURVE",
"134 127 OFFCURVE",
"143 127 CURVE SMOOTH",
"148 127 OFFCURVE",
"155 129 OFFCURVE",
"162 133 CURVE SMOOTH",
"162 133 OFFCURVE",
"432 294 OFFCURVE",
"507 333 CURVE SMOOTH"
);
}
);
width = 938;
}
);
unicode = 003E;
},
{
glyphname = greaterequal;
lastChange = "2015-11-23 13:46:33 +0000";
layers = (
{
layerId = "07D67BE4-D244-4E4A-8B00-C8B60A440C6D";
name = Light;
paths = (
{
closed = 1;
nodes = (
"815 137 CURVE",
"839 137 OFFCURVE",
"844 125 OFFCURVE",
"844 108 CURVE SMOOTH",
"844 31 LINE SMOOTH",
"844 14 OFFCURVE",
"839 4 OFFCURVE",
"815 4 CURVE SMOOTH",
"815 4 OFFCURVE",
"564 9 OFFCURVE",
"466 9 CURVE SMOOTH",
"383 9 OFFCURVE",
"121 4 OFFCURVE",
"121 4 CURVE",
"98 4 OFFCURVE",
"93 14 OFFCURVE",
"93 31 CURVE SMOOTH",
"93 108 LINE SMOOTH",
"93 133 OFFCURVE",
"107 137 OFFCURVE",
"118 137 CURVE SMOOTH",
"118 137 OFFCURVE",
"367 131 OFFCURVE",
"469 131 CURVE SMOOTH",
"586 131 OFFCURVE",
"815 137 OFFCURVE"
);
},
{
closed = 1;
nodes = (
"813 527 CURVE",
"795 520 OFFCURVE",
"625 448 OFFCURVE",
"519 398 CURVE SMOOTH",
"428 355 OFFCURVE",
"167 219 OFFCURVE",
"167 219 CURVE",
"162 217 OFFCURVE",
"159 217 OFFCURVE",
"153 217 CURVE SMOOTH",
"146 217 OFFCURVE",
"138 221 OFFCURVE",
"131 235 CURVE SMOOTH",
"98 305 LINE SMOOTH",
"97 310 OFFCURVE",
"95 315 OFFCURVE",
"95 319 CURVE SMOOTH",
"95 326 OFFCURVE",
"98 333 OFFCURVE",
"112 340 CURVE",
"112 340 OFFCURVE",
"326 438 OFFCURVE",
"401 473 CURVE SMOOTH",
"458 498 OFFCURVE",
"574 557 OFFCURVE",
"656 597 CURVE",
"574 638 OFFCURVE",
"458 696 OFFCURVE",
"401 722 CURVE SMOOTH",
"326 758 OFFCURVE",
"112 855 OFFCURVE",
"112 855 CURVE",
"98 862 OFFCURVE",
"95 869 OFFCURVE",
"95 876 CURVE SMOOTH",
"95 880 OFFCURVE",
"97 886 OFFCURVE",
"98 891 CURVE SMOOTH",
"131 961 LINE SMOOTH",
"138 975 OFFCURVE",
"146 978 OFFCURVE",
"153 978 CURVE SMOOTH",
"159 978 OFFCURVE",
"162 978 OFFCURVE",
"167 977 CURVE",
"167 977 OFFCURVE",
"396 860 OFFCURVE",
"487 817 CURVE SMOOTH",
"608 760 OFFCURVE",
"702 718 OFFCURVE",
"813 670 CURVE SMOOTH",
"831 663 OFFCURVE",
"844 655 OFFCURVE",
"844 636 CURVE SMOOTH",
"844 561 LINE SMOOTH",
"844 545 OFFCURVE",
"832 537 OFFCURVE"
);
}
);
width = 938;
}
);
unicode = 2265;
},
{
glyphname = less;
lastChange = "2015-11-23 13:46:33 +0000";
layers = (
{
guideLines = (
{
position = "{-80, 172}";
},
{
angle = 90;
position = "{72, 0}";
},
{
angle = 90;
position = "{1032, 0}";
}
);
layerId = "07D67BE4-D244-4E4A-8B00-C8B60A440C6D";
name = Light;
paths = (
{
closed = 1;
nodes = (
"473 319 CURVE",
"560 269 OFFCURVE",
"763 151 OFFCURVE",
"763 151 CURVE SMOOTH",
"769 147 OFFCURVE",
"774 145 OFFCURVE",
"779 145 CURVE SMOOTH",
"786 145 OFFCURVE",
"791 151 OFFCURVE",
"798 163 CURVE SMOOTH",
"836 231 LINE",
"840 236 OFFCURVE",
"842 240 OFFCURVE",
"842 246 CURVE SMOOTH",
"842 253 OFFCURVE",
"839 260 OFFCURVE",
"825 267 CURVE SMOOTH",
"825 267 OFFCURVE",
"605 383 OFFCURVE",
"533 423 CURVE SMOOTH",
"480 453 OFFCURVE",
"360 520 OFFCURVE",
"277 568 CURVE",
"531 711 LINE SMOOTH",
"603 751 OFFCURVE",
"824 867 OFFCURVE",
"824 867 CURVE SMOOTH",
"836 874 OFFCURVE",
"840 882 OFFCURVE",
"840 889 CURVE SMOOTH",
"840 894 OFFCURVE",
"839 898 OFFCURVE",
"834 903 CURVE",
"797 971 LINE SMOOTH",
"790 984 OFFCURVE",
"784 989 OFFCURVE",
"777 989 CURVE SMOOTH",
"772 989 OFFCURVE",
"767 987 OFFCURVE",
"761 984 CURVE SMOOTH",
"761 984 OFFCURVE",
"559 865 OFFCURVE",
"471 816 CURVE SMOOTH",
"369 760 OFFCURVE",
"266 701 OFFCURVE",
"125 631 CURVE SMOOTH",
"105 622 OFFCURVE",
"95 617 OFFCURVE",
"95 597 CURVE SMOOTH",
"95 537 LINE SMOOTH",
"95 516 OFFCURVE",
"111 513 OFFCURVE",
"123 506 CURVE SMOOTH",
"168 480 OFFCURVE",
"473 319 OFFCURVE"
);
}
);
width = 938;
}
);
unicode = 003C;
userData = {
com.typemytype.robofont.guides = (
{
angle = 0;
isGlobal = 0;
magnetic = 5;
x = 0;
y = 84;
},
{
angle = 90;
isGlobal = 0;
magnetic = 5;
x = 74;
y = 0;
},
{
angle = 90;
isGlobal = 0;
magnetic = 5;
x = 543;
y = 0;
}
);
};
},
{
glyphname = lessequal;
lastChange = "2015-11-23 13:46:33 +0000";
layers = (
{
guideLines = (
{
position = "{-80, 682}";
},
{
position = "{-80, 1116}";
},
{
angle = 90;
position = "{57, 0}";
},
{
angle = 90;
position = "{1018, 0}";
},
{
angle = 90;
position = "{930, 0}";
}
);
layerId = "07D67BE4-D244-4E4A-8B00-C8B60A440C6D";
name = Light;
paths = (
{
closed = 1;
nodes = (
"121 137 CURVE",
"98 137 OFFCURVE",
"93 125 OFFCURVE",
"93 108 CURVE SMOOTH",
"93 31 LINE SMOOTH",
"93 14 OFFCURVE",
"98 4 OFFCURVE",
"121 4 CURVE SMOOTH",
"121 4 OFFCURVE",
"372 9 OFFCURVE",
"471 9 CURVE SMOOTH",
"553 9 OFFCURVE",
"815 4 OFFCURVE",
"815 4 CURVE",
"839 4 OFFCURVE",
"844 14 OFFCURVE",
"844 31 CURVE SMOOTH",
"844 108 LINE SMOOTH",
"844 133 OFFCURVE",
"829 137 OFFCURVE",
"818 137 CURVE SMOOTH",
"818 137 OFFCURVE",
"569 131 OFFCURVE",
"468 131 CURVE SMOOTH",
"350 131 OFFCURVE",
"121 137 OFFCURVE"
);
},
{
closed = 1;
nodes = (
"123 527 CURVE",
"141 520 OFFCURVE",
"311 448 OFFCURVE",
"417 398 CURVE SMOOTH",
"509 355 OFFCURVE",
"770 219 OFFCURVE",
"770 219 CURVE",
"774 217 OFFCURVE",
"777 217 OFFCURVE",
"783 217 CURVE SMOOTH",
"790 217 OFFCURVE",
"798 221 OFFCURVE",
"806 235 CURVE SMOOTH",
"839 305 LINE SMOOTH",
"840 310 OFFCURVE",
"842 315 OFFCURVE",
"842 319 CURVE SMOOTH",
"842 326 OFFCURVE",
"839 333 OFFCURVE",
"824 340 CURVE",
"824 340 OFFCURVE",
"610 438 OFFCURVE",
"535 473 CURVE SMOOTH",
"478 498 OFFCURVE",
"362 557 OFFCURVE",
"281 597 CURVE",
"362 638 OFFCURVE",
"478 696 OFFCURVE",
"535 722 CURVE SMOOTH",
"610 758 OFFCURVE",
"824 855 OFFCURVE",
"824 855 CURVE",
"839 862 OFFCURVE",
"842 869 OFFCURVE",
"842 876 CURVE SMOOTH",
"842 880 OFFCURVE",
"840 886 OFFCURVE",
"839 891 CURVE SMOOTH",
"806 961 LINE SMOOTH",
"798 975 OFFCURVE",
"790 978 OFFCURVE",
"783 978 CURVE SMOOTH",
"777 978 OFFCURVE",
"774 978 OFFCURVE",
"770 977 CURVE",
"770 977 OFFCURVE",
"541 860 OFFCURVE",
"449 817 CURVE SMOOTH",
"328 760 OFFCURVE",
"234 718 OFFCURVE",
"123 670 CURVE SMOOTH",
"105 663 OFFCURVE",
"93 655 OFFCURVE",
"93 636 CURVE SMOOTH",
"93 561 LINE SMOOTH",
"93 545 OFFCURVE",
"104 537 OFFCURVE"
);
}
);
width = 938;
}
);
unicode = 2264;
userData = {
com.typemytype.robofont.guides = (
{
angle = 0;
isGlobal = 0;
magnetic = 5;
x = 0;
y = 333;
},
{
angle = 0;
isGlobal = 0;
magnetic = 5;
x = 0;
y = 545;
},
{
angle = 90;
isGlobal = 0;
magnetic = 5;
x = 67;
y = 0;
},
{
angle = 90;
isGlobal = 0;
magnetic = 5;
x = 536;
y = 0;
},
{
angle = 90;
isGlobal = 0;
magnetic = 5;
x = 493;
y = 0;
}
);
};
},
{
glyphname = logicalnot;
lastChange = "2015-11-23 13:46:33 +0000";
layers = (
{
layerId = "07D67BE4-D244-4E4A-8B00-C8B60A440C6D";
name = Light;
paths = (
{
closed = 1;
nodes = (
"770 624 CURVE SMOOTH",
"641 626 OFFCURVE",
"105 631 OFFCURVE",
"105 631 CURVE",
"82 631 OFFCURVE",
"76 620 OFFCURVE",
"76 602 CURVE SMOOTH",
"76 529 LINE SMOOTH",
"76 513 OFFCURVE",
"82 501 OFFCURVE",
"105 501 CURVE SMOOTH",
"105 501 OFFCURVE",
"553 509 OFFCURVE",
"678 511 CURVE",
"677 380 OFFCURVE",
"673 199 OFFCURVE",
"673 199 CURVE",
"673 176 OFFCURVE",
"684 171 OFFCURVE",
"702 171 CURVE SMOOTH",
"776 171 LINE SMOOTH",
"791 171 OFFCURVE",
"803 176 OFFCURVE",
"803 199 CURVE SMOOTH",
"803 199 OFFCURVE",
"797 468 OFFCURVE",
"795 595 CURVE",
"795 620 OFFCURVE",
"786 624 OFFCURVE"
);
}
);
width = 895;
}
);
unicode = 00AC;
},
{
glyphname = minus;
lastChange = "2015-11-23 13:46:33 +0000";
layers = (
{
layerId = "07D67BE4-D244-4E4A-8B00-C8B60A440C6D";
name = Light;
paths = (
{
closed = 1;
nodes = (
"107 638 CURVE",
"83 638 OFFCURVE",
"78 627 OFFCURVE",
"78 609 CURVE SMOOTH",
"78 532 LINE SMOOTH",
"78 516 OFFCURVE",
"83 506 OFFCURVE",
"107 506 CURVE SMOOTH",
"107 506 OFFCURVE",
"403 511 OFFCURVE",
"501 511 CURVE SMOOTH",
"584 511 OFFCURVE",
"831 506 OFFCURVE",
"831 506 CURVE",
"854 506 OFFCURVE",
"860 516 OFFCURVE",
"860 532 CURVE SMOOTH",
"860 609 LINE SMOOTH",
"860 634 OFFCURVE",
"846 638 OFFCURVE",
"834 638 CURVE SMOOTH",
"839 638 OFFCURVE",
"610 633 OFFCURVE",
"497 633 CURVE SMOOTH",
"381 633 OFFCURVE",
"107 638 OFFCURVE"
);
}
);
width = 938;
}
);
unicode = 2212;
},
{
glyphname = multiply;
lastChange = "2015-11-23 13:46:33 +0000";
layers = (
{
guideLines = (
{
position = "{-80, 1083}";
},
{
position = "{-80, 188}";
}
);
layerId = "07D67BE4-D244-4E4A-8B00-C8B60A440C6D";
name = Light;
paths = (
{
closed = 1;
nodes = (
"754 186 CURVE",
"761 178 OFFCURVE",
"769 176 OFFCURVE",
"774 176 CURVE SMOOTH",
"781 176 OFFCURVE",
"788 179 OFFCURVE",
"795 186 CURVE SMOOTH",
"849 240 LINE SMOOTH",
"856 246 OFFCURVE",
"860 253 OFFCURVE",
"860 260 CURVE SMOOTH",
"860 265 OFFCURVE",
"856 272 OFFCURVE",
"849 279 CURVE SMOOTH",
"849 279 OFFCURVE",
"650 470 OFFCURVE",
"560 559 CURVE",
"629 626 OFFCURVE",
"842 838 OFFCURVE",
"842 838 CURVE",
"849 846 OFFCURVE",
"853 853 OFFCURVE",
"853 858 CURVE SMOOTH",
"853 865 OFFCURVE",
"849 871 OFFCURVE",
"844 879 CURVE SMOOTH",
"788 932 LINE SMOOTH",
"779 941 OFFCURVE",
"772 944 OFFCURVE",
"767 944 CURVE SMOOTH",
"761 944 OFFCURVE",
"755 941 OFFCURVE",
"750 935 CURVE SMOOTH",
"750 935 OFFCURVE",
"552 724 OFFCURVE",
"473 645 CURVE",
"403 715 OFFCURVE",
"196 930 OFFCURVE",
"196 930 CURVE",
"189 937 OFFCURVE",
"182 941 OFFCURVE",
"177 941 CURVE SMOOTH",
"170 941 OFFCURVE",
"162 937 OFFCURVE",
"157 930 CURVE SMOOTH",
"104 876 LINE SMOOTH",
"95 867 OFFCURVE",
"93 860 OFFCURVE",
"93 855 CURVE SMOOTH",
"93 848 OFFCURVE",
"97 843 OFFCURVE",
"100 838 CURVE SMOOTH",
"100 838 OFFCURVE",
"306 638 OFFCURVE",
"386 559 CURVE",
"295 470 OFFCURVE",
"89 274 OFFCURVE",
"89 274 CURVE",
"82 267 OFFCURVE",
"78 260 OFFCURVE",
"78 255 CURVE SMOOTH",
"78 248 OFFCURVE",
"82 242 OFFCURVE",
"89 235 CURVE SMOOTH",
"143 179 LINE SMOOTH",
"150 174 OFFCURVE",
"155 171 OFFCURVE",
"162 171 CURVE SMOOTH",
"168 171 OFFCURVE",
"175 174 OFFCURVE",
"182 181 CURVE SMOOTH",
"182 181 OFFCURVE",
"386 382 OFFCURVE",
"473 473 CURVE",
"564 378 OFFCURVE",
"754 186 OFFCURVE"
);
}
);
width = 938;
}
);
unicode = 00D7;
userData = {
com.typemytype.robofont.guides = (
{
angle = 0;
isGlobal = 0;
magnetic = 5;
x = 0;
y = 529;
},
{
angle = 0;
isGlobal = 0;
magnetic = 5;
x = 0;
y = 92;
}
);
};
},
{
glyphname = percent;
lastChange = "2015-11-23 13:46:33 +0000";
layers = (
{
layerId = "07D67BE4-D244-4E4A-8B00-C8B60A440C6D";
name = Light;
paths = (
{
closed = 1;
nodes = (
"75 949 CURVE SMOOTH",
"75 1045 OFFCURVE",
"102 1089 OFFCURVE",
"116 1113 CURVE SMOOTH",
"143 1158 OFFCURVE",
"222 1245 OFFCURVE",
"283 1281 CURVE SMOOTH",
"302 1292 OFFCURVE",
"328 1301 OFFCURVE",
"358 1301 CURVE SMOOTH",
"391 1301 OFFCURVE",
"410 1292 OFFCURVE",
"432 1278 CURVE SMOOTH",
"507 1224 OFFCURVE",
"528 1145 OFFCURVE",
"528 1050 CURVE SMOOTH",
"528 966 OFFCURVE",
"489 867 OFFCURVE",
"461 817 CURVE SMOOTH",
"435 767 OFFCURVE",
"370 667 OFFCURVE",
"272 667 CURVE SMOOTH",
"209 667 OFFCURVE",
"153 708 OFFCURVE",
"129 747 CURVE SMOOTH",
"109 778 OFFCURVE",
"75 831 OFFCURVE"
);
},
{
closed = 1;
nodes = (
"396 586 CURVE SMOOTH",
"553 848 OFFCURVE",
"695 1124 OFFCURVE",
"723 1190 CURVE SMOOTH",
"733 1211 OFFCURVE",
"740 1222 OFFCURVE",
"757 1235 CURVE SMOOTH",
"793 1260 OFFCURVE",
"813 1272 OFFCURVE",
"840 1289 CURVE SMOOTH",
"849 1294 OFFCURVE",
"860 1296 OFFCURVE",
"865 1296 CURVE SMOOTH",
"872 1296 OFFCURVE",
"876 1292 OFFCURVE",
"876 1285 CURVE SMOOTH",
"876 1276 OFFCURVE",
"872 1267 OFFCURVE",
"868 1257 CURVE SMOOTH",
"851 1204 OFFCURVE",
"552 692 OFFCURVE",
"510 624 CURVE SMOOTH",
"460 539 OFFCURVE",
"290 255 OFFCURVE",
"237 135 CURVE SMOOTH",
"218 86 OFFCURVE",
"208 65 OFFCURVE",
"191 52 CURVE SMOOTH",
"162 29 OFFCURVE",
"129 9 OFFCURVE",
"109 2 CURVE SMOOTH",
"105 0 OFFCURVE",
"100 0 OFFCURVE",
"97 0 CURVE SMOOTH",
"83 0 OFFCURVE",
"76 5 OFFCURVE",
"76 18 CURVE SMOOTH",
"76 24 OFFCURVE",
"78 29 OFFCURVE",
"82 36 CURVE SMOOTH",
"143 151 OFFCURVE",
"256 349 OFFCURVE"
);
},
{
closed = 1;
nodes = (
"403 948 CURVE SMOOTH",
"403 1002 OFFCURVE",
"392 1077 OFFCURVE",
"383 1096 CURVE SMOOTH",
"358 1149 OFFCURVE",
"317 1163 OFFCURVE",
"275 1163 CURVE SMOOTH",
"216 1163 OFFCURVE",
"196 1081 OFFCURVE",
"196 1002 CURVE SMOOTH",
"196 908 OFFCURVE",
"230 816 OFFCURVE",
"311 816 CURVE SMOOTH",
"379 816 OFFCURVE",
"403 855 OFFCURVE"
);
},
{
closed = 1;
nodes = (
"422 287 CURVE SMOOTH",
"424 376 OFFCURVE",
"453 423 OFFCURVE",
"468 445 CURVE SMOOTH",
"499 491 OFFCURVE",
"566 570 OFFCURVE",
"634 609 CURVE SMOOTH",
"654 620 OFFCURVE",
"677 631 OFFCURVE",
"707 631 CURVE SMOOTH",
"731 631 OFFCURVE",
"755 624 OFFCURVE",
"788 602 CURVE SMOOTH",
"856 556 OFFCURVE",
"878 459 OFFCURVE",
"878 380 CURVE SMOOTH",
"878 296 OFFCURVE",
"839 197 OFFCURVE",
"811 147 CURVE SMOOTH",
"784 97 OFFCURVE",
"720 -4 OFFCURVE",
"622 -4 CURVE SMOOTH",
"557 -4 OFFCURVE",
"505 38 OFFCURVE",
"478 77 CURVE SMOOTH",
"461 101 OFFCURVE",
"422 156 OFFCURVE"
);
},
{
closed = 1;
nodes = (
"754 277 CURVE SMOOTH",
"754 332 OFFCURVE",
"741 405 OFFCURVE",
"733 424 CURVE SMOOTH",
"709 477 OFFCURVE",
"664 493 OFFCURVE",
"623 493 CURVE SMOOTH",
"566 493 OFFCURVE",
"546 410 OFFCURVE",
"546 325 CURVE SMOOTH",
"546 233 OFFCURVE",
"582 145 OFFCURVE",
"659 145 CURVE SMOOTH",
"729 145 OFFCURVE",
"754 185 OFFCURVE"
);
}
);
width = 936;
}
);
unicode = 0025;
},
{
glyphname = plus;
lastChange = "2015-11-23 13:46:33 +0000";
layers = (
{
guideLines = (
{
angle = 90;
position = "{506, 0}";
},
{
angle = 90;
position = "{555, 0}";
}
);
layerId = "07D67BE4-D244-4E4A-8B00-C8B60A440C6D";
name = Light;
paths = (
{
closed = 1;
nodes = (
"399 199 CURVE",
"399 176 OFFCURVE",
"410 171 OFFCURVE",
"428 171 CURVE SMOOTH",
"505 171 LINE SMOOTH",
"521 171 OFFCURVE",
"531 176 OFFCURVE",
"531 199 CURVE SMOOTH",
"531 199 OFFCURVE",
"528 378 OFFCURVE",
"526 506 CURVE",
"623 503 OFFCURVE",
"831 500 OFFCURVE",
"831 500 CURVE",
"854 500 OFFCURVE",
"860 511 OFFCURVE",
"860 527 CURVE SMOOTH",
"860 604 LINE SMOOTH",
"860 629 OFFCURVE",
"851 633 OFFCURVE",
"834 633 CURVE SMOOTH",
"834 633 OFFCURVE",
"637 627 OFFCURVE",
"526 627 CURVE",
"526 727 OFFCURVE",
"531 923 OFFCURVE",
"531 923 CURVE",
"531 946 OFFCURVE",
"521 951 OFFCURVE",
"505 951 CURVE SMOOTH",
"428 951 LINE SMOOTH",
"403 951 OFFCURVE",
"399 937 OFFCURVE",
"399 927 CURVE SMOOTH",
"399 927 OFFCURVE",
"403 740 OFFCURVE",
"405 627 CURVE",
"275 629 OFFCURVE",
"107 633 OFFCURVE",
"107 633 CURVE",
"83 633 OFFCURVE",
"78 622 OFFCURVE",
"78 604 CURVE SMOOTH",
"78 527 LINE SMOOTH",
"78 511 OFFCURVE",
"83 500 OFFCURVE",
"107 500 CURVE SMOOTH",
"107 500 OFFCURVE",
"279 503 OFFCURVE",
"405 506 CURVE",
"403 375 OFFCURVE",
"399 199 OFFCURVE"
);
}
);
width = 938;
}
);
unicode = 002B;
userData = {
com.typemytype.robofont.guides = (
{
angle = 90;
isGlobal = 0;
magnetic = 5;
x = 286;
y = 0;
},
{
angle = 90;
isGlobal = 0;
magnetic = 5;
x = 310;
y = 0;
}
);
};
},
{
glyphname = plusminus;
lastChange = "2015-11-23 13:46:33 +0000";
layers = (
{
guideLines = (
{
position = "{-80, 682}";
},
{
angle = 90;
position = "{502, 0}";
}
);
layerId = "07D67BE4-D244-4E4A-8B00-C8B60A440C6D";
name = Light;
paths = (
{
closed = 1;
nodes = (
"403 244 CURVE",
"403 221 OFFCURVE",
"413 215 OFFCURVE",
"432 215 CURVE SMOOTH",
"509 215 LINE SMOOTH",
"524 215 OFFCURVE",
"535 221 OFFCURVE",
"535 244 CURVE SMOOTH",
"535 244 OFFCURVE",
"531 412 OFFCURVE",
"530 539 CURVE",
"627 537 OFFCURVE",
"815 534 OFFCURVE",
"815 534 CURVE",
"839 534 OFFCURVE",
"844 545 OFFCURVE",
"844 561 CURVE SMOOTH",
"844 638 LINE SMOOTH",
"844 663 OFFCURVE",
"834 667 OFFCURVE",
"818 667 CURVE SMOOTH",
"818 667 OFFCURVE",
"641 662 OFFCURVE",
"530 662 CURVE",
"530 761 OFFCURVE",
"535 948 OFFCURVE",
"535 948 CURVE",
"535 971 OFFCURVE",
"524 977 OFFCURVE",
"509 977 CURVE SMOOTH",
"432 977 LINE SMOOTH",
"406 977 OFFCURVE",
"403 963 OFFCURVE",
"403 951 CURVE SMOOTH",
"403 951 OFFCURVE",
"406 774 OFFCURVE",
"408 662 CURVE",
"279 663 OFFCURVE",
"121 667 OFFCURVE",
"121 667 CURVE",
"98 667 OFFCURVE",
"93 656 OFFCURVE",
"93 638 CURVE SMOOTH",
"93 561 LINE SMOOTH",
"93 545 OFFCURVE",
"98 534 OFFCURVE",
"121 534 CURVE SMOOTH",
"121 534 OFFCURVE",
"283 537 OFFCURVE",
"408 539 CURVE",
"406 409 OFFCURVE",
"403 244 OFFCURVE"
);
},
{
closed = 1;
nodes = (
"121 137 CURVE",
"98 137 OFFCURVE",
"93 125 OFFCURVE",
"93 108 CURVE SMOOTH",
"93 31 LINE SMOOTH",
"93 14 OFFCURVE",
"98 4 OFFCURVE",
"121 4 CURVE SMOOTH",
"121 4 OFFCURVE",
"372 9 OFFCURVE",
"471 9 CURVE SMOOTH",
"553 9 OFFCURVE",
"815 4 OFFCURVE",
"815 4 CURVE",
"839 4 OFFCURVE",
"844 14 OFFCURVE",
"844 31 CURVE SMOOTH",
"844 108 LINE SMOOTH",
"844 133 OFFCURVE",
"829 137 OFFCURVE",
"818 137 CURVE SMOOTH",
"818 137 OFFCURVE",
"569 131 OFFCURVE",
"468 131 CURVE SMOOTH",
"350 131 OFFCURVE",
"121 137 OFFCURVE"
);
}
);
width = 938;
}
);
unicode = 00B1;
userData = {
com.typemytype.robofont.guides = (
{
angle = 0;
isGlobal = 0;
magnetic = 5;
x = 0;
y = 333;
},
{
angle = 90;
isGlobal = 0;
magnetic = 5;
x = 284;
y = 0;
}
);
};
},
{
glyphname = radical;
lastChange = "2015-11-23 13:46:33 +0000";
layers = (
{
layerId = "07D67BE4-D244-4E4A-8B00-C8B60A440C6D";
name = Light;
paths = (
{
closed = 1;
nodes = (
"360 108 CURVE SMOOTH",
"322 61 OFFCURVE",
"225 11 OFFCURVE",
"143 -22 CURVE SMOOTH",
"134 -25 OFFCURVE",
"126 -27 OFFCURVE",
"125 -27 CURVE SMOOTH",
"118 -27 OFFCURVE",
"114 -22 OFFCURVE",
"114 -11 CURVE SMOOTH",
"114 7 OFFCURVE",
"152 104 OFFCURVE",
"159 123 CURVE SMOOTH",
"164 135 OFFCURVE",
"170 145 OFFCURVE",
"179 152 CURVE SMOOTH",
"206 174 OFFCURVE",
"247 186 OFFCURVE",
"292 210 CURVE SMOOTH",
"321 224 OFFCURVE",
"349 244 OFFCURVE",
"365 277 CURVE SMOOTH",
"412 373 OFFCURVE",
"412 539 OFFCURVE",
"412 629 CURVE SMOOTH",
"412 688 OFFCURVE",
"406 711 OFFCURVE",
"369 744 CURVE SMOOTH",
"322 783 OFFCURVE",
"263 812 OFFCURVE",
"223 857 CURVE SMOOTH",
"193 891 OFFCURVE",
"189 937 OFFCURVE",
"189 993 CURVE SMOOTH",
"189 1050 OFFCURVE",
"186 1132 OFFCURVE",
"159 1199 CURVE SMOOTH",
"155 1208 OFFCURVE",
"153 1213 OFFCURVE",
"153 1217 CURVE SMOOTH",
"153 1224 OFFCURVE",
"159 1231 OFFCURVE",
"164 1240 CURVE SMOOTH",
"188 1279 OFFCURVE",
"227 1328 OFFCURVE",
"251 1351 CURVE SMOOTH",
"254 1355 OFFCURVE",
"258 1358 OFFCURVE",
"261 1358 CURVE SMOOTH",
"266 1358 OFFCURVE",
"273 1353 OFFCURVE",
"281 1342 CURVE SMOOTH",
"307 1303 OFFCURVE",
"322 1219 OFFCURVE",
"322 1152 CURVE SMOOTH",
"322 1054 OFFCURVE",
"328 1012 OFFCURVE",
"363 984 CURVE SMOOTH",
"476 891 OFFCURVE",
"566 819 OFFCURVE",
"670 724 CURVE SMOOTH",
"831 573 OFFCURVE",
"887 511 OFFCURVE",
"887 511 CURVE",
"890 509 OFFCURVE",
"894 506 OFFCURVE",
"899 506 CURVE SMOOTH",
"902 506 OFFCURVE",
"906 508 OFFCURVE",
"909 513 CURVE SMOOTH",
"951 570 OFFCURVE",
"969 677 OFFCURVE",
"969 746 CURVE SMOOTH",
"969 790 OFFCURVE",
"960 848 OFFCURVE",
"930 905 CURVE SMOOTH",
"926 912 OFFCURVE",
"923 918 OFFCURVE",
"923 925 CURVE SMOOTH",
"923 930 OFFCURVE",
"924 937 OFFCURVE",
"928 942 CURVE SMOOTH",
"949 975 OFFCURVE",
"1015 1047 OFFCURVE",
"1042 1074 CURVE SMOOTH",
"1048 1079 OFFCURVE",
"1049 1082 OFFCURVE",
"1058 1082 CURVE SMOOTH",
"1063 1082 OFFCURVE",
"1066 1079 OFFCURVE",
"1068 1077 CURVE SMOOTH",
"1100 1034 OFFCURVE",
"1138 964 OFFCURVE",
"1138 869 CURVE SMOOTH",
"1138 790 OFFCURVE",
"1114 727 OFFCURVE",
"1096 681 CURVE SMOOTH",
"1073 619 OFFCURVE",
"1019 525 OFFCURVE",
"978 464 CURVE SMOOTH",
"969 450 OFFCURVE",
"967 439 OFFCURVE",
"967 439 CURVE",
"967 434 OFFCURVE",
"971 426 OFFCURVE",
"974 423 CURVE SMOOTH",
"1025 369 OFFCURVE",
"1222 156 OFFCURVE",
"1236 135 CURVE SMOOTH",
"1239 129 OFFCURVE",
"1241 123 OFFCURVE",
"1241 118 CURVE SMOOTH",
"1241 115 OFFCURVE",
"1241 109 OFFCURVE",
"1239 104 CURVE SMOOTH",
"1229 72 OFFCURVE",
"1193 -7 OFFCURVE",
"1181 -32 CURVE SMOOTH",
"1177 -39 OFFCURVE",
"1171 -45 OFFCURVE",
"1166 -45 CURVE SMOOTH",
"1161 -45 OFFCURVE",
"1157 -41 OFFCURVE",
"1152 -36 CURVE SMOOTH",
"1071 67 OFFCURVE",
"971 181 OFFCURVE",
"921 233 CURVE SMOOTH",
"801 359 OFFCURVE",
"687 473 OFFCURVE",
"571 573 CURVE SMOOTH",
"567 577 OFFCURVE",
"562 581 OFFCURVE",
"557 581 CURVE SMOOTH",
"550 581 OFFCURVE",
"545 575 OFFCURVE",
"543 566 CURVE SMOOTH",
"519 443 OFFCURVE",
"460 229 OFFCURVE"
);
}
);
width = 1286;
}
);
unicode = 221A;
},
{
glyphname = bar;
lastChange = "2015-11-23 13:46:33 +0000";
layers = (
{
layerId = "07D67BE4-D244-4E4A-8B00-C8B60A440C6D";
name = Light;
paths = (
{
closed = 1;
nodes = (
"206 -277 CURVE SMOOTH",
"206 -292 OFFCURVE",
"209 -308 OFFCURVE",
"230 -308 CURVE SMOOTH",
"273 -308 LINE SMOOTH",
"293 -308 OFFCURVE",
"300 -294 OFFCURVE",
"300 -279 CURVE SMOOTH",
"307 41 OFFCURVE",
"311 405 OFFCURVE",
"311 520 CURVE SMOOTH",
"311 667 OFFCURVE",
"306 1057 OFFCURVE",
"300 1291 CURVE SMOOTH",
"300 1305 OFFCURVE",
"293 1319 OFFCURVE",
"273 1319 CURVE SMOOTH",
"230 1319 LINE SMOOTH",
"209 1319 OFFCURVE",
"206 1303 OFFCURVE",
"206 1289 CURVE SMOOTH",
"198 1061 OFFCURVE",
"193 667 OFFCURVE",
"193 520 CURVE SMOOTH",
"193 405 OFFCURVE",
"200 -2 OFFCURVE"
);
}
);
width = 505;
}
);
},
{
glyphname = ampersand;
lastChange = "2015-11-23 13:46:33 +0000";
layers = (
{
layerId = "07D67BE4-D244-4E4A-8B00-C8B60A440C6D";
name = Light;
paths = (
{
closed = 1;
nodes = (
"299 975 CURVE SMOOTH",
"299 942 OFFCURVE",
"302 900 OFFCURVE",
"315 865 CURVE SMOOTH",
"340 799 OFFCURVE",
"362 765 OFFCURVE",
"377 740 CURVE",
"342 717 OFFCURVE",
"153 577 OFFCURVE",
"153 369 CURVE SMOOTH",
"153 106 OFFCURVE",
"358 0 OFFCURVE",
"499 0 CURVE SMOOTH",
"652 0 OFFCURVE",
"770 81 OFFCURVE",
"844 131 CURVE",
"854 115 OFFCURVE",
"926 29 OFFCURVE",
"949 5 CURVE SMOOTH",
"951 4 OFFCURVE",
"957 -2 OFFCURVE",
"965 -2 CURVE SMOOTH",
"971 -2 OFFCURVE",
"983 2 OFFCURVE",
"989 5 CURVE SMOOTH",
"1037 31 OFFCURVE",
"1098 67 OFFCURVE",
"1114 77 CURVE SMOOTH",
"1118 79 OFFCURVE",
"1119 81 OFFCURVE",
"1119 82 CURVE SMOOTH",
"1119 86 OFFCURVE",
"1112 93 OFFCURVE",
"1107 99 CURVE SMOOTH",
"1058 149 OFFCURVE",
"1017 200 OFFCURVE",
"979 249 CURVE",
"1068 361 OFFCURVE",
"1128 464 OFFCURVE",
"1128 606 CURVE SMOOTH",
"1128 679 OFFCURVE",
"1105 761 OFFCURVE",
"1089 792 CURVE SMOOTH",
"1084 801 OFFCURVE",
"1080 805 OFFCURVE",
"1075 805 CURVE SMOOTH",
"1071 805 OFFCURVE",
"1070 803 OFFCURVE",
"1064 797 CURVE SMOOTH",
"1042 778 OFFCURVE",
"969 706 OFFCURVE",
"945 681 CURVE SMOOTH",
"938 674 OFFCURVE",
"937 669 OFFCURVE",
"937 663 CURVE SMOOTH",
"937 660 OFFCURVE",
"938 656 OFFCURVE",
"940 650 CURVE SMOOTH",
"953 624 OFFCURVE",
"985 568 OFFCURVE",
"985 489 CURVE SMOOTH",
"985 428 OFFCURVE",
"955 357 OFFCURVE",
"921 315 CURVE",
"804 460 OFFCURVE",
"692 611 OFFCURVE",
"564 783 CURVE",
"644 844 OFFCURVE",
"776 964 OFFCURVE",
"776 1082 CURVE SMOOTH",
"776 1229 OFFCURVE",
"690 1289 OFFCURVE",
"607 1291 CURVE",
"569 1291 OFFCURVE",
"526 1278 OFFCURVE",
"485 1255 CURVE SMOOTH",
"386 1199 OFFCURVE",
"299 1084 OFFCURVE"
);
},
{
closed = 1;
nodes = (
"514 1170 CURVE SMOOTH",
"569 1170 OFFCURVE",
"630 1111 OFFCURVE",
"630 1045 CURVE SMOOTH",
"630 964 OFFCURVE",
"584 910 OFFCURVE",
"517 858 CURVE",
"475 932 OFFCURVE",
"419 1009 OFFCURVE",
"419 1093 CURVE SMOOTH",
"419 1152 OFFCURVE",
"475 1170 OFFCURVE"
);
},
{
closed = 1;
nodes = (
"432 665 CURVE",
"461 614 OFFCURVE",
"734 262 OFFCURVE",
"791 199 CURVE",
"769 179 OFFCURVE",
"697 127 OFFCURVE",
"600 127 CURVE SMOOTH",
"426 127 OFFCURVE",
"304 256 OFFCURVE",
"304 414 CURVE SMOOTH",
"304 556 OFFCURVE",
"396 641 OFFCURVE"
);
}
);
width = 1273;
}
);
unicode = 0026;
},
{
glyphname = paragraph;
lastChange = "2015-11-23 13:46:33 +0000";
layers = (
{
layerId = "07D67BE4-D244-4E4A-8B00-C8B60A440C6D";
name = Light;
paths = (
{
closed = 1;
nodes = (
"456 487 CURVE SMOOTH",
"456 468 OFFCURVE",
"446 462 OFFCURVE",
"439 462 CURVE SMOOTH",
"428 462 OFFCURVE",
"405 464 OFFCURVE",
"392 466 CURVE SMOOTH",
"279 482 OFFCURVE",
"209 556 OFFCURVE",
"209 658 CURVE SMOOTH",
"209 758 OFFCURVE",
"266 823 OFFCURVE",
"384 823 CURVE SMOOTH",
"426 823 OFFCURVE",
"440 809 OFFCURVE",
"442 776 CURVE SMOOTH",
"446 720 OFFCURVE",
"456 547 OFFCURVE"
);
},
{
closed = 1;
nodes = (
"612 823 CURVE SMOOTH",
"644 823 OFFCURVE",
"664 812 OFFCURVE",
"664 794 CURVE SMOOTH",
"671 633 OFFCURVE",
"685 55 OFFCURVE",
"690 -63 CURVE SMOOTH",
"690 -77 OFFCURVE",
"697 -86 OFFCURVE",
"707 -86 CURVE SMOOTH",
"716 -86 OFFCURVE",
"725 -81 OFFCURVE",
"736 -67 CURVE SMOOTH",
"752 -43 OFFCURVE",
"770 -14 OFFCURVE",
"783 16 CURVE SMOOTH",
"793 43 OFFCURVE",
"795 68 OFFCURVE",
"795 99 CURVE SMOOTH",
"795 236 OFFCURVE",
"783 532 OFFCURVE",
"783 763 CURVE SMOOTH",
"783 803 OFFCURVE",
"791 819 OFFCURVE",
"832 819 CURVE SMOOTH",
"872 819 OFFCURVE",
"892 830 OFFCURVE",
"906 851 CURVE SMOOTH",
"921 871 OFFCURVE",
"935 900 OFFCURVE",
"949 928 CURVE SMOOTH",
"957 944 OFFCURVE",
"960 961 OFFCURVE",
"960 968 CURVE SMOOTH",
"960 985 OFFCURVE",
"945 989 OFFCURVE",
"914 989 CURVE SMOOTH",
"415 989 LINE SMOOTH",
"145 989 OFFCURVE",
"62 841 OFFCURVE",
"62 699 CURVE SMOOTH",
"62 631 OFFCURVE",
"83 557 OFFCURVE",
"126 501 CURVE SMOOTH",
"208 398 OFFCURVE",
"365 373 OFFCURVE",
"444 364 CURVE SMOOTH",
"456 362 OFFCURVE",
"463 353 OFFCURVE",
"463 342 CURVE SMOOTH",
"471 183 OFFCURVE",
"473 55 OFFCURVE",
"476 -63 CURVE SMOOTH",
"476 -77 OFFCURVE",
"483 -86 OFFCURVE",
"494 -86 CURVE SMOOTH",
"503 -86 OFFCURVE",
"510 -81 OFFCURVE",
"523 -67 CURVE SMOOTH",
"539 -46 OFFCURVE",
"560 -14 OFFCURVE",
"571 12 CURVE SMOOTH",
"582 39 OFFCURVE",
"584 61 OFFCURVE",
"584 91 CURVE SMOOTH",
"584 253 OFFCURVE",
"574 638 OFFCURVE",
"569 783 CURVE SMOOTH",
"567 812 OFFCURVE",
"580 823 OFFCURVE"
);
}
);
width = 956;
}
);
unicode = 00B6;
},
{
glyphname = section;
lastChange = "2015-11-23 13:46:33 +0000";
layers = (
{
layerId = "07D67BE4-D244-4E4A-8B00-C8B60A440C6D";
name = Light;
paths = (
{
closed = 1;
nodes = (
"93 82 CURVE SMOOTH",
"136 50 OFFCURVE",
"251 -5 OFFCURVE",
"347 0 CURVE SMOOTH",
"463 7 OFFCURVE",
"610 166 OFFCURVE",
"607 260 CURVE SMOOTH",
"603 351 OFFCURVE",
"537 371 OFFCURVE",
"537 387 CURVE SMOOTH",
"537 396 OFFCURVE",
"564 419 OFFCURVE",
"589 452 CURVE SMOOTH",
"612 484 OFFCURVE",
"654 547 OFFCURVE",
"654 600 CURVE SMOOTH",
"654 722 OFFCURVE",
"557 799 OFFCURVE",
"349 912 CURVE SMOOTH",
"220 984 OFFCURVE",
"198 1027 OFFCURVE",
"198 1065 CURVE SMOOTH",
"198 1096 OFFCURVE",
"232 1138 OFFCURVE",
"283 1138 CURVE SMOOTH",
"349 1138 OFFCURVE",
"430 1081 OFFCURVE",
"482 1033 CURVE SMOOTH",
"501 1012 OFFCURVE",
"509 1014 OFFCURVE",
"523 1014 CURVE SMOOTH",
"535 1014 OFFCURVE",
"584 1079 OFFCURVE",
"598 1108 CURVE SMOOTH",
"608 1129 OFFCURVE",
"593 1154 OFFCURVE",
"553 1175 CURVE SMOOTH",
"505 1201 OFFCURVE",
"449 1240 OFFCURVE",
"333 1240 CURVE SMOOTH",
"206 1240 OFFCURVE",
"78 1131 OFFCURVE",
"78 1009 CURVE SMOOTH",
"78 918 OFFCURVE",
"160 891 OFFCURVE",
"160 872 CURVE SMOOTH",
"160 865 OFFCURVE",
"132 844 OFFCURVE",
"112 819 CURVE SMOOTH",
"85 785 OFFCURVE",
"53 730 OFFCURVE",
"53 676 CURVE SMOOTH",
"53 554 OFFCURVE",
"170 457 OFFCURVE",
"362 337 CURVE SMOOTH",
"478 267 OFFCURVE",
"485 242 OFFCURVE",
"485 202 CURVE SMOOTH",
"485 165 OFFCURVE",
"447 111 OFFCURVE",
"405 111 CURVE SMOOTH",
"328 111 OFFCURVE",
"227 165 OFFCURVE",
"174 212 CURVE SMOOTH",
"152 229 OFFCURVE",
"146 228 OFFCURVE",
"132 228 CURVE SMOOTH",
"119 228 OFFCURVE",
"85 179 OFFCURVE",
"71 149 CURVE SMOOTH",
"57 120 OFFCURVE",
"59 109 OFFCURVE"
);
},
{
closed = 1;
nodes = (
"213 833 CURVE",
"230 833 OFFCURVE",
"251 814 OFFCURVE",
"279 795 CURVE SMOOTH",
"369 739 OFFCURVE",
"541 638 OFFCURVE",
"541 543 CURVE SMOOTH",
"541 496 OFFCURVE",
"501 426 OFFCURVE",
"489 426 CURVE SMOOTH",
"475 426 OFFCURVE",
"460 443 OFFCURVE",
"435 460 CURVE SMOOTH",
"365 506 OFFCURVE",
"162 643 OFFCURVE",
"162 732 CURVE SMOOTH",
"162 783 OFFCURVE",
"200 833 OFFCURVE"
);
}
);
width = 705;
}
);
unicode = 00A7;
},
